<svg xmlns="http://www.w3.org/2000/svg" width="252" height="231" viewBox="0 0 252 231" fill="none">
<path d="M252 66.7744V181.439C248.815 188.246 241.382 193.482 224.924 197.147C208.466 200.812 192.009 202.382 152.722 201.335C113.436 200.288 98.571 176.104 98.571 176.104V66.7744C98.571 66.7744 130.425 67.8216 145.29 68.8687C160.155 69.9159 186.169 69.9159 210.59 69.3923C233.865 68.8949 250.391 66.9681 251.888 66.7901C251.963 66.7796 252 66.7744 252 66.7744Z" fill="#A6A6B2"/>
<path d="M252 50.5439V165.209C248.815 172.015 241.382 177.251 224.924 180.916C208.466 184.581 192.009 186.152 152.722 185.105C113.436 184.058 98.571 159.873 98.571 159.873V50.5439C98.571 50.5439 130.425 51.5911 145.29 52.6383C160.155 53.6854 186.169 53.6854 210.59 53.1619C233.865 52.6645 250.391 50.7377 251.888 50.5597C251.963 50.5492 252 50.5439 252 50.5439Z" fill="#9FC5FD"/>
<path d="M252 24.9248V61.0154C252 61.0154 251.963 61.0207 251.888 61.0311C251.432 61.0835 249.16 62.8218 246.16 63.1098C239.29 63.7695 226.262 64.8585 210.059 65.2041C185.638 65.7277 160.155 65.2041 145.29 64.1569C134.608 63.403 115.576 62.4239 105.473 62.0626C101.518 61.9212 98.571 61.0154 98.571 61.0154V24.9248C98.571 24.9248 99.1019 19.1288 104.411 17.558C109.72 15.9873 137.857 9.86658 175.285 10.5734C212.714 11.275 238.765 14.2176 245.12 17.7203C251.469 21.2231 252 24.9248 252 24.9248Z" fill="#A6A6B2"/>
<path d="M252 14.4532V50.5438C252 50.5438 251.963 50.549 251.888 50.5595C251.432 50.6118 249.16 52.3501 246.16 52.6381C239.29 53.2978 226.262 54.3869 210.059 54.7324C185.638 55.256 160.155 54.7324 145.29 53.6853C134.608 52.9313 115.576 51.9522 105.473 51.5909C101.518 51.4496 98.571 50.5438 98.571 50.5438V14.4532C98.571 14.4532 99.1019 8.65709 104.411 7.08634C109.72 5.51559 137.857 -0.605099 175.285 0.101739C212.714 0.803341 238.765 3.74588 245.12 7.24865C251.469 10.7514 252 14.4532 252 14.4532Z" fill="#B1B6C0"/>
<path d="M188.176 100.284C185.85 100.07 183.918 98.9336 181.922 97.6717C181.922 98.0121 181.922 98.2215 181.922 98.4309C181.922 102.243 181.954 106.049 181.89 109.861C181.869 111.081 181.598 112.295 181.407 113.51C181.295 114.222 180.817 114.594 180.212 114.741C179.071 115.018 177.924 115.018 176.783 114.741C176.156 114.589 175.673 114.206 175.556 113.473C175.37 112.259 175.084 111.044 175.078 109.824C175.062 101.227 175.11 92.6296 175.121 84.0271C175.121 83.4303 175.344 83.158 175.816 83.0219C177.664 82.493 179.511 82.493 181.354 83.0271C181.837 83.1685 182.033 83.4512 182.023 84.0429C181.969 87.9069 181.959 91.7709 181.932 95.635C181.932 95.7606 181.948 95.8863 181.959 96.0853C184.258 96.101 186.307 96.9911 188.303 98.3576C188.393 97.3209 188.484 96.3889 188.547 95.457C188.733 92.9595 188.839 90.4567 189.11 87.975C189.28 86.4147 189.641 84.8754 189.991 83.3517C190.119 82.8072 190.416 82.2836 190.729 81.8229C190.894 81.5768 191.249 81.3673 191.531 81.3516C192.407 81.2888 193.288 81.2993 194.169 81.3412C194.568 81.3621 194.812 81.6501 195.008 82.0794C195.905 84.0219 196.006 86.1162 195.895 88.1896C195.656 92.682 195.199 97.1534 194.976 101.646C194.806 105.028 194.86 108.426 194.822 111.819C194.822 112.128 194.87 112.432 194.891 112.74C194.923 113.217 195.019 113.615 195.555 113.72C195.73 113.756 195.868 113.997 196.028 114.149C195.863 114.311 195.725 114.547 195.534 114.615C195.093 114.772 194.626 114.945 194.175 114.934C192.842 114.913 191.504 114.898 190.188 114.72C188.919 114.547 188.42 113.945 188.255 112.552C188.112 111.369 188.016 110.164 188.016 108.976C188.016 106.494 188.091 104.007 188.138 101.525C188.144 101.133 188.17 100.735 188.192 100.284H188.176Z" fill="black"/>
<path d="M209.194 97.6095C209.194 98.0231 209.194 98.4315 209.194 98.8451C209.146 102.887 209.082 106.929 209.061 110.977C209.061 111.615 208.859 111.924 208.376 112.076C206.513 112.662 204.655 112.662 202.791 112.066C202.324 111.914 202.128 111.605 202.143 110.997C202.324 103.961 202.504 96.9236 202.653 89.8866C202.712 87.2268 202.706 84.5618 202.696 81.8967C202.696 81.3103 202.881 81.0119 203.322 80.8705C205.201 80.2631 207.086 80.2474 208.955 80.881C209.39 81.0276 209.788 81.3522 210.176 81.6454C210.314 81.7449 210.415 81.9753 210.468 82.169C211.933 87.7451 213.998 93.0229 216.196 98.2378C217.094 100.374 217.948 102.531 218.888 104.845C218.925 104.458 218.952 104.228 218.968 103.992C219.344 97.6566 219.711 91.3212 220.104 84.9859C220.183 83.6717 220.348 82.3627 220.465 81.0485C220.528 80.3417 220.974 80.5668 221.304 80.5773C221.718 80.5878 221.526 80.9543 221.505 81.1951C221.272 84.4361 221.012 87.6771 220.804 90.9181C220.528 95.2062 220.268 99.4944 220.04 103.783C219.966 105.217 219.976 106.662 220.003 108.102C220.008 108.542 220.199 108.971 220.289 109.411C220.47 110.285 220.629 111.17 220.815 112.039C220.884 112.369 220.773 112.537 220.528 112.61C219.419 112.929 218.309 113.034 217.253 112.416C216.212 111.804 215.363 110.977 214.683 109.793C212.958 106.804 211.753 103.515 210.447 100.275C210.086 99.3739 209.719 98.4734 209.353 97.578C209.3 97.5937 209.247 97.6095 209.194 97.6252V97.6095Z" fill="black"/>
<path d="M125.886 96.4573C125.886 96.6248 125.886 96.7714 125.886 96.918C125.854 100.578 125.833 104.238 125.785 107.898C125.769 109.227 125.503 110.521 124.84 111.699C124.734 111.887 124.484 112.065 124.272 112.123C123.274 112.395 122.254 112.406 121.256 112.118C120.98 112.039 120.709 111.804 120.529 111.573C119.456 110.212 119.106 108.631 119.101 106.939C119.074 99.8187 119.037 92.698 118.984 85.5772C118.973 84.0588 118.92 82.5457 118.83 81.0325C118.798 80.4723 119.011 80.221 119.515 80.0744C120.672 79.7393 121.851 79.6817 123.035 79.7707C123.645 79.8178 124.166 79.6607 124.75 79.4618C128.174 78.3151 131.524 78.446 134.04 81.4461C135.389 83.0535 136.429 84.8076 136.859 86.8391C137.119 88.0642 137.135 89.3575 137.114 90.6141C137.098 91.9178 136.243 92.8131 135.277 93.5985C133.154 95.3368 130.648 96.0646 127.956 96.3054C127.292 96.3683 126.629 96.4049 125.886 96.4573ZM125.907 95.3263C125.986 95.3368 126.034 95.3525 126.082 95.342C128.227 94.9441 130.696 92.5723 130.547 90.0329C130.393 87.3365 129.735 84.8023 128.556 82.3834C128.147 81.5456 127.616 80.7655 127.123 79.9278C126.714 80.0953 126.401 80.2419 126.077 80.3571C125.779 80.4618 125.705 80.6451 125.71 80.954C125.779 85.5824 125.833 90.2057 125.886 94.8342C125.886 94.9965 125.902 95.1536 125.907 95.3211V95.3263Z" fill="black"/>
<path d="M148.183 96.6252C148.141 101.327 148.098 106.029 148.061 110.731C148.061 110.919 148.093 111.139 148.199 111.296C148.406 111.605 148.247 111.778 147.971 111.867C147.535 112.008 147.084 112.139 146.627 112.202C145.21 112.396 143.798 112.38 142.396 112.071C141.462 111.867 141.191 111.526 141.175 110.652C141.074 104.343 141.334 98.0441 141.701 91.7402C141.876 88.7087 141.961 85.6666 142.056 82.6299C142.072 82.1272 142.29 81.8654 142.789 81.7502C144.605 81.3261 146.426 81.3157 148.236 81.7502C148.9 81.9125 148.942 82.033 148.916 82.6613C148.804 85.5776 148.709 88.4888 148.592 91.4051C148.517 93.1434 148.406 94.8817 148.31 96.62C148.263 96.62 148.22 96.62 148.172 96.62L148.183 96.6252Z" fill="black"/>
<path d="M167.943 82.6088C168.076 82.326 167.858 81.8391 168.352 81.8024C168.915 81.7606 169.032 81.8548 169.032 82.5093C169.032 88.8289 169.021 95.1538 169.026 101.473C169.026 105.348 168.384 109.029 166.791 112.458C166.282 113.553 165.607 114.149 164.535 114.296C161.19 114.762 158.116 113.872 155.239 111.903C153.938 111.013 153.306 109.552 152.998 107.887C152.149 103.259 152.287 98.6775 153.636 94.1957C154.172 92.4207 154.761 90.6667 155.398 88.9389C155.887 87.6194 156.609 86.4571 157.474 85.4309C158.674 84.0067 160.16 83.2475 161.817 83.0067C163.452 82.7658 165.103 82.6506 166.754 82.5093C167.147 82.4779 167.545 82.5721 167.943 82.6088ZM167.975 83.6402C167.253 83.7397 166.563 83.8863 165.867 83.9282C164.434 84.0172 163.457 84.9178 162.926 86.3733C162.114 88.5828 161.434 90.8604 160.691 93.1066C159.221 97.5623 159.109 102.18 159.539 106.856C159.635 107.903 159.736 108.987 160.038 109.971C160.596 111.778 162.018 112.532 163.383 113.286C163.489 113.343 163.712 113.238 163.829 113.128C165.459 111.594 166.627 109.668 167.274 107.327C167.8 105.442 167.954 103.489 167.964 101.521C167.991 95.7298 167.996 89.9442 168.007 84.1533C168.007 84.0015 167.991 83.8444 167.98 83.6507L167.975 83.6402Z" fill="black"/>
<path d="M226.995 99.8659C227.053 96.9076 227.069 93.9494 227.181 90.9964C227.244 89.3995 227.478 87.8078 227.621 86.2108C227.658 85.771 227.94 85.6087 228.264 85.4988C229.394 85.1113 230.562 85.038 231.73 85.1375C232.458 85.1951 233.18 85.3574 233.891 85.5197C234.31 85.6139 234.502 85.8914 234.427 86.4255C234.029 89.2843 233.971 92.1744 233.928 95.0594C233.87 99.3004 233.742 103.536 233.711 107.777C233.7 108.919 233.955 110.065 234.045 111.212C234.061 111.4 233.912 111.709 233.764 111.777C233.355 111.966 232.914 112.102 232.479 112.175C231.045 112.406 229.623 112.374 228.2 112.034C227.573 111.882 227.17 111.547 227.096 110.851C226.995 109.877 226.835 108.903 226.835 107.934C226.841 105.243 226.92 102.557 226.973 99.8659C226.979 99.8659 226.984 99.8659 226.989 99.8659H226.995Z" fill="black"/>
<path d="M230.233 83.1894C230.302 83.1265 230.339 83.0742 230.387 83.0428C232.208 81.9485 232.516 80.0112 233.949 78.2939C234.284 77.8907 236.131 78.1735 236.604 78.5085C236.19 79.0374 235.781 79.5609 235.367 80.0741C234.39 81.2731 233.323 82.3412 232.123 83.2051C231.635 83.5611 230.679 83.5768 230.233 83.1894Z" fill="black"/>
<path d="M100.408 9.8614C100.408 9.8614 97.5093 14.9402 173.958 14.9402C250.407 14.9402 248.884 9.8614 248.884 9.8614C248.884 9.8614 246.441 0.855771 173.3 0.0442167C100.158 -0.767337 100.408 9.8614 100.408 9.8614Z" fill="#A6A6B2"/>
<path d="M147.334 208.095C146.198 205.43 134.136 206.048 135.521 199.105C136.907 192.168 128.827 192.953 128.954 191.116C129.082 189.278 124.58 185.1 114.774 179.633C104.968 174.162 100.005 165.722 100.005 165.722C100.005 165.722 99.9567 165.528 99.8293 165.203C99.5904 164.607 99.0754 163.57 98.0614 162.491C97.8013 162.209 97.504 161.926 97.1642 161.648C96.7501 161.303 96.2829 160.962 95.7467 160.648C95.0937 160.261 94.3823 159.968 93.6444 159.716C92.6675 159.386 91.6429 159.135 90.6448 158.868C88.3301 158.245 86.18 157.522 85.1766 155.449C85.1501 155.386 85.1182 155.329 85.081 155.271C84.874 154.873 84.6138 154.517 84.3006 154.208C83.1698 153.067 81.3488 152.444 78.551 152.014C77.7334 151.894 76.8362 151.784 75.8488 151.69C74.3888 151.543 72.7377 151.417 70.8583 151.287C70.4283 151.255 69.9877 151.224 69.5311 151.192C68.3313 151.114 67.0465 151.025 65.6715 150.931C65.4803 150.915 65.2839 150.904 65.0875 150.889C64.7743 150.868 64.4716 150.852 64.1797 150.836C63.5904 150.805 63.0329 150.794 62.5127 150.8C62.003 150.805 61.5252 150.826 61.0686 150.857C59.0778 150.999 57.5859 151.397 56.3649 151.978C55.9879 152.156 55.6375 152.355 55.3031 152.564C52.8503 154.114 51.4382 156.454 48.3537 158.612C48.0351 158.831 47.7007 159.051 47.345 159.266C47.122 159.402 46.8937 159.538 46.6548 159.669C46.0443 160.004 45.3807 160.334 44.648 160.648C44.5153 160.706 44.3826 160.763 44.2498 160.826C42.9226 161.428 41.8927 162.072 41.0857 162.743C40.7512 163.02 40.4592 163.298 40.1991 163.58C38.6489 165.261 38.2719 167.036 37.9534 168.622H37.9481C37.7039 169.827 37.4862 170.921 36.8226 171.795L36.7961 171.822C36.7536 171.884 36.7005 171.947 36.6474 172.005C36.2492 172.455 35.713 172.832 34.9592 173.13C34.2212 173.418 33.616 173.774 33.1223 174.172C33.1169 174.178 33.1116 174.178 33.1063 174.183C33.101 174.188 33.0957 174.193 33.0957 174.199C32.9789 174.288 32.8674 174.382 32.7666 174.487C32.448 174.785 32.1826 175.104 31.9596 175.434C31.9437 175.455 31.9331 175.481 31.9171 175.502C31.5349 176.094 31.3013 176.712 31.1632 177.309C30.6536 181.56 25.3022 186.67 21.5859 190.335C17.8696 194 17.8696 193.477 14.6843 196.095C11.4989 198.713 11.4989 202.378 7.25172 205.519C3.00455 208.661 3.53545 207.614 0.350071 210.755C-2.8353 213.897 16.8078 213.373 15.2152 214.42C13.6225 215.467 21.055 219.656 25.8331 219.132C30.6111 218.609 34.3274 223.321 38.5746 223.321C42.8217 223.321 40.1673 222.274 40.1673 228.557C40.1673 234.84 76.2682 224.892 80.5153 223.321C84.7625 221.75 90.6024 223.845 94.8495 224.368C99.0967 224.892 102.282 224.368 107.06 221.227C111.838 218.085 111.838 218.609 117.227 216.682C122.615 214.755 142.099 217.562 147.334 215.483C152.568 213.404 148.47 210.755 147.334 208.095Z" fill="#7BAF33"/>
</svg>