<svg width="417" height="417" viewBox="0 0 417 417" fill="none" xmlns="http://www.w3.org/2000/svg">
<g clip-path="url(#clip0_145_5484)">
<path d="M295 159.774V274.439C291.815 281.246 284.382 286.482 267.924 290.147C251.466 293.812 235.009 295.382 195.722 294.335C156.436 293.288 141.571 269.104 141.571 269.104V159.774C141.571 159.774 173.425 160.822 188.29 161.869C203.155 162.916 229.169 162.916 253.59 162.392C276.865 161.895 293.391 159.968 294.888 159.79C294.963 159.78 295 159.774 295 159.774Z" fill="#A6A6B2"/>
<path d="M295 143.544V258.209C291.815 265.015 284.382 270.251 267.924 273.916C251.466 277.581 235.009 279.152 195.722 278.105C156.436 277.058 141.571 252.873 141.571 252.873V143.544C141.571 143.544 173.425 144.591 188.29 145.638C203.155 146.685 229.169 146.685 253.59 146.162C276.865 145.664 293.391 143.738 294.888 143.56C294.963 143.549 295 143.544 295 143.544Z" fill="#9FC5FD"/>
<path d="M295 117.925V154.015C295 154.015 294.963 154.021 294.888 154.031C294.432 154.083 292.16 155.822 289.16 156.11C282.29 156.769 269.262 157.859 253.059 158.204C228.638 158.728 203.155 158.204 188.29 157.157C177.608 156.403 158.576 155.424 148.473 155.063C144.518 154.921 141.571 154.015 141.571 154.015V117.925C141.571 117.925 142.102 112.129 147.411 110.558C152.72 108.987 180.857 102.867 218.285 103.573C255.714 104.275 281.765 107.218 288.12 110.72C294.469 114.223 295 117.925 295 117.925Z" fill="#A6A6B2"/>
<path d="M295 107.453V143.544C295 143.544 294.963 143.549 294.888 143.559C294.432 143.612 292.16 145.35 289.16 145.638C282.29 146.298 269.262 147.387 253.059 147.732C228.638 148.256 203.155 147.732 188.29 146.685C177.608 145.931 158.576 144.952 148.473 144.591C144.518 144.45 141.571 143.544 141.571 143.544V107.453C141.571 107.453 142.102 101.657 147.411 100.086C152.72 98.5156 180.857 92.3949 218.285 93.1017C255.714 93.8033 281.765 96.7459 288.12 100.249C294.469 103.751 295 107.453 295 107.453Z" fill="#B1B6C0"/>
<path d="M231.176 193.284C228.85 193.07 226.918 191.934 224.922 190.672C224.922 191.012 224.922 191.221 224.922 191.431C224.922 195.243 224.954 199.049 224.89 202.861C224.869 204.081 224.598 205.295 224.407 206.51C224.295 207.222 223.817 207.594 223.212 207.741C222.071 208.018 220.924 208.018 219.783 207.741C219.156 207.589 218.673 207.206 218.556 206.473C218.37 205.259 218.084 204.044 218.078 202.824C218.062 194.227 218.11 185.63 218.121 177.027C218.121 176.43 218.344 176.158 218.816 176.022C220.664 175.493 222.511 175.493 224.354 176.027C224.837 176.168 225.033 176.451 225.023 177.043C224.969 180.907 224.959 184.771 224.932 188.635C224.932 188.761 224.948 188.886 224.959 189.085C227.258 189.101 229.307 189.991 231.303 191.358C231.393 190.321 231.484 189.389 231.547 188.457C231.733 185.959 231.839 183.457 232.11 180.975C232.28 179.415 232.641 177.875 232.991 176.352C233.119 175.807 233.416 175.284 233.729 174.823C233.894 174.577 234.249 174.367 234.531 174.352C235.407 174.289 236.288 174.299 237.169 174.341C237.568 174.362 237.812 174.65 238.008 175.079C238.905 177.022 239.006 179.116 238.895 181.19C238.656 185.682 238.199 190.153 237.976 194.646C237.806 198.028 237.86 201.426 237.822 204.819C237.822 205.128 237.87 205.432 237.891 205.74C237.923 206.217 238.019 206.615 238.555 206.72C238.73 206.756 238.868 206.997 239.028 207.149C238.863 207.311 238.725 207.547 238.534 207.615C238.093 207.772 237.626 207.945 237.175 207.934C235.842 207.913 234.504 207.898 233.188 207.72C231.919 207.547 231.42 206.945 231.255 205.552C231.112 204.369 231.016 203.164 231.016 201.976C231.016 199.494 231.091 197.007 231.138 194.525C231.144 194.133 231.17 193.735 231.192 193.284H231.176Z" fill="black"/>
<path d="M252.194 190.609C252.194 191.023 252.194 191.431 252.194 191.845C252.146 195.887 252.082 199.929 252.061 203.977C252.061 204.615 251.859 204.924 251.376 205.076C249.513 205.662 247.655 205.662 245.791 205.066C245.324 204.914 245.128 204.605 245.143 203.997C245.324 196.961 245.504 189.924 245.653 182.887C245.712 180.227 245.706 177.562 245.696 174.897C245.696 174.31 245.881 174.012 246.322 173.871C248.201 173.263 250.086 173.247 251.955 173.881C252.39 174.028 252.788 174.352 253.176 174.645C253.314 174.745 253.415 174.975 253.468 175.169C254.933 180.745 256.998 186.023 259.196 191.238C260.094 193.374 260.948 195.531 261.888 197.845C261.925 197.458 261.952 197.228 261.968 196.992C262.344 190.657 262.711 184.321 263.104 177.986C263.183 176.672 263.348 175.363 263.465 174.049C263.528 173.342 263.974 173.567 264.304 173.577C264.718 173.588 264.526 173.954 264.505 174.195C264.272 177.436 264.012 180.677 263.804 183.918C263.528 188.206 263.268 192.494 263.04 196.783C262.966 198.217 262.976 199.662 263.003 201.102C263.008 201.542 263.199 201.971 263.289 202.411C263.47 203.285 263.629 204.17 263.815 205.039C263.884 205.369 263.773 205.537 263.528 205.61C262.419 205.929 261.309 206.034 260.253 205.416C259.212 204.804 258.363 203.977 257.683 202.793C255.958 199.804 254.753 196.515 253.447 193.275C253.086 192.374 252.719 191.473 252.353 190.578C252.3 190.594 252.247 190.609 252.194 190.625V190.609Z" fill="black"/>
<path d="M168.886 189.457C168.886 189.625 168.886 189.771 168.886 189.918C168.854 193.578 168.833 197.238 168.785 200.898C168.769 202.227 168.503 203.521 167.84 204.699C167.734 204.887 167.484 205.065 167.272 205.123C166.274 205.395 165.254 205.406 164.256 205.118C163.98 205.039 163.709 204.804 163.529 204.573C162.456 203.212 162.106 201.631 162.101 199.939C162.074 192.819 162.037 185.698 161.984 178.577C161.973 177.059 161.92 175.546 161.83 174.033C161.798 173.472 162.011 173.221 162.515 173.074C163.672 172.739 164.851 172.682 166.035 172.771C166.645 172.818 167.166 172.661 167.75 172.462C171.174 171.315 174.524 171.446 177.04 174.446C178.389 176.054 179.429 177.808 179.859 179.839C180.119 181.064 180.135 182.357 180.114 183.614C180.098 184.918 179.243 185.813 178.277 186.599C176.154 188.337 173.648 189.065 170.956 189.305C170.292 189.368 169.629 189.405 168.886 189.457ZM168.907 188.326C168.986 188.337 169.034 188.353 169.082 188.342C171.227 187.944 173.696 185.572 173.547 183.033C173.393 180.336 172.735 177.802 171.556 175.383C171.147 174.546 170.616 173.765 170.123 172.928C169.714 173.095 169.401 173.242 169.077 173.357C168.779 173.462 168.705 173.645 168.71 173.954C168.779 178.582 168.833 183.206 168.886 187.834C168.886 187.996 168.902 188.154 168.907 188.321V188.326Z" fill="black"/>
<path d="M191.183 189.625C191.141 194.327 191.098 199.029 191.061 203.731C191.061 203.919 191.093 204.139 191.199 204.296C191.406 204.605 191.247 204.778 190.971 204.867C190.535 205.008 190.084 205.139 189.627 205.202C188.21 205.396 186.798 205.38 185.396 205.071C184.462 204.867 184.191 204.526 184.175 203.652C184.074 197.343 184.334 191.044 184.701 184.74C184.876 181.709 184.961 178.667 185.056 175.63C185.072 175.127 185.29 174.865 185.789 174.75C187.605 174.326 189.426 174.316 191.236 174.75C191.9 174.913 191.942 175.033 191.916 175.661C191.804 178.578 191.709 181.489 191.592 184.405C191.517 186.143 191.406 187.882 191.31 189.62C191.263 189.62 191.22 189.62 191.172 189.62L191.183 189.625Z" fill="black"/>
<path d="M210.943 175.609C211.076 175.326 210.858 174.839 211.352 174.802C211.915 174.761 212.032 174.855 212.032 175.509C212.032 181.829 212.021 188.154 212.026 194.473C212.026 198.348 211.384 202.029 209.791 205.458C209.282 206.553 208.607 207.149 207.535 207.296C204.19 207.762 201.116 206.872 198.239 204.903C196.938 204.013 196.306 202.552 195.998 200.887C195.149 196.259 195.287 191.678 196.636 187.196C197.172 185.421 197.761 183.667 198.398 181.939C198.887 180.619 199.609 179.457 200.474 178.431C201.674 177.007 203.16 176.248 204.817 176.007C206.452 175.766 208.103 175.651 209.754 175.509C210.147 175.478 210.545 175.572 210.943 175.609ZM210.975 176.64C210.253 176.74 209.563 176.886 208.867 176.928C207.434 177.017 206.457 177.918 205.926 179.373C205.114 181.583 204.434 183.86 203.691 186.107C202.221 190.562 202.109 195.18 202.539 199.856C202.635 200.903 202.736 201.987 203.038 202.971C203.596 204.778 205.018 205.532 206.383 206.286C206.489 206.343 206.712 206.238 206.829 206.128C208.459 204.594 209.627 202.668 210.274 200.327C210.8 198.442 210.954 196.489 210.964 194.521C210.991 188.73 210.996 182.944 211.007 177.153C211.007 177.001 210.991 176.844 210.98 176.651L210.975 176.64Z" fill="black"/>
<path d="M269.995 192.866C270.053 189.908 270.069 186.949 270.181 183.996C270.244 182.399 270.478 180.808 270.621 179.211C270.658 178.771 270.94 178.609 271.264 178.499C272.394 178.111 273.562 178.038 274.73 178.137C275.458 178.195 276.18 178.357 276.891 178.52C277.31 178.614 277.502 178.891 277.427 179.425C277.029 182.284 276.971 185.174 276.928 188.059C276.87 192.3 276.742 196.536 276.711 200.777C276.7 201.919 276.955 203.065 277.045 204.212C277.061 204.4 276.912 204.709 276.764 204.777C276.355 204.966 275.914 205.102 275.479 205.175C274.045 205.406 272.623 205.374 271.2 205.034C270.573 204.882 270.17 204.547 270.096 203.851C269.995 202.877 269.835 201.903 269.835 200.934C269.841 198.243 269.92 195.557 269.973 192.866C269.979 192.866 269.984 192.866 269.989 192.866H269.995Z" fill="black"/>
<path d="M273.233 176.189C273.302 176.127 273.339 176.074 273.387 176.043C275.208 174.948 275.516 173.011 276.949 171.294C277.284 170.891 279.131 171.173 279.604 171.509C279.19 172.037 278.781 172.561 278.367 173.074C277.39 174.273 276.323 175.341 275.123 176.205C274.635 176.561 273.679 176.577 273.233 176.189Z" fill="black"/>
<path d="M274.651 261.847C274.417 262.434 274.629 263.114 275.139 263.486C275.601 263.821 276.466 263.921 276.817 263.371C276.986 263.109 276.976 262.774 276.997 262.476C277.024 262.12 277.05 261.763 277.077 261.407C277.13 260.68 277.188 259.957 277.241 259.229C277.257 259.02 277.045 258.837 276.843 258.837C276.615 258.837 276.461 259.015 276.445 259.229C276.365 260.313 276.28 261.392 276.201 262.476C276.19 262.591 276.222 262.858 276.137 262.957C276.169 262.921 276.1 262.957 276.068 262.968C276.031 262.973 275.999 262.973 275.962 262.968C275.877 262.968 275.787 262.947 275.712 262.91C275.367 262.758 275.288 262.376 275.42 262.051C275.5 261.853 275.335 261.622 275.144 261.57C274.921 261.507 274.735 261.648 274.656 261.842L274.651 261.847Z" fill="black"/>
<path d="M278.452 262.89C278.457 261.549 278.85 260.245 279.577 259.115L278.834 258.916C278.871 260.156 279.041 261.397 279.349 262.602C279.471 263.094 280.241 262.884 280.119 262.392C279.827 261.251 279.668 260.088 279.63 258.91C279.62 258.518 279.099 258.382 278.887 258.711C278.085 259.957 277.661 261.413 277.65 262.884C277.65 263.392 278.446 263.392 278.446 262.884L278.452 262.89Z" fill="black"/>
<path d="M278.547 262.01C278.818 262.01 279.083 262.01 279.354 262.01C279.455 262.01 279.561 261.968 279.636 261.895C279.71 261.821 279.758 261.717 279.752 261.617C279.742 261.402 279.577 261.224 279.354 261.224C279.083 261.224 278.818 261.224 278.547 261.224C278.446 261.224 278.34 261.266 278.266 261.34C278.192 261.413 278.144 261.518 278.149 261.617C278.16 261.832 278.324 262.01 278.547 262.01Z" fill="black"/>
<path d="M280.448 258.68C280.522 259.874 280.591 261.062 280.666 262.256C280.676 262.465 280.841 262.649 281.064 262.649C281.271 262.649 281.473 262.471 281.462 262.256C281.388 261.062 281.319 259.874 281.244 258.68C281.234 258.47 281.069 258.287 280.846 258.287C280.639 258.287 280.437 258.465 280.448 258.68Z" fill="black"/>
<path d="M281 259.235C280.899 259.251 281.042 259.235 281.064 259.23C281.095 259.23 281.133 259.225 281.165 259.219C281.244 259.214 281.324 259.209 281.403 259.209C281.446 259.209 281.494 259.209 281.536 259.214C281.642 259.219 281.456 259.193 281.563 259.214C281.605 259.225 281.648 259.23 281.69 259.246C281.711 259.251 281.791 259.298 281.717 259.251C281.754 259.272 281.791 259.293 281.828 259.314C281.775 259.277 281.817 259.308 281.844 259.329C281.86 259.345 281.871 259.355 281.881 259.371C281.849 259.329 281.844 259.324 281.871 259.361C281.886 259.387 281.897 259.408 281.913 259.434C281.95 259.497 281.897 259.361 281.924 259.455C281.934 259.486 281.945 259.518 281.95 259.549C281.95 259.57 281.956 259.586 281.961 259.607C281.956 259.554 281.95 259.544 281.956 259.575C281.956 259.607 281.956 259.643 281.956 259.675C281.956 259.696 281.961 259.743 281.95 259.764C281.961 259.706 281.961 259.701 281.95 259.748C281.95 259.769 281.945 259.785 281.94 259.806C281.934 259.832 281.924 259.863 281.918 259.89C281.913 259.911 281.908 259.926 281.897 259.947C281.918 259.9 281.918 259.895 281.902 259.931C281.871 259.994 281.833 260.052 281.791 260.115C281.839 260.047 281.775 260.13 281.77 260.141C281.738 260.172 281.706 260.204 281.674 260.235C281.648 260.256 281.621 260.277 281.6 260.303C281.575 260.321 281.575 260.321 281.6 260.303C281.6 260.303 281.563 260.329 281.547 260.34C281.483 260.387 281.414 260.424 281.34 260.46C281.276 260.497 281.207 260.523 281.138 260.56C281.111 260.57 281.117 260.57 281.154 260.555C281.133 260.565 281.111 260.57 281.09 260.581C281.048 260.596 281.005 260.612 280.963 260.628C280.766 260.696 280.612 260.9 280.687 261.11C280.75 261.298 280.968 261.46 281.175 261.382C281.812 261.151 282.444 260.795 282.683 260.125C282.784 259.848 282.794 259.507 282.688 259.225C282.561 258.874 282.295 258.628 281.94 258.502C281.584 258.376 281.17 258.429 280.793 258.476C280.586 258.502 280.453 258.774 280.517 258.958C280.591 259.183 280.782 259.261 281.005 259.23L281 259.235Z" fill="black"/>
<path d="M283.877 261.775C283.83 260.497 283.787 259.099 284.594 258.015L283.851 257.816C283.877 259.131 284.254 260.419 284.95 261.544C285.215 261.974 285.905 261.581 285.64 261.146C285.019 260.141 284.679 258.995 284.652 257.816C284.642 257.403 284.138 257.314 283.909 257.618C283.023 258.806 283.033 260.361 283.086 261.77C283.102 262.272 283.899 262.277 283.883 261.77L283.877 261.775Z" fill="black"/>
<path d="M283.793 260.581C283.978 260.581 284.17 260.581 284.355 260.581C284.456 260.581 284.562 260.539 284.637 260.465C284.674 260.429 284.7 260.387 284.722 260.34C284.748 260.293 284.759 260.24 284.753 260.188C284.753 260.088 284.716 259.978 284.637 259.91C284.557 259.842 284.461 259.795 284.355 259.795C284.17 259.795 283.978 259.795 283.793 259.795C283.692 259.795 283.586 259.837 283.511 259.91C283.474 259.947 283.447 259.989 283.426 260.036C283.4 260.083 283.389 260.135 283.394 260.188C283.394 260.287 283.432 260.397 283.511 260.465C283.591 260.533 283.686 260.581 283.793 260.581Z" fill="black"/>
<path d="M286.261 260.978C286.351 259.769 286.442 258.554 286.532 257.344L285.751 257.449C286.166 258.481 286.659 259.481 287.227 260.439C287.424 260.763 287.987 260.638 287.971 260.24C287.923 259.214 287.875 258.187 287.827 257.161C287.806 256.659 287.01 256.653 287.031 257.161C287.079 258.187 287.126 259.214 287.174 260.24L287.918 260.041C287.381 259.146 286.909 258.208 286.521 257.24C286.357 256.831 285.773 256.884 285.741 257.344C285.651 258.554 285.56 259.769 285.47 260.978C285.454 261.188 285.667 261.371 285.868 261.371C286.097 261.371 286.25 261.193 286.266 260.978H286.261Z" fill="black"/>
<path d="M280.591 254.559C280.448 254.281 280.506 254.051 280.761 253.873L281.483 254.046C281.573 254.266 281.558 254.454 281.441 254.611C281.382 254.653 281.382 254.664 281.43 254.632C281.478 254.606 281.478 254.606 281.43 254.632C281.52 254.611 281.536 254.606 281.483 254.616C281.43 254.627 281.451 254.627 281.542 254.622C281.467 254.611 281.473 254.616 281.568 254.637L281.218 253.323C281.398 253.177 281.664 253.292 281.781 253.475C281.802 254.072 281.6 254.334 281.181 254.255C281.08 254.224 281.005 254.156 280.947 254.061C280.931 254.035 280.926 254.004 280.926 253.967C280.926 254.02 280.926 254.077 280.926 254.13C280.915 254.234 280.915 254.239 280.926 254.145C280.947 254.093 280.974 254.046 281.011 254.004L281.361 253.8L281.313 253.815H281.738L281.823 253.847L282.11 254.13C282.136 254.224 282.136 254.219 282.11 254.114C282.088 254.014 282.083 254.004 282.088 254.077C282.073 254.156 282.03 254.213 281.961 254.266C281.919 254.36 281.85 254.418 281.759 254.444C281.016 254.093 280.846 253.763 281.25 253.465C281.287 253.438 281.329 253.423 281.377 253.423C281.621 253.376 281.717 253.527 281.828 253.69C281.828 253.794 281.828 253.8 281.828 253.705V253.784C281.812 253.826 281.791 253.863 281.754 253.889C281.823 253.826 281.823 253.821 281.754 253.873L281.818 253.836C281.738 253.863 281.743 253.863 281.828 253.836C281.43 253.8 281.228 253.648 281.228 253.376C281.228 253.407 281.228 253.438 281.228 253.475C281.228 253.512 281.228 253.548 281.218 253.585C281.228 253.506 281.223 253.517 281.207 253.616C281.191 253.695 281.175 253.773 281.154 253.852C281.128 253.957 281.09 254.056 281.053 254.156C281.101 254.041 281.005 254.25 281 254.26C280.963 254.334 280.926 254.402 280.883 254.47C280.867 254.496 280.708 254.726 280.777 254.637C280.729 254.7 280.671 254.763 280.618 254.821C280.581 254.857 280.544 254.899 280.501 254.936C280.559 254.884 280.634 254.857 280.724 254.852L281.128 254.957L281.319 255.224L281.297 255.161C281.297 255.119 281.276 255.072 281.271 255.03C281.287 255.103 281.276 255.13 281.281 255.041C281.281 254.993 281.292 254.925 281.281 254.878C281.271 254.789 281.25 254.972 281.281 254.889C281.297 254.852 281.303 254.8 281.313 254.758C281.324 254.716 281.345 254.674 281.356 254.632C281.297 254.711 281.377 254.538 281.356 254.632C281.414 254.554 281.451 254.454 281.515 254.376C281.42 254.496 281.579 254.329 281.616 254.292C281.669 254.234 281.674 254.255 281.616 254.292C281.653 254.271 281.69 254.245 281.727 254.224C281.765 254.203 281.807 254.182 281.844 254.166L281.781 254.198C281.887 254.177 281.887 254.166 281.765 254.171C281.696 254.182 281.632 254.161 281.584 254.114C281.536 254.103 281.499 254.077 281.473 254.035C281.446 253.999 281.446 253.999 281.473 254.035C281.494 254.072 281.494 254.072 281.483 254.035C281.451 253.967 281.51 254.114 281.51 254.13C281.52 254.177 281.526 254.182 281.515 254.145C281.515 254.109 281.51 254.114 281.515 254.161C281.515 254.208 281.515 254.213 281.515 254.177C281.515 254.161 281.515 254.14 281.526 254.124C281.547 254.088 281.558 254.061 281.589 254.035C281.717 253.915 281.897 253.962 282.025 254.041L282.067 254.098L282.035 254.041C282.078 254.041 282.057 254.161 282.051 254.041C282.062 254.208 282.067 254.067 282.094 253.972C282.136 253.831 282.131 253.842 282.195 253.732C282.205 253.711 282.216 253.69 282.232 253.669C282.258 253.632 282.258 253.627 282.232 253.658C282.285 253.737 281.674 253.768 281.94 253.794L281.536 253.69L281.409 253.543L281.441 253.611C281.43 253.538 281.451 253.643 281.457 253.664C281.494 253.789 281.531 253.91 281.552 254.041C281.573 254.177 281.552 253.952 281.552 254.088C281.552 254.145 281.558 254.203 281.558 254.26C281.558 254.318 281.558 254.376 281.552 254.433C281.542 254.58 281.595 254.271 281.542 254.522C281.531 254.58 281.515 254.632 281.504 254.69C281.489 254.789 281.473 254.716 281.52 254.685L281.489 254.742L281.648 254.59L282.009 254.538L282.189 254.632C282.216 254.653 282.232 254.705 282.258 254.726C282.269 254.779 282.274 254.779 282.274 254.726C282.274 254.679 282.274 254.669 282.274 254.7C282.274 254.753 282.296 254.611 282.29 254.601C282.28 254.543 282.221 254.685 282.301 254.58L282.014 254.863C281.791 254.957 281.589 254.931 281.42 254.789C281.319 254.685 281.271 254.564 281.287 254.438C281.313 254.386 281.308 254.407 281.26 254.491C281.239 254.527 281.218 254.564 281.197 254.596C281.154 254.669 281.112 254.737 281.059 254.805C281.112 254.742 281.106 254.742 281.048 254.81C280.979 254.873 280.979 254.873 281.048 254.821C280.979 254.857 280.974 254.868 281.027 254.842C281.064 254.821 281.101 254.815 281.143 254.821C281.191 254.821 281.239 254.842 281.281 254.868C281.345 254.925 281.345 254.925 281.281 254.868C281.335 254.962 281.329 255.014 281.319 254.899C281.329 255.067 281.34 254.648 281.319 254.805C281.329 254.716 281.356 254.627 281.382 254.543C281.393 254.507 281.404 254.47 281.42 254.438C281.388 254.512 281.393 254.507 281.43 254.423C281.451 254.391 281.616 254.177 281.515 254.281C281.542 254.255 281.696 254.13 281.573 254.213C281.611 254.187 281.653 254.166 281.696 254.145C281.611 254.182 281.611 254.187 281.696 254.156C281.786 254.135 281.786 254.14 281.685 254.156H281.754C281.653 254.135 281.648 254.135 281.738 254.156C281.823 254.182 281.823 254.182 281.733 254.145C281.807 254.192 281.807 254.187 281.733 254.135C281.818 254.229 281.796 254.192 281.669 254.035V253.616C281.781 253.459 281.807 253.412 281.738 253.475C281.696 253.512 281.712 253.501 281.781 253.444C281.701 253.496 281.754 253.454 281.807 253.444C281.738 253.459 281.611 253.459 281.786 253.465C281.738 253.465 281.68 253.465 281.637 253.465C281.579 253.47 281.765 253.522 281.637 253.459C281.51 253.397 281.706 253.47 281.637 253.459C281.531 253.449 281.579 253.376 281.627 253.459C281.547 253.323 281.696 253.585 281.6 253.433C281.281 252.925 280.544 252.925 280.225 253.433C279.668 254.334 279.402 255.643 280.299 256.444C281.244 257.287 282.593 256.847 283.24 255.884C283.517 255.47 283.66 254.962 283.734 254.475C283.819 253.925 283.856 253.376 283.798 252.826C283.692 251.821 283.41 250.218 282.099 250.192C281.616 250.182 281.037 250.323 280.607 250.538C280.055 250.815 279.779 251.313 279.561 251.862C279.174 252.836 278.85 253.857 279.078 254.91C279.307 255.962 280.326 257.166 281.504 256.674C282.067 256.439 282.274 255.884 282.46 255.36C282.646 254.836 282.784 254.334 282.895 253.805C282.954 253.527 283.002 253.245 283.039 252.962C283.097 252.559 283.113 252.161 282.8 251.847C282.487 251.533 281.966 251.501 281.579 251.742C281.26 251.936 281.106 252.271 280.974 252.595C280.952 252.643 280.936 252.695 280.915 252.747C280.915 252.747 280.814 252.967 280.873 252.857C280.846 252.904 280.825 252.951 280.793 252.993L280.836 252.936C280.777 252.988 280.772 252.993 280.814 252.957L280.841 252.936C280.772 252.972 280.761 252.978 280.814 252.951C280.889 252.951 280.952 252.92 281.032 252.936C281.239 252.988 281.234 253.082 281.329 253.218C281.308 253.14 281.308 253.129 281.319 253.187C281.329 253.245 281.329 253.234 281.324 253.156C281.319 253.171 281.276 253.323 281.324 253.161C281.329 253.14 281.398 252.978 281.356 253.061C281.313 253.145 281.388 253.025 281.398 253.004C281.441 252.936 281.319 253.067 281.425 252.972C281.457 252.941 281.489 252.91 281.526 252.878C281.398 252.983 281.573 252.862 281.595 252.852C281.451 252.91 281.568 252.868 281.595 252.852L281.664 252.836C281.531 252.862 281.409 252.826 281.297 252.721L281.09 252.376C281.138 252.501 281.122 252.344 281.106 252.417C281.106 252.433 281.09 252.58 281.106 252.491C281.128 252.391 281.08 252.575 281.069 252.595C281.106 252.512 281.09 252.564 281.053 252.595C281.064 252.585 281.181 252.491 281.112 252.533C281.011 252.59 281.287 252.465 281.096 252.533L281.181 252.522H281.117C281.143 252.522 281.175 252.527 281.202 252.533C281.128 252.512 281.122 252.512 281.181 252.533C281.223 252.569 281.271 252.58 281.308 252.627C281.335 252.669 281.361 252.8 281.34 252.669C281.35 252.732 281.35 252.779 281.345 252.842L281.361 252.779C281.324 252.857 281.319 252.868 281.35 252.821C281.345 252.821 281.457 252.69 281.388 252.763C281.319 252.836 281.457 252.705 281.473 252.695C281.414 252.742 281.42 252.732 281.483 252.695C281.632 252.616 281.43 252.716 281.393 252.711L280.989 252.606C280.836 252.501 280.756 252.37 280.751 252.213C280.751 252.26 280.751 252.313 280.751 252.36C280.767 252.145 280.698 252.517 280.735 252.412C280.761 252.365 280.751 252.376 280.713 252.449C280.692 252.491 280.666 252.533 280.639 252.574C280.751 252.423 280.459 252.711 280.613 252.601L281.781 253.072C281.781 253.072 281.712 252.815 281.727 252.92C281.743 253.025 281.727 252.821 281.727 252.794C281.727 252.763 281.727 252.726 281.733 252.695C281.717 252.794 281.722 252.8 281.738 252.705C281.759 252.643 281.775 252.574 281.796 252.512C281.733 252.674 281.828 252.48 281.834 252.459C281.903 252.313 281.765 252.512 281.871 252.402C281.919 252.355 281.966 252.307 282.014 252.266C281.876 252.376 282.104 252.229 282.136 252.213L281.048 251.93C281.016 251.862 280.989 251.8 280.995 251.721C280.995 251.669 281.074 251.548 280.995 251.653C281.09 251.522 281.202 251.491 281.366 251.517L281.717 252.831C281.627 252.925 281.462 252.936 281.356 252.878C281.308 252.852 281.266 252.815 281.234 252.773C281.17 252.69 281.159 252.402 281.149 252.58C281.149 252.522 281.154 252.47 281.181 252.412C281.218 252.334 281.494 252.234 281.366 252.245C281.223 252.255 281.037 252.339 280.92 252.407C280.804 252.475 280.692 252.58 280.602 252.684C280.559 252.737 280.517 252.784 280.475 252.831C280.464 252.842 280.358 252.936 280.4 252.899C280.273 252.999 279.975 253.14 279.768 253.234L280.936 254.119C280.947 254.025 280.968 253.936 280.995 253.842C281.011 253.794 281.08 253.648 281.016 253.768C281.059 253.685 281.106 253.606 281.159 253.527C281.074 253.653 281.191 253.496 281.212 253.47C281.234 253.449 281.451 253.26 281.319 253.36C281.377 253.318 281.435 253.281 281.499 253.245C281.542 253.224 281.584 253.198 281.627 253.182C281.547 253.213 281.547 253.213 281.632 253.182C281.658 253.177 281.897 253.109 281.802 253.129C281.706 253.15 281.956 253.119 281.988 253.114C282.152 253.098 282.285 253.077 282.439 253.014C282.678 252.915 282.864 252.753 282.991 252.527C283.081 252.37 283.124 252.208 283.15 252.035C283.161 251.972 283.171 251.915 283.182 251.852C283.187 251.821 283.198 251.789 283.209 251.758C283.15 251.946 283.028 252.067 282.837 252.124L281.94 251.763C282.025 251.894 281.94 251.763 281.94 251.711C281.94 251.653 281.972 251.59 282.014 251.548C282.067 251.501 282.211 251.496 282.073 251.506C282.126 251.506 282.311 251.533 282.163 251.485C281.547 251.292 281.069 251.894 281.181 252.454C281.228 252.684 281.271 252.915 281.319 253.145L282.651 252.381C282.651 252.381 282.513 252.203 282.582 252.307C282.582 252.297 282.471 252.093 282.524 252.224C282.497 252.156 282.476 252.077 282.46 252.004C282.487 252.14 282.46 251.951 282.46 251.91L281.876 252.669L281.775 252.679L281.372 252.574C281.303 252.517 281.25 252.449 281.218 252.36C281.239 252.423 281.255 252.48 281.271 252.543C281.292 252.622 281.319 252.768 281.324 252.815C281.329 252.862 281.335 253.009 281.335 253.093C281.335 253.156 281.335 253.219 281.329 253.281C281.329 253.177 281.366 253.082 281.441 252.999L281.791 252.794L281.876 252.779L282.28 252.883C282.375 252.936 282.322 253.025 282.317 252.915C282.317 253.046 282.301 252.857 282.317 252.941C282.317 252.988 282.317 252.988 282.317 252.941C282.317 252.883 282.317 252.894 282.301 252.972L282.317 252.904C282.274 252.988 282.274 252.993 282.317 252.925L282.03 253.208L281.934 253.245H281.51L281.573 253.271L281.223 253.067C281.361 253.198 281.154 253.009 281.186 252.967C281.197 252.993 281.202 253.02 281.207 253.046C281.218 253.103 281.218 253.082 281.197 252.978C281.186 253.04 281.138 253.171 281.202 252.999C281.191 253.03 281.122 253.161 281.186 253.067C281.212 253.009 281.207 253.009 281.175 253.077C281.133 253.135 281.133 253.14 281.17 253.088C281.207 253.04 281.202 253.04 281.154 253.088L281.223 253.035C281.048 253.103 281.372 252.962 281.202 253.046C281.292 253.035 281.308 253.03 281.25 253.03C281.191 253.03 281.207 253.03 281.297 253.03L281.366 253.061C281.287 253.014 281.292 253.02 281.372 253.072C281.42 253.177 281.499 253.26 281.473 253.397C281.425 253.669 281.08 253.753 280.851 253.632C280.767 253.585 280.756 253.491 280.782 253.601C280.74 253.423 280.809 253.69 280.809 253.695C280.836 253.784 280.857 253.873 280.878 253.967L280.894 254.061C280.889 253.983 280.883 253.983 280.878 254.061L280.984 253.664L280.958 253.711L281.244 253.428L281.191 253.459L281.595 253.355C281.966 253.637 282.104 253.695 282.003 253.527C281.977 253.48 281.977 253.486 282.003 253.543C281.988 253.459 281.977 253.444 281.982 253.501C281.982 253.554 281.982 253.538 281.982 253.454V253.376C281.966 253.459 281.972 253.454 281.993 253.36L282.014 253.287C281.993 253.37 281.94 253.438 281.85 253.486L281.446 253.59H281.51C281.377 253.548 281.244 253.512 281.106 253.48C280.915 253.145 280.841 253.067 280.889 253.245C280.899 253.308 280.91 253.376 280.915 253.438C280.92 253.501 280.936 253.569 280.942 253.632C280.926 253.554 280.942 253.475 281 253.397L281.287 253.114L281.727 253.056L282.078 253.26L282.051 253.229L282.258 253.575L282.248 253.533L281.881 254.418L281.929 254.391L281.526 254.496L281.42 254.475L281.069 254.271L281.112 254.302C281.446 254.569 281.908 254.627 282.237 254.302C282.513 254.03 282.577 253.459 282.237 253.192C281.881 252.91 281.499 252.836 281.08 253.051C280.756 253.219 280.644 253.606 280.713 253.936C280.836 254.517 281.558 254.763 282.057 254.48C282.635 254.156 282.534 253.538 282.455 252.999C282.38 252.491 282.104 252.004 281.515 251.993C280.926 251.983 280.559 252.485 280.443 252.993C280.347 253.417 280.405 253.878 280.613 254.266C280.889 254.774 281.51 255.098 282.051 254.763C282.54 254.465 282.508 253.92 282.396 253.438C282.296 253.004 282.104 252.548 281.712 252.297C280.809 251.716 279.683 252.601 279.928 253.601C280.145 254.496 281.281 254.821 282.035 254.37C282.646 254.004 282.949 253.198 282.726 252.527C282.561 252.02 282.094 251.574 281.515 251.711C280.984 251.836 280.719 252.381 280.724 252.883C280.729 253.386 280.963 253.915 281.404 254.187C282.009 254.559 282.72 254.177 282.874 253.533C282.986 253.061 282.906 252.475 282.768 252.014C282.603 251.475 282.078 250.878 281.435 251.14C281.101 251.276 280.851 251.522 280.851 251.899C280.851 252.496 281.085 253.056 281.504 253.48C281.754 253.726 282.168 253.779 282.471 253.601C282.789 253.417 282.906 253.056 282.837 252.716C282.789 252.485 282.747 252.255 282.699 252.025L281.717 252.993C282.922 253.37 283.978 252.014 283.294 250.962C283.118 250.69 282.731 250.475 282.396 250.601C281.903 250.784 281.674 251.145 281.595 251.637C281.595 251.653 281.558 251.847 281.547 251.847C281.558 251.847 281.765 251.454 281.897 251.543C281.839 251.501 281.515 251.585 281.467 251.59C281.361 251.606 281.26 251.632 281.159 251.669C280.273 251.983 279.514 252.747 279.381 253.695C279.333 254.014 279.381 254.313 279.668 254.522C279.954 254.732 280.246 254.721 280.554 254.585C280.751 254.496 280.952 254.402 281.138 254.287C281.324 254.171 281.595 253.993 281.712 253.789C281.781 253.726 281.775 253.716 281.712 253.758C281.637 253.789 281.648 253.789 281.738 253.758C281.85 253.732 281.977 253.684 282.078 253.632C282.354 253.486 282.55 253.239 282.651 252.951C282.837 252.433 282.651 251.805 282.163 251.517C281.674 251.229 281 251.286 280.581 251.705C280.183 252.098 280.326 252.904 280.931 253.02C282.046 253.229 282.901 252.135 282.407 251.124C282.211 250.721 281.68 250.669 281.319 250.841C280.374 251.302 279.88 252.496 280.22 253.48C280.368 253.915 280.947 254.271 281.388 253.952C281.929 253.559 282.269 253.025 282.317 252.355C282.37 251.548 281.68 250.899 280.867 251.239C280.342 251.459 279.891 251.925 279.774 252.485C279.63 253.182 280.05 253.868 280.756 254.046C281.42 254.213 282.099 253.899 282.439 253.328C282.779 252.758 282.81 251.815 282.184 251.433C281.558 251.051 280.782 251.381 280.315 251.815C279.848 252.25 279.625 252.889 279.737 253.501C279.885 254.339 280.782 254.705 281.526 254.334C281.823 254.182 282.067 253.941 282.216 253.643C282.295 253.486 282.354 253.323 282.418 253.161C282.412 253.182 282.513 252.941 282.465 253.035C282.449 253.082 282.46 253.067 282.497 252.988C282.402 253.088 282.28 253.14 282.126 253.145L281.722 253.04L281.457 252.601C281.451 252.669 281.446 252.684 281.457 252.643C281.435 252.695 281.435 252.779 281.43 252.831C281.404 252.988 281.377 253.145 281.345 253.297C281.281 253.606 281.207 253.915 281.122 254.219C281.037 254.522 280.936 254.826 280.825 255.119C280.804 255.171 280.788 255.224 280.767 255.271C280.83 255.13 280.751 255.271 280.74 255.302C280.719 255.376 280.777 255.266 280.82 255.245C280.878 255.213 280.936 255.229 280.995 255.213C281.043 255.198 281.037 255.24 280.963 255.192C280.788 255.077 281.005 255.276 280.883 255.124C280.851 255.088 280.814 255.051 280.782 255.014C280.867 255.119 280.772 254.993 280.756 254.962C280.724 254.91 280.692 254.857 280.666 254.8C280.724 254.915 280.666 254.805 280.66 254.779C280.639 254.705 280.613 254.637 280.597 254.564C280.591 254.533 280.549 254.318 280.57 254.475C280.554 254.365 280.549 254.25 280.554 254.135C280.554 254.067 280.554 253.999 280.565 253.931C280.575 253.763 280.575 253.826 280.57 253.863C280.618 253.527 280.724 253.198 280.841 252.878C280.889 252.747 280.936 252.616 280.989 252.485C281.016 252.417 281.043 252.344 281.069 252.276C281.128 252.124 281.101 252.198 281.085 252.229C281.154 252.088 281.186 252.025 281.239 251.978C281.35 251.868 281.281 251.946 281.255 251.962C281.297 251.936 281.34 251.91 281.382 251.889C281.319 251.915 281.313 251.915 281.366 251.899C281.473 251.862 281.584 251.836 281.701 251.81C281.775 251.794 281.855 251.784 281.929 251.768C281.961 251.763 282.057 251.721 281.956 251.763C282.088 251.716 282.019 251.784 281.95 251.732L281.919 251.716C281.844 251.653 281.844 251.653 281.908 251.716C281.897 251.716 281.807 251.564 281.903 251.716C281.998 251.868 281.887 251.627 281.934 251.779C282.136 252.376 282.226 252.857 282.216 253.47C282.216 253.784 282.195 254.009 282.136 254.281C282.11 254.402 282.083 254.522 282.046 254.643C282.025 254.711 282.003 254.774 281.982 254.836C282.025 254.726 281.929 254.946 281.924 254.946C281.892 255.004 281.855 255.067 281.818 255.119C281.786 255.161 281.786 255.161 281.818 255.119C281.781 255.156 281.749 255.192 281.706 255.229C281.818 255.13 281.457 255.339 281.611 255.287C281.616 255.287 281.382 255.344 281.499 255.323C281.558 255.323 281.542 255.323 281.462 255.323C281.366 255.323 281.366 255.323 281.462 255.329L281.425 255.318C281.372 255.302 281.377 255.308 281.446 255.334C281.366 255.287 281.366 255.287 281.435 255.344L281.382 255.297L281.335 255.25C281.388 255.318 281.388 255.318 281.335 255.245L281.303 255.182C281.335 255.26 281.335 255.266 281.303 255.182C281.292 255.135 281.276 255.093 281.271 255.046C281.308 255.213 281.276 255.025 281.271 254.978C281.271 254.789 281.239 255.02 281.292 254.836C281.319 254.753 281.34 254.664 281.372 254.585C281.34 254.664 281.398 254.527 281.404 254.527C281.462 254.423 281.52 254.318 281.584 254.219H280.209C280.687 254.978 281.717 255.245 282.518 254.821C283.06 254.533 283.389 253.92 283.097 253.344C282.874 252.904 282.396 252.658 281.919 252.595C280.92 252.465 280.151 253.208 279.853 254.082C279.694 254.559 279.668 255.082 279.869 255.548C280.082 256.046 280.586 256.397 281.138 256.391C281.69 256.386 282.099 256.035 282.402 255.627C282.704 255.219 282.97 254.695 282.826 254.182C282.672 253.611 282.078 253.245 281.489 253.37C280.867 253.506 280.687 254.182 280.666 254.726C280.644 255.308 280.984 255.889 281.573 256.056C282.12 256.213 282.672 255.915 282.906 255.423C283.108 254.993 283.171 254.475 283.124 254.004C283.076 253.533 282.959 252.894 282.598 252.533C282.099 252.035 281.361 252.203 280.958 252.711C280.66 253.082 280.475 253.59 280.453 254.061C280.427 254.575 280.697 255.093 281.143 255.365C281.642 255.669 282.306 255.554 282.704 255.145C283.49 254.329 283.007 252.674 281.796 252.616C281.329 252.595 280.841 252.878 280.506 253.171C280.193 253.449 279.97 253.805 279.827 254.187C279.519 254.993 279.678 256.569 280.894 256.407C281.441 256.334 281.818 255.873 282.12 255.454C282.37 255.109 282.561 254.705 282.678 254.297C282.795 253.889 282.885 253.417 282.757 253.004C282.566 252.365 281.865 252.124 281.266 252.365C280.751 252.569 280.326 252.967 280.252 253.533C280.183 254.051 280.4 254.606 280.894 254.852C281.42 255.114 282.094 254.957 282.423 254.465C282.773 253.941 282.593 253.224 281.998 252.972C281.404 252.721 280.772 253.067 280.559 253.632C280.374 254.13 280.549 254.915 281.016 255.208C281.627 255.59 282.306 255.171 282.465 254.533C282.593 254.025 282.518 253.391 282.115 253.02C281.69 252.627 280.952 252.575 280.538 253.02C280.108 253.48 280.193 254.198 280.687 254.58C281.218 254.993 281.86 254.815 282.338 254.433C282.816 254.051 282.518 253.266 281.988 253.119C281.494 252.983 280.947 253.046 280.517 253.334C280.023 253.664 279.779 254.26 280.087 254.805C280.374 255.313 281.037 255.522 281.558 255.224C282.104 254.91 282.195 254.292 281.961 253.758C281.791 253.37 281.212 253.281 280.873 253.475C280.464 253.711 280.416 254.161 280.586 254.548L280.591 254.559Z" fill="#942846"/>
<path d="M270.988 223.976C270.908 225.626 270.993 227.275 271.115 228.919C271.174 229.715 271.237 230.505 271.285 231.301C271.322 231.914 271.359 233.118 270.425 233.019C269.915 232.966 269.921 233.752 270.425 233.804C271.136 233.877 271.731 233.369 271.959 232.736C272.262 231.898 272.055 230.882 271.991 230.018C271.842 228.008 271.688 225.992 271.784 223.976C271.811 223.474 271.014 223.474 270.988 223.976Z" fill="black"/>
<path d="M270.266 229.909C270.897 229.626 271.322 229.066 271.917 228.736C272.548 228.38 273.292 228.296 274.003 228.286C275.245 228.26 277.093 228.637 277.741 227.239C277.953 226.783 277.268 226.38 277.05 226.841C276.748 227.495 275.994 227.542 275.352 227.527C274.661 227.511 273.971 227.469 273.281 227.542C272.644 227.61 272.017 227.762 271.46 228.087C270.903 228.412 270.467 228.956 269.857 229.234C269.39 229.443 269.793 230.118 270.26 229.914L270.266 229.909Z" fill="black"/>
<path d="M269.49 226.757C271.131 226.867 272.777 226.757 274.391 226.438C275.553 226.202 277.364 225.935 277.916 224.72C278.123 224.265 277.438 223.862 277.226 224.322C276.997 224.83 276.493 225.05 275.983 225.218C275.293 225.443 274.587 225.61 273.876 225.741C272.432 226.008 270.956 226.071 269.49 225.977C268.981 225.94 268.981 226.726 269.49 226.762V226.757Z" fill="black"/>
<path d="M274.327 223.233C274.369 226.485 274.412 229.731 274.454 232.982C274.46 233.485 275.256 233.49 275.251 232.982C275.208 229.731 275.166 226.485 275.123 223.233C275.118 222.731 274.322 222.725 274.327 223.233Z" fill="black"/>
<path d="M273.053 232.249C273.451 231.061 274.056 229.935 274.853 228.961C274.9 228.903 274.948 228.846 274.996 228.793C275.017 228.767 275.123 228.684 275.129 228.647C275.192 228.61 275.145 228.605 274.991 228.636C275.007 228.652 275.017 228.673 275.028 228.689C275.06 228.767 275.134 228.846 275.182 228.914C275.373 229.197 275.548 229.479 275.718 229.773C276.052 230.349 276.36 230.945 276.62 231.558C276.705 231.752 276.886 231.893 277.109 231.83C277.295 231.778 277.47 231.542 277.385 231.349C277.066 230.6 276.705 229.872 276.286 229.176C276.074 228.825 275.856 228.448 275.591 228.129C275.325 227.809 274.874 227.799 274.561 228.087C274.295 228.333 274.077 228.657 273.865 228.951C273.632 229.27 273.419 229.6 273.223 229.94C272.84 230.605 272.527 231.312 272.283 232.045C272.124 232.527 272.894 232.731 273.053 232.254V232.249Z" fill="black"/>
<path d="M279.747 224.296C282.158 224.479 284.807 224.615 286.856 223.118C287.265 222.82 286.867 222.139 286.453 222.437C284.515 223.851 282.025 223.683 279.747 223.511C279.238 223.474 279.238 224.259 279.747 224.296Z" fill="black"/>
<path d="M281.292 222.578C281.117 223.605 281.117 224.851 282.136 225.458C282.561 225.709 283.087 225.783 283.543 225.584C284.058 225.359 284.276 224.835 284.478 224.353C284.743 223.72 284.945 223.076 284.839 222.385C284.807 222.175 284.541 222.06 284.35 222.112C284.122 222.175 284.037 222.385 284.074 222.594C284.138 223.008 283.989 223.458 283.83 223.861C283.74 224.092 283.681 224.233 283.58 224.437C283.538 224.521 283.495 224.599 283.442 224.673C283.442 224.673 283.4 224.73 283.432 224.694C283.421 224.709 283.405 224.725 283.389 224.741C283.373 224.757 283.363 224.772 283.347 224.783C283.347 224.783 283.267 224.851 283.294 224.83C283.304 224.819 283.23 224.861 283.209 224.877C283.15 224.914 283.241 224.877 283.177 224.887C283.14 224.898 283.097 224.908 283.06 224.914C283.002 224.924 283.124 224.914 283.06 224.914C283.039 224.914 283.012 224.914 282.991 224.914C282.949 224.914 282.911 224.914 282.869 224.908C282.949 224.919 282.842 224.898 282.816 224.893C282.773 224.882 282.736 224.866 282.694 224.856C282.694 224.856 282.635 224.835 282.673 224.851C282.71 224.866 282.641 224.835 282.635 224.835C282.598 224.814 282.561 224.793 282.524 224.772C282.503 224.762 282.481 224.746 282.46 224.73C282.46 224.73 282.407 224.694 282.439 224.72C282.471 224.746 282.423 224.704 282.423 224.704C282.407 224.688 282.386 224.673 282.37 224.657C282.333 224.626 282.301 224.589 282.269 224.552C282.221 224.5 282.28 224.573 282.243 224.516C282.221 224.479 282.195 224.442 282.174 224.406C282.126 224.311 282.099 224.259 282.067 224.144C281.945 223.72 281.988 223.228 282.067 222.798C282.104 222.589 282.009 222.374 281.791 222.317C281.6 222.264 281.34 222.379 281.303 222.589L281.292 222.578Z" fill="black"/>
<path d="M280.045 229.149C280.416 228.484 280.857 227.866 281.335 227.275C281.584 226.966 281.844 226.662 282.099 226.359C282.306 226.118 282.529 225.777 282.821 225.631C283.161 225.463 283.538 225.715 283.835 225.872C284.133 226.029 284.425 226.191 284.706 226.364C285.285 226.725 285.8 227.154 286.129 227.751C286.373 228.196 287.063 227.798 286.819 227.353C286.437 226.657 285.826 226.139 285.152 225.715C284.796 225.489 284.419 225.28 284.042 225.091C283.665 224.903 283.246 224.73 282.805 224.814C282.402 224.887 282.094 225.16 281.834 225.453C281.531 225.788 281.244 226.139 280.952 226.484C280.363 227.201 279.806 227.94 279.349 228.746C279.1 229.191 279.79 229.584 280.039 229.144L280.045 229.149Z" fill="black"/>
<path d="M280.411 228.427C281.419 228.532 282.439 228.48 283.437 228.291C284.217 228.145 285.051 227.872 285.465 227.15C285.72 226.71 285.03 226.312 284.775 226.752C284.44 227.333 283.649 227.459 283.044 227.563C282.173 227.715 281.281 227.726 280.405 227.642C280.193 227.621 280.007 227.836 280.007 228.035C280.007 228.265 280.193 228.406 280.405 228.427H280.411Z" fill="black"/>
<path d="M282.423 225.086C282.492 227.437 282.497 229.793 282.423 232.144C282.407 232.652 283.204 232.647 283.219 232.144C283.288 229.793 283.283 227.437 283.219 225.086C283.204 224.583 282.407 224.578 282.423 225.086Z" fill="black"/>
<path d="M280.772 231.966C280.883 231.385 281.085 230.919 281.436 230.437C281.738 230.018 282.179 229.641 282.662 229.38C282.853 229.28 282.912 229.024 282.805 228.84C282.699 228.657 282.45 228.599 282.259 228.699C281.101 229.322 280.241 230.474 280.002 231.751C279.965 231.961 280.061 232.176 280.278 232.233C280.475 232.285 280.73 232.17 280.767 231.961L280.772 231.966Z" fill="black"/>
<path d="M283.135 229.317C283.23 229.327 283.081 229.306 283.166 229.317C283.198 229.322 283.235 229.327 283.267 229.338C283.336 229.354 283.405 229.369 283.469 229.39C283.533 229.411 283.602 229.432 283.665 229.458C283.676 229.458 283.777 229.505 283.697 229.469C283.729 229.484 283.761 229.495 283.793 229.511C283.92 229.568 284.042 229.641 284.154 229.715C284.18 229.736 284.212 229.751 284.239 229.772C284.244 229.772 284.334 229.846 284.271 229.793C284.324 229.835 284.377 229.882 284.43 229.929C284.531 230.024 284.626 230.123 284.717 230.228C284.77 230.291 284.685 230.186 284.738 230.259C284.759 230.285 284.78 230.317 284.796 230.343C284.833 230.401 284.876 230.458 284.908 230.516C284.94 230.573 284.977 230.636 285.009 230.699C285.019 230.725 285.035 230.751 285.046 230.778C285.051 230.793 285.062 230.809 285.067 230.825C285.051 230.788 285.051 230.783 285.062 230.809C285.109 230.945 285.157 231.081 285.189 231.223C285.232 231.422 285.481 231.558 285.678 231.495C285.89 231.427 286.001 231.228 285.954 231.013C285.662 229.683 284.472 228.689 283.124 228.526C282.917 228.5 282.715 228.725 282.726 228.919C282.736 229.155 282.901 229.285 283.124 229.312L283.135 229.317Z" fill="black"/>
<path d="M143.408 102.861C143.408 102.861 140.509 107.94 216.958 107.94C293.407 107.94 291.884 102.861 291.884 102.861C291.884 102.861 289.441 93.8558 216.3 93.0442C143.158 92.2327 143.408 102.861 143.408 102.861Z" fill="#A6A6B2"/>
<path d="M190.334 301.095C189.198 298.43 177.136 299.048 178.521 292.105C179.907 285.168 171.827 285.953 171.954 284.116C172.082 282.278 167.58 278.1 157.774 272.633C147.968 267.162 143.005 258.722 143.005 258.722C143.005 258.722 142.957 258.528 142.829 258.203C142.59 257.607 142.075 256.57 141.061 255.491C140.801 255.209 140.504 254.926 140.164 254.648C139.75 254.303 139.283 253.962 138.747 253.648C138.094 253.261 137.382 252.968 136.644 252.716C135.668 252.386 134.643 252.135 133.645 251.868C131.33 251.245 129.18 250.522 128.177 248.449C128.15 248.386 128.118 248.329 128.081 248.271C127.874 247.873 127.614 247.517 127.301 247.208C126.17 246.067 124.349 245.444 121.551 245.014C120.733 244.894 119.836 244.784 118.849 244.69C117.389 244.543 115.738 244.417 113.858 244.287C113.428 244.255 112.988 244.224 112.531 244.192C111.331 244.114 110.046 244.025 108.671 243.931C108.48 243.915 108.284 243.904 108.088 243.889C107.774 243.868 107.472 243.852 107.18 243.836C106.59 243.805 106.033 243.794 105.513 243.8C105.003 243.805 104.525 243.826 104.069 243.857C102.078 243.999 100.586 244.397 99.3649 244.978C98.9879 245.156 98.6375 245.355 98.3031 245.564C95.8503 247.114 94.4382 249.454 91.3537 251.612C91.0351 251.831 90.7007 252.051 90.345 252.266C90.122 252.402 89.8937 252.538 89.6548 252.669C89.0443 253.004 88.3806 253.334 87.648 253.648C87.5153 253.706 87.3826 253.763 87.2498 253.826C85.9226 254.428 84.8927 255.072 84.0857 255.743C83.7512 256.02 83.4592 256.298 83.1991 256.58C81.6489 258.261 81.2719 260.036 80.9534 261.622H80.9481C80.7039 262.827 80.4862 263.921 79.8226 264.795L79.7961 264.822C79.7536 264.884 79.7005 264.947 79.6474 265.005C79.2492 265.455 78.713 265.832 77.9592 266.13C77.2212 266.418 76.616 266.774 76.1223 267.172C76.1169 267.178 76.1116 267.178 76.1063 267.183C76.101 267.188 76.0957 267.193 76.0957 267.199C75.9789 267.288 75.8674 267.382 75.7666 267.487C75.448 267.785 75.1826 268.104 74.9596 268.434C74.9437 268.455 74.9331 268.481 74.9171 268.502C74.5349 269.094 74.3013 269.712 74.1632 270.309C73.6536 274.56 68.3022 279.67 64.5859 283.335C60.8696 287 60.8696 286.477 57.6843 289.095C54.4989 291.713 54.4989 295.378 50.2517 298.519C46.0045 301.661 46.5354 300.614 43.3501 303.755C40.1647 306.897 59.8078 306.373 58.2152 307.42C56.6225 308.467 64.055 312.656 68.8331 312.132C73.6111 311.609 77.3274 316.321 81.5746 316.321C85.8217 316.321 83.1673 315.274 83.1673 321.557C83.1673 327.84 119.268 317.892 123.515 316.321C127.762 314.75 133.602 316.845 137.85 317.368C142.097 317.892 145.282 317.368 150.06 314.227C154.838 311.085 154.838 311.609 160.227 309.682C165.615 307.755 185.099 310.562 190.334 308.483C195.568 306.404 191.47 303.755 190.334 301.095Z" fill="#7BAF33"/>
<path d="M104.998 250.255C104.366 251.318 102.741 251.946 101.361 251.664C99.9806 251.381 99.3754 250.287 100.007 249.224C100.639 248.161 102.263 247.533 103.644 247.815C105.024 248.098 105.629 249.192 104.998 250.255Z" fill="#95BF5C"/>
<path d="M118.626 249.559C118.222 250.234 116.784 250.554 115.403 250.271C114.023 249.988 113.232 249.208 113.635 248.527C114.039 247.847 115.478 247.533 116.858 247.815C118.238 248.098 119.029 248.878 118.626 249.559Z" fill="#95BF5C"/>
<path d="M111.899 255.308C111.071 255.832 109.532 255.785 108.464 255.198C107.397 254.612 107.201 253.711 108.029 253.183C108.857 252.654 110.397 252.706 111.464 253.293C112.531 253.879 112.728 254.78 111.899 255.308Z" fill="#95BF5C"/>
<path d="M92.0493 256.13C92.6068 256.769 92.0069 257.607 90.7115 258C89.4161 258.392 87.9084 258.199 87.3509 257.56C86.7935 256.921 87.3934 256.083 88.6888 255.691C89.9842 255.298 91.4919 255.492 92.0493 256.13Z" fill="#95BF5C"/>
<path d="M95.5796 272.639C97.2832 272.639 98.6641 271.474 98.6641 270.037C98.6641 268.6 97.2832 267.435 95.5796 267.435C93.8761 267.435 92.4951 268.6 92.4951 270.037C92.4951 271.474 93.8761 272.639 95.5796 272.639Z" fill="#95BF5C"/>
<path d="M126.642 322.086C127.909 322.086 128.936 321.221 128.936 320.154C128.936 319.087 127.909 318.222 126.642 318.222C125.375 318.222 124.349 319.087 124.349 320.154C124.349 321.221 125.375 322.086 126.642 322.086Z" fill="#7BAF33"/>
<path d="M135.514 323.331C136.864 322.409 137.485 320.987 136.901 320.155C136.316 319.323 134.749 319.396 133.399 320.318C132.049 321.24 131.428 322.661 132.012 323.493C132.596 324.326 134.164 324.253 135.514 323.331Z" fill="#7BAF33"/>
<path d="M128.766 258.732C130.033 258.732 131.059 257.867 131.059 256.8C131.059 255.733 130.033 254.868 128.766 254.868C127.499 254.868 126.472 255.733 126.472 256.8C126.472 257.867 127.499 258.732 128.766 258.732Z" fill="#95BF5C"/>
<path d="M135.513 266.784C136.863 265.862 137.484 264.44 136.899 263.608C136.315 262.776 134.747 262.848 133.397 263.77C132.047 264.692 131.427 266.114 132.011 266.946C132.595 267.778 134.163 267.705 135.513 266.784Z" fill="#95BF5C"/>
</g>
<defs>
<clipPath id="clip0_145_5484">
<rect width="417" height="417" fill="white"/>
</clipPath>
</defs>
</svg>
