<svg width="417" height="417" viewBox="0 0 417 417" fill="none" xmlns="http://www.w3.org/2000/svg">
<g clip-path="url(#clip0_145_7604)">
<path d="M323.548 215.727C323.554 217.598 322.602 219.333 320.936 220.49C311.251 227.19 284.292 235.682 210.839 238.063C180.219 239.057 107.056 239.259 89.0908 219.749C87.9687 218.53 87.47 217.025 87.5946 215.559C87.691 214.379 88.184 213.234 89.0794 212.279C98.589 202.159 136.009 196.262 210.414 193.161C241.215 191.875 267.432 193.616 288.327 198.323C305.668 202.232 315.609 207.359 320.896 210.976C321.423 211.335 321.882 211.757 322.256 212.223C323.084 213.223 323.543 214.441 323.548 215.727Z" fill="#C9BAAA"/>
<path d="M315.047 223.45L295.212 243.668L201.703 250.408L103.565 233.447L94.4348 231.869L95.7043 224.837C95.7043 224.837 92.848 223.764 95.7043 220.237C98.5605 216.71 109.43 210.903 125.814 208.752C142.198 206.601 185.835 202.67 203.404 202.67C217.736 202.67 257.378 205.517 280.863 209.218H280.88C286.173 210.055 290.65 210.931 293.824 211.83C311.08 216.71 313.914 220.08 314.481 221.765L315.047 223.45Z" fill="#95BF5C"/>
<path d="M149.864 221.736C149.769 221.619 149.73 221.574 149.718 221.569C149.808 221.675 149.881 221.764 149.864 221.736Z" fill="#F5F3EA"/>
<path d="M152.382 223.629C152.451 223.669 152.513 223.703 152.559 223.72C152.496 223.686 152.439 223.658 152.382 223.629Z" fill="#F5F3EA"/>
<path d="M165.927 215.902L165.405 215.919C165.371 215.936 165.672 215.913 165.927 215.902Z" fill="#F5F3EA"/>
<path d="M174.535 215.548H174.692L174.822 215.525L174.535 215.548Z" fill="#F5F3EA"/>
<path d="M180.888 215.542C180.972 215.525 181.079 215.52 181.214 215.514C181.214 215.509 181.197 215.497 181.147 215.486C181 215.486 180.944 215.525 180.888 215.542Z" fill="#F5F3EA"/>
<path d="M191.582 216.351L191.767 216.373C191.722 216.368 191.638 216.357 191.582 216.351Z" fill="#F5F3EA"/>
<path d="M169.802 215.672C169.802 215.672 169.769 215.661 169.74 215.661C169.74 215.661 169.763 215.672 169.802 215.672Z" fill="#F5F3EA"/>
<path d="M199.425 217.834C199.442 217.806 199.459 217.772 199.482 217.744C199.482 217.733 199.482 217.716 199.482 217.71C199.465 217.75 199.442 217.789 199.431 217.834H199.425Z" fill="#F5F3EA"/>
<path d="M158.27 225.915C158.27 225.915 158.253 225.915 158.241 225.91C158.083 225.87 158.174 225.893 158.27 225.915Z" fill="#F5F3EA"/>
<path d="M213.894 232.021C213.265 231.936 214.925 232.054 213.979 231.942C214.064 231.964 213.106 231.942 213.894 232.021Z" fill="#F5F3EA"/>
<path d="M185.371 215.565L186.408 215.649C186.226 215.615 185.994 215.576 186.464 215.615C185.161 215.469 186.731 215.666 185.371 215.565Z" fill="#F5F3EA"/>
<path d="M182.174 215.48C181.823 215.492 181.732 215.497 182.152 215.509C182.707 215.509 182.146 215.486 182.174 215.48Z" fill="#F5F3EA"/>
<path d="M158.926 216.48L158.977 216.436C158.555 216.491 158.977 216.452 158.926 216.48Z" fill="#F5F3EA"/>
<path d="M199.873 230.908C199.493 230.88 199.119 230.835 198.927 230.824C199.108 230.857 199.578 230.908 199.873 230.908Z" fill="#F5F3EA"/>
<path d="M236.982 227.106L236.693 227.174L236.37 227.264L236.982 227.106Z" fill="#F5F3EA"/>
<path d="M148.982 227.55C149.062 227.572 149.13 227.595 149.113 227.584C149.027 227.555 148.987 227.55 148.982 227.55Z" fill="#F5F3EA"/>
<path d="M145.536 219.973C145.536 219.973 145.682 219.9 145.828 219.839C145.727 219.878 145.631 219.928 145.536 219.973Z" fill="#F5F3EA"/>
<path d="M150.812 217.986L150.909 217.958C150.909 217.958 150.955 217.929 150.983 217.918L150.812 217.986Z" fill="#F5F3EA"/>
<path d="M189.349 230.538C188.958 230.493 189.989 230.515 189.4 230.454C189.457 230.47 188.862 230.499 189.349 230.538Z" fill="#F5F3EA"/>
<path d="M163.399 229.387C163.399 229.387 163.421 229.398 163.483 229.409C163.466 229.403 163.433 229.392 163.399 229.387Z" fill="#F5F3EA"/>
<path d="M166.839 229.549C166.923 229.555 166.951 229.566 167.069 229.566C167.058 229.566 167.047 229.566 167.036 229.56C166.991 229.56 166.934 229.56 166.839 229.549Z" fill="#F5F3EA"/>
<path d="M170.326 229.735C170.326 229.735 170.28 229.729 170.263 229.724C170.229 229.724 170.189 229.724 170.149 229.724L170.326 229.741V229.735Z" fill="#F5F3EA"/>
<path d="M145.944 219.788C145.944 219.788 145.971 219.777 145.988 219.771C145.977 219.771 145.971 219.771 145.966 219.777L145.944 219.788Z" fill="#F5F3EA"/>
<path d="M143.235 222.99L143.195 222.961C143.241 223.239 143.207 222.961 143.235 222.99Z" fill="#F5F3EA"/>
<path d="M145.887 226.236L146.284 226.449L145.989 226.292L145.887 226.236Z" fill="#F5F3EA"/>
<path d="M169.699 229.74L169.62 229.69C169.44 229.69 169.401 229.735 169.699 229.74Z" fill="#F5F3EA"/>
<path d="M180.678 230.189C180.446 230.178 180.213 230.15 180.094 230.15C180.208 230.178 180.497 230.2 180.678 230.189Z" fill="#F5F3EA"/>
<path d="M255.292 222.679C255.337 222.618 255.377 222.574 255.36 222.585C255.309 222.646 255.292 222.674 255.292 222.679Z" fill="#F5F3EA"/>
<path d="M245.635 225.87L245.905 225.837C245.905 225.837 245.765 225.854 245.635 225.87Z" fill="#F5F3EA"/>
<path d="M241.114 226.488H241.029C241.029 226.488 240.983 226.511 240.96 226.522L241.114 226.488Z" fill="#F5F3EA"/>
<path d="M255.887 217.817C255.887 217.817 255.887 217.823 255.898 217.828C255.959 217.888 255.926 217.856 255.887 217.817Z" fill="#F5F3EA"/>
<path d="M227.297 211.678C227.631 211.712 226.752 211.729 227.257 211.762C227.212 211.746 227.716 211.695 227.297 211.678Z" fill="#F5F3EA"/>
<path d="M249.393 214.323C249.393 214.323 249.376 214.307 249.325 214.284C249.336 214.295 249.365 214.312 249.393 214.323Z" fill="#F5F3EA"/>
<path d="M246.333 213.521C246.333 213.521 246.349 213.526 246.361 213.532C246.4 213.532 246.445 213.543 246.524 213.571C246.451 213.548 246.428 213.537 246.327 213.521H246.333Z" fill="#F5F3EA"/>
<path d="M243.59 212.948C243.59 212.948 243.624 212.959 243.641 212.965C243.67 212.965 243.704 212.976 243.738 212.976L243.59 212.942V212.948Z" fill="#F5F3EA"/>
<path d="M256.494 219.002C256.465 218.839 256.431 218.71 256.38 218.575C256.392 218.631 256.397 218.688 256.397 218.738C256.369 218.581 256.295 218.446 256.312 218.446C256.216 218.306 256.329 218.575 256.137 218.311C256.052 218.12 255.751 217.823 255.734 217.75C256.142 218.244 255.734 217.654 256.08 218.087C256.012 218.002 255.933 217.896 255.831 217.783C255.819 217.761 255.853 217.795 255.882 217.823C255.491 217.334 255.655 217.643 255.19 217.216C255.27 217.25 255.105 217.087 255.026 217.025C255.224 217.188 255.094 217.132 254.901 217.003C254.59 216.744 254.539 216.756 254.369 216.632L254.561 216.778C254.476 216.756 254.323 216.626 254.08 216.492C254.068 216.463 254.301 216.615 254.221 216.553C253.932 216.424 253.649 216.138 253.252 215.964C253.082 215.851 253.252 215.913 253.105 215.818C252.657 215.621 252.646 215.554 252.175 215.357C252.294 215.453 252.323 215.453 251.983 215.335C252.243 215.441 252.493 215.559 252.753 215.672L252.243 215.486C252.47 215.593 252.736 215.7 252.867 215.767C252.623 215.683 252.651 215.683 252.748 215.767C252.453 215.576 252.124 215.486 251.767 215.312L251.813 215.239C251.274 214.964 250.81 214.874 250.079 214.588L250.311 214.689C250.203 214.683 249.858 214.526 249.608 214.464C249.642 214.447 249.495 214.385 249.393 214.341C249.398 214.363 248.849 214.166 248.764 214.195C248.656 214.144 248.548 214.105 248.441 214.06C247.834 213.88 247.727 213.942 247.149 213.779C247.336 213.796 247.069 213.706 247.466 213.79C247.273 213.734 247.098 213.689 247.086 213.706C246.973 213.661 246.531 213.61 246.355 213.543C246.27 213.537 246.236 213.554 246.015 213.504C245.992 213.493 246.015 213.493 246.015 213.493C246.015 213.504 245.664 213.431 245.851 213.504C245.261 213.285 244.151 213.15 243.629 212.981C243.193 212.914 242.671 212.83 242.275 212.768C242.303 212.768 242.275 212.757 242.354 212.768C241.816 212.65 242.008 212.79 241.391 212.673C241.079 212.583 241.725 212.695 241.527 212.65C241.453 212.549 240.773 212.555 240.365 212.442L240.467 212.454C240.15 212.375 239.679 212.381 239.158 212.319C239.158 212.319 239.186 212.319 239.158 212.307C238.795 212.319 238.115 212.246 237.605 212.218C237.764 212.195 237.837 212.218 237.747 212.173C237.52 212.156 237.809 212.234 237.356 212.206C237.208 212.173 236.885 212.128 236.846 212.088L237.271 212.122C237.055 212.055 236.715 212.077 236.494 212.049L236.523 212.032C235.865 211.982 235.854 212.038 235.151 211.987L235.225 212.01C234.839 212.038 234.902 211.959 234.516 211.976L234.403 211.914C234.148 211.914 233.502 211.914 233.054 211.914C233.315 211.886 233.848 211.886 234.182 211.881C233.933 211.864 233.326 211.847 233.19 211.864C233.292 211.864 233.423 211.853 233.519 211.864C233.207 211.892 232.799 211.898 232.301 211.875C232.391 211.763 230.991 211.813 230.629 211.718C229.739 211.746 228.866 211.673 227.829 211.695C228.197 211.774 227.529 211.695 227.591 211.785C227.359 211.791 227.262 211.791 227.24 211.785H227.285C227.285 211.785 227.251 211.785 227.234 211.785L226.503 211.751C226.327 211.729 226.73 211.729 226.707 211.707C226.18 211.707 226.486 211.673 226.135 211.662C226.208 211.69 225.953 211.707 225.653 211.707L226.078 211.735C225.341 211.796 225.438 211.684 224.695 211.751L224.928 211.718C224.548 211.746 223.516 211.774 223.148 211.864C223.08 211.858 222.989 211.841 223.159 211.824C222.264 211.864 221.187 212.015 220.473 212.049H220.422L220.473 212.032L220.224 212.066L219.107 212.117L219.408 212.167C216.466 212.206 213.378 212.51 210.51 212.925C209.683 213.066 209.598 213.116 209.099 213.234H208.912C208.629 213.29 208.351 213.391 208.068 213.47C207.467 213.639 206.934 213.723 206.373 213.88C205.812 214.02 205.206 214.183 204.48 214.498L204.679 214.453C204.135 214.616 203.029 215.149 203.103 215.082C203.052 215.116 202.944 215.177 202.74 215.267L202.718 215.256C202.315 215.486 201.902 215.7 201.522 215.964C201.057 216.239 201.086 216.205 201.057 216.2C201.035 216.2 200.944 216.211 200.321 216.705C200.094 216.896 199.793 217.194 199.601 217.452C199.402 217.699 199.306 217.912 199.374 217.817C199.504 217.609 199.765 217.351 199.793 217.351C199.68 217.486 199.561 217.62 199.465 217.766C199.465 217.772 199.465 217.783 199.465 217.789C199.436 217.834 199.419 217.856 199.419 217.856C199.419 217.856 196.569 217.261 193.225 216.688H193.288L193.112 216.671C192.84 216.626 192.568 216.581 192.296 216.531C192.324 216.531 192.398 216.531 192.556 216.553C191.978 216.424 192.035 216.492 191.536 216.374C191.48 216.362 191.508 216.362 191.559 216.368L190.987 216.295C191.1 216.295 190.896 216.239 191.247 216.306C190.227 216.115 189.587 216.098 189.202 216.003H189.287C188.227 215.879 188.657 215.952 188.51 215.964C188.278 215.936 188.051 215.907 187.824 215.879L187.354 215.75L187.207 215.778C187.059 215.761 186.765 215.728 186.821 215.717C186.266 215.688 186.912 215.745 186.589 215.739C186.238 215.677 185.739 215.66 185.319 215.627C184.894 215.615 184.543 215.604 184.458 215.565C184.203 215.593 185.144 215.604 184.379 215.61C184.163 215.537 183.495 215.621 182.843 215.587C183.041 215.548 183.665 215.571 183.007 215.537C182.611 215.599 181.732 215.52 181.182 215.531C181.154 215.582 179.981 215.554 179.057 215.571C179.114 215.554 177.317 215.554 176.456 215.542L176.479 215.531C176.314 215.587 175.425 215.587 174.779 215.61C174.801 215.576 174.92 215.565 175.272 215.542L174.665 215.554C174.523 215.571 174.331 215.587 173.94 215.599L174.093 215.559C173.282 215.576 172.466 215.638 171.424 215.644C171.384 215.672 171.781 215.694 171.696 215.728C171.509 215.728 171.322 215.739 171.134 215.745C171.151 215.733 171.214 215.717 171.361 215.711C171.265 215.711 171.027 215.739 170.834 215.733L171.271 215.688C170.794 215.688 171.021 215.722 170.647 215.733C170.653 215.705 170.364 215.722 170.42 215.7C170.517 215.694 170.749 215.7 170.896 215.683C170.471 215.688 169.95 215.694 169.78 215.683C169.82 215.7 169.78 215.722 169.468 215.733C168.658 215.767 169.191 215.711 168.72 215.717C168.528 215.745 168.006 215.745 167.995 215.79C167.757 215.801 167.712 215.784 167.621 215.778C167.201 215.812 165.666 215.891 166.142 215.907H166.249C166.249 215.907 166.204 215.907 166.181 215.907C164.816 216.025 163.336 216.065 161.976 216.2V216.188C161.166 216.273 160.174 216.368 159.602 216.463C159.364 216.492 159.035 216.503 159.137 216.475C158.519 216.559 158.451 216.581 157.562 216.683C158.179 216.57 157.346 216.688 158.196 216.576C157.392 216.671 157.21 216.677 156.36 216.851C156.632 216.772 155.827 216.896 155.425 216.98C155.408 216.98 155.391 216.98 155.397 216.98C155.181 217.031 155.13 217.042 155.385 217.014C155.601 216.975 155.538 216.975 155.47 216.98L155.935 216.918C155.64 216.975 155.374 217.025 155.113 217.076C155.006 217.087 154.904 217.104 154.813 217.121C154.813 217.121 154.802 217.132 154.79 217.137C154.779 217.137 154.768 217.137 154.756 217.143L154.779 217.132C154.779 217.132 154.796 217.126 154.813 217.121L154.96 217.053C154.326 217.16 153.753 217.3 153.22 217.458C152.863 217.525 152.297 217.643 151.962 217.71L151.974 217.699C151.889 217.772 151.35 217.896 150.971 218.008C150.976 217.974 151.044 217.941 151.248 217.879L150.886 217.974C150.806 218.014 150.693 218.053 150.461 218.126L150.54 218.064C150.058 218.199 149.588 218.384 148.964 218.558C148.947 218.586 149.185 218.553 149.146 218.592C149.038 218.626 148.93 218.665 148.823 218.699C148.828 218.682 148.862 218.659 148.947 218.631C148.891 218.654 148.755 218.71 148.641 218.738L148.891 218.62C148.607 218.699 148.755 218.693 148.534 218.766C148.534 218.738 148.364 218.805 148.386 218.772C148.443 218.749 148.585 218.716 148.664 218.676C148.409 218.749 148.109 218.85 148.001 218.867C148.029 218.873 148.012 218.901 147.831 218.974C147.366 219.154 147.661 219.002 147.383 219.097C147.276 219.159 146.975 219.26 146.981 219.3C146.845 219.356 146.817 219.35 146.76 219.361C146.528 219.474 145.666 219.878 145.949 219.788L146.012 219.76C146.012 219.76 145.989 219.771 145.972 219.783C145.235 220.198 144.397 220.597 143.807 221.215L143.796 221.204C143.422 221.563 143.201 222.198 143.246 222.563C143.224 222.714 143.235 222.917 143.207 222.855C143.275 223.242 143.286 223.282 143.49 223.804C143.411 223.669 143.399 223.663 143.399 223.675C143.399 223.652 143.377 223.596 143.32 223.439C143.343 223.534 143.371 223.607 143.399 223.675C143.399 223.68 143.399 223.692 143.399 223.675C143.445 223.787 143.49 223.877 143.535 223.961C143.603 224.107 143.7 224.242 143.881 224.45C143.739 224.326 144.068 224.787 144.261 224.938L144.034 224.663C144.227 224.854 144.374 225.034 144.555 225.197C144.51 225.18 144.465 225.163 144.425 225.146C145.15 225.904 145.972 226.18 146.607 226.629C146.862 226.73 146.125 226.354 146.358 226.427C146.754 226.657 147.196 226.915 147.321 226.988C147.91 227.252 147.905 227.162 148.528 227.409C148.454 227.365 148.392 227.297 148.874 227.443C149.316 227.6 149.401 227.696 149.112 227.612C149.004 227.578 148.953 227.556 148.959 227.55C148.811 227.505 148.619 227.449 148.794 227.527H148.857C149.072 227.629 149.69 227.819 149.537 227.797C149.883 227.876 149.69 227.814 149.44 227.735C150.019 227.909 150.342 228.01 150.954 228.14C150.857 228.112 150.772 228.078 150.869 228.095C151.764 228.286 151.271 228.14 151.877 228.246C152.217 228.336 151.741 228.286 152.359 228.375C152.733 228.437 152.433 228.432 152.28 228.42C152.846 228.46 153.328 228.572 153.646 228.623L153.345 228.6C153.521 228.617 153.668 228.634 153.816 228.651L153.651 228.595C153.827 228.623 153.969 228.639 153.969 228.656C154.15 228.656 153.838 228.583 154.195 228.6C154.422 228.651 154.904 228.668 154.977 228.712C154.252 228.628 155.051 228.769 154.433 228.712C154.552 228.724 154.694 228.741 154.87 228.763C154.898 228.769 154.841 228.769 154.796 228.763C155.487 228.87 155.125 228.746 155.844 228.814C155.748 228.83 156.009 228.875 156.128 228.881C155.839 228.853 155.992 228.825 156.264 228.83C156.723 228.892 156.768 228.864 157.012 228.887L156.734 228.853C156.83 228.836 157.063 228.864 157.386 228.887C157.414 228.909 157.091 228.87 157.205 228.887C157.567 228.881 158.015 228.999 158.514 229.01C158.746 229.044 158.531 229.061 158.735 229.083C159.301 229.094 159.341 229.162 159.93 229.184C159.76 229.139 159.732 229.145 160.151 229.145L159.177 229.094H159.806C159.511 229.072 159.188 229.066 159.012 229.049C159.313 229.049 159.279 229.049 159.143 229.01C159.539 229.089 159.942 229.044 160.401 229.111L160.378 229.195C161.07 229.285 161.619 229.235 162.52 229.319L162.231 229.285C162.356 229.263 162.792 229.319 163.081 229.325C163.053 229.353 163.234 229.375 163.359 229.398C163.348 229.375 164.022 229.443 164.107 229.398L164.51 229.459C165.241 229.516 165.348 229.426 166.051 229.476C165.836 229.493 166.153 229.532 165.683 229.527C165.915 229.538 166.13 229.555 166.13 229.538C166.266 229.561 166.782 229.538 166.997 229.577C167.099 229.572 167.133 229.544 167.394 229.56C167.422 229.566 167.394 229.572 167.394 229.572C167.394 229.561 167.808 229.572 167.581 229.532C168.301 229.662 169.599 229.628 170.228 229.735C170.743 229.751 171.356 229.774 171.82 229.791C171.792 229.796 171.82 229.802 171.73 229.796C172.37 229.853 172.126 229.74 172.857 229.796C173.226 229.858 172.466 229.802 172.699 229.83C172.795 229.926 173.583 229.858 174.07 229.931H173.951C174.325 229.976 174.869 229.937 175.481 229.97C175.481 229.97 175.453 229.976 175.481 229.982C175.901 229.954 176.7 229.976 177.289 229.982C177.102 230.01 177.023 229.987 177.13 230.032C177.397 230.032 177.057 229.97 177.584 229.982C177.754 230.01 178.133 230.038 178.184 230.083L177.686 230.066C177.941 230.128 178.332 230.088 178.593 230.111L178.559 230.133C179.324 230.156 179.335 230.1 180.157 230.139L180.072 230.117C180.519 230.077 180.446 230.161 180.893 230.139L181.029 230.201C181.324 230.201 182.067 230.184 182.599 230.195C182.299 230.223 181.675 230.223 181.29 230.234C181.585 230.246 182.288 230.268 182.441 230.246C182.322 230.246 182.174 230.257 182.055 230.246C182.418 230.218 182.888 230.212 183.478 230.234C183.37 230.341 185.002 230.319 185.421 230.414C186.459 230.414 187.473 230.504 188.674 230.532C188.249 230.437 189.026 230.543 188.958 230.453C189.236 230.453 189.343 230.459 189.372 230.47H189.315C189.315 230.47 189.355 230.47 189.377 230.47L190.227 230.549C190.426 230.583 189.961 230.56 189.984 230.577C190.596 230.605 190.239 230.622 190.647 230.656C190.562 230.622 190.862 230.616 191.213 230.639L190.72 230.583C191.582 230.566 191.463 230.678 192.33 230.656L192.058 230.673C192.5 230.673 193.696 230.723 194.132 230.667C194.211 230.678 194.313 230.706 194.115 230.706C195.175 230.746 196.478 230.701 197.306 230.762L197.226 230.779H197.328V230.734C197.838 230.751 198.133 230.746 199.062 230.813L198.926 230.785C199.657 230.785 199.533 230.858 200.258 230.875L200.474 230.948C200.955 230.97 202.157 231.015 203.012 231.071C202.525 231.071 201.516 231.021 200.893 230.998C201.369 231.032 202.508 231.116 202.757 231.105C202.565 231.094 202.327 231.094 202.134 231.071C202.718 231.071 203.489 231.105 204.435 231.178C204.259 231.273 206.895 231.391 207.575 231.532C209.252 231.622 210.89 231.807 212.839 231.947C212.154 231.813 213.406 231.987 213.293 231.891C213.74 231.919 213.91 231.936 213.956 231.942L213.865 231.931C213.905 231.931 213.927 231.936 213.961 231.942L215.333 232.093C215.656 232.144 214.902 232.082 214.942 232.105C215.934 232.183 215.356 232.172 216.013 232.245C215.883 232.206 216.364 232.228 216.925 232.279L216.132 232.183C217.526 232.239 217.328 232.341 218.733 232.397H218.286C219.005 232.43 220.938 232.571 221.652 232.531C221.777 232.548 221.947 232.582 221.629 232.571C222.491 232.633 223.46 232.604 224.355 232.638C225.262 232.672 226.118 232.756 226.781 232.846H226.65C226.968 232.88 227.211 232.88 227.602 232.947C227.58 232.953 227.472 232.947 227.619 232.97C227.789 232.981 228.47 233.037 228.889 233.104L228.526 233.082C230.181 233.329 231.082 233.385 232.476 233.587C232.465 233.649 233.763 233.879 234.409 234.003H234.386C235.06 234.121 235.661 234.222 236.228 234.323L237.316 234.508L236.358 233.969C235.412 233.441 234.556 232.953 233.593 232.296C233.372 232.116 233.083 231.886 232.748 231.616C232.431 231.335 232.034 231.021 231.836 230.6C231.722 230.369 231.598 230.133 231.547 229.92C231.49 229.712 231.586 229.544 231.745 229.347C232.074 228.988 232.437 228.583 232.788 228.42C232.55 228.527 232.799 228.359 233.077 228.218C233.462 228.067 234.148 227.786 234.103 227.859L233.961 227.904C234.273 227.848 235.1 227.6 235.758 227.432L235.848 227.331C236.783 227.151 238.019 226.853 239.113 226.59C239.419 226.584 239.815 226.567 240.07 226.567L240.059 226.578C240.144 226.522 240.614 226.494 240.954 226.455C240.943 226.488 240.881 226.505 240.699 226.533L241.022 226.505C241.096 226.483 241.198 226.466 241.402 226.444L241.323 226.488C241.753 226.455 242.178 226.354 242.728 226.326C242.745 226.297 242.541 226.286 242.581 226.253C242.677 226.241 242.774 226.23 242.87 226.219C242.864 226.23 242.83 226.247 242.751 226.258C242.802 226.247 242.927 226.224 243.029 226.219L242.802 226.281C243.051 226.269 242.927 226.241 243.131 226.219C243.131 226.247 243.278 226.219 243.255 226.247C243.204 226.258 243.08 226.258 243.006 226.281C243.233 226.253 243.505 226.236 243.595 226.241C243.573 226.23 243.595 226.202 243.754 226.18C244.179 226.118 243.901 226.191 244.156 226.174C244.258 226.146 244.53 226.118 244.53 226.078C244.655 226.056 244.678 226.078 244.729 226.078C244.944 226.022 245.749 225.91 245.499 225.904H245.443C245.443 225.904 245.465 225.904 245.477 225.904C246.185 225.736 246.967 225.657 247.67 225.483V225.494C248.089 225.393 248.605 225.27 248.894 225.174C249.019 225.146 249.194 225.129 249.143 225.157C249.461 225.062 249.489 225.039 249.96 224.944C249.648 225.051 250.073 224.938 249.636 225.045C250.056 224.95 250.152 224.95 250.583 224.781C250.441 224.86 250.906 224.736 251.099 224.669L250.804 224.725C251.025 224.658 251.212 224.601 251.41 224.545L251.32 224.624C252.181 224.422 252.787 224.04 253.445 223.883C253.649 223.77 252.991 224.034 253.173 223.922C253.553 223.781 253.966 223.68 254.08 223.619C254.34 223.512 254.448 223.433 254.556 223.349C254.663 223.27 254.777 223.18 255.003 222.99C254.935 223.029 254.862 223.046 255.151 222.726C255.417 222.422 255.508 222.366 255.372 222.591C255.309 222.669 255.275 222.703 255.275 222.697C255.202 222.804 255.077 222.939 255.207 222.832L255.23 222.782C255.389 222.647 255.695 222.164 255.644 222.288C255.78 222.007 255.689 222.164 255.559 222.349C255.859 221.911 255.955 221.63 256.148 221.125C256.114 221.204 256.069 221.271 256.097 221.192C256.341 220.445 256.176 220.855 256.284 220.333C256.363 220.041 256.335 220.451 256.386 219.917C256.426 219.592 256.443 219.85 256.437 219.985C256.465 219.491 256.488 219.053 256.409 218.755C256.437 218.845 256.465 218.935 256.477 219.024L256.494 219.002ZM254.272 220.883C254.012 221.597 253.388 222.164 252.714 222.591C252.039 223.029 251.291 223.349 250.549 223.579C250.13 223.714 250.096 223.759 249.846 223.866L249.744 223.854L249.319 224.034C248.696 224.253 248.197 224.236 247.404 224.483H247.517C247.228 224.551 246.593 224.702 246.639 224.658C246.61 224.669 246.548 224.708 246.429 224.714L246.418 224.691L245.703 224.86C245.624 224.871 245.567 224.877 245.533 224.877C246.31 224.556 246.463 224.354 247.12 223.961C247.2 223.939 247.273 223.911 247.347 223.883C247.953 223.473 248.537 222.911 248.775 222.17C248.9 221.805 248.928 221.411 248.922 221.052C248.917 220.692 248.922 220.327 248.832 219.957C248.843 219.979 248.877 220.024 248.905 220.266C248.888 220.092 248.86 219.816 248.73 219.536C248.599 219.255 248.39 219.013 248.197 218.811C247.806 218.418 247.472 218.154 247.54 218.261C247.551 218.238 247.273 217.985 246.916 217.682C246.537 217.379 246.043 217.093 245.698 216.902L245.822 216.924C245.205 216.643 245.182 216.632 244.355 216.256C244.162 216.155 244.196 216.143 244.451 216.278C243.805 215.941 243.918 216.07 243.119 215.705L243.431 215.812C242.74 215.514 242.791 215.554 242.394 215.436C241.952 215.278 241.062 214.936 240.966 214.874C240.864 214.863 240.461 214.762 240.048 214.616C239.997 214.582 240.15 214.627 240.229 214.649C239.039 214.262 238.432 214.155 237.605 213.919C237.594 213.902 237.537 213.88 237.469 213.863C238.438 214.088 239.203 214.341 239.13 214.312C239.141 214.279 238.364 214.049 238.999 214.178C238.376 214.009 237.282 213.818 236.528 213.61C236.494 213.599 236.455 213.588 236.432 213.571L236.511 213.588C236.511 213.588 236.466 213.577 236.438 213.571C236.71 213.605 236.993 213.644 237.418 213.7H237.259C237.69 213.768 237.82 213.683 238.217 213.745L238.325 213.829C239.073 213.97 239.815 214.195 240.558 214.324C240.541 214.324 240.518 214.341 240.399 214.312C240.75 214.397 241.736 214.694 241.634 214.582C241.634 214.633 242.399 214.784 242.802 214.868L242.728 214.891C243.08 214.93 243.091 214.919 243.573 215.02C243.686 215.054 243.663 215.076 243.516 215.026C243.884 215.138 243.816 215.059 244.27 215.189L244.094 215.172C244.479 215.262 244.451 215.239 244.672 215.262C244.921 215.301 245.403 215.436 245.454 215.481C245.511 215.469 245.726 215.492 245.953 215.554C245.981 215.576 245.896 215.565 245.851 215.554C246.491 215.728 246.82 215.733 247.251 215.885C247.256 215.902 247.285 215.913 247.319 215.924C246.814 215.795 246.48 215.711 246.44 215.7C246.435 215.733 246.843 215.84 246.503 215.812C246.837 215.863 247.421 215.947 247.812 216.076C247.829 216.087 247.846 216.093 247.863 216.104H247.823C247.914 216.127 247.999 216.143 248.078 216.16C248.203 216.2 248.282 216.228 248.401 216.261C248.441 216.306 248.86 216.413 249.058 216.48C249.058 216.435 249.313 216.525 249.081 216.419C249.109 216.43 249.041 216.413 248.905 216.374C248.877 216.368 248.837 216.357 248.82 216.351H248.837C248.707 216.312 248.531 216.261 248.333 216.205C248.497 216.233 248.673 216.267 248.888 216.357C249.002 216.368 249.126 216.379 249.189 216.385C249.449 216.525 249.965 216.733 250.022 216.789C250.64 216.98 251.427 217.328 251.824 217.452C251.988 217.525 252 217.57 252.056 217.609C251.96 217.57 251.847 217.508 251.796 217.491C252.136 217.626 252.736 218.014 252.833 218.019C253.19 218.306 252.6 217.907 253.11 218.266L253.031 218.227C253.496 218.62 253.859 218.957 254.125 219.384C254.386 219.8 254.51 220.395 254.216 220.996C254.261 220.917 254.278 220.872 254.289 220.855L254.272 220.883ZM245.794 224.742L245.528 224.882C245.488 224.882 245.465 224.882 245.448 224.882C245.562 224.837 245.669 224.792 245.794 224.742ZM248.446 216.306C248.509 216.323 248.582 216.346 248.684 216.374H248.701C248.701 216.374 248.667 216.379 248.645 216.374C248.509 216.34 248.463 216.317 248.452 216.306H248.446ZM146.822 222.394C146.76 222.231 146.709 221.979 146.737 221.765C146.766 221.664 146.794 221.574 146.811 221.512C146.845 221.456 146.868 221.428 146.868 221.445C146.885 221.417 146.885 221.327 146.981 221.243H147.004C147.157 221.029 147.383 220.855 147.616 220.704C147.905 220.546 147.899 220.597 147.916 220.603C147.939 220.619 147.984 220.603 148.426 220.44C148.636 220.35 148.97 220.238 149.146 220.176C149.146 220.372 149.168 220.608 149.299 220.94C149.282 220.867 149.27 220.799 149.299 220.839C149.333 220.878 149.395 221.052 149.65 221.366C149.882 221.67 150.013 221.866 150.07 221.922C150.121 221.984 150.036 221.962 149.871 221.782C149.752 221.636 149.701 221.563 149.712 221.563C149.554 221.372 149.344 221.114 149.52 221.366L149.593 221.434C149.781 221.788 150.591 222.484 150.381 222.338C150.602 222.535 150.67 222.546 150.619 222.507C150.568 222.467 150.427 222.338 150.274 222.186C150.999 222.86 151.498 223.124 152.376 223.619C152.24 223.54 152.115 223.456 152.257 223.529C153.566 224.214 152.846 223.804 153.765 224.208C154.275 224.455 153.549 224.197 154.49 224.551C155.057 224.787 154.598 224.641 154.36 224.562C155.221 224.888 155.969 225.169 156.456 225.354L155.992 225.208C156.269 225.298 156.49 225.371 156.723 225.444L156.473 225.326C156.74 225.421 156.972 225.489 156.961 225.5C157.244 225.567 156.762 225.382 157.329 225.522C157.681 225.657 158.434 225.837 158.548 225.91C157.409 225.573 158.661 225.994 157.692 225.713C157.879 225.77 158.106 225.831 158.378 225.916C158.417 225.932 158.338 225.916 158.259 225.893C159.347 226.236 158.774 226 159.913 226.292C159.76 226.281 160.168 226.404 160.355 226.449C159.896 226.331 160.146 226.354 160.571 226.444C161.296 226.646 161.37 226.623 161.755 226.719L161.319 226.606C161.472 226.618 161.84 226.707 162.356 226.82C162.396 226.848 161.886 226.724 162.067 226.775C162.588 226.853 163.217 227.056 163.92 227.202C163.835 227.207 163.75 227.213 163.699 227.219C163.37 227.129 162.73 227.016 162.639 226.977C161.891 226.91 160.877 226.769 160.395 226.78C160.18 226.758 160.151 226.724 160.078 226.702C160.202 226.713 160.344 226.73 160.412 226.73C159.987 226.691 159.154 226.561 159.046 226.595C158.514 226.494 159.352 226.595 158.616 226.494H158.718C157.29 226.191 156.349 226.258 154.785 225.854C154.892 225.882 154.949 225.893 154.966 225.91C154.059 225.713 153.135 225.511 152.212 225.315C151.288 225.101 150.37 224.877 149.525 224.551C149.049 224.366 148.987 224.377 148.687 224.276L148.602 224.191C148.432 224.135 148.273 224.062 148.109 223.989C147.446 223.613 147.134 223.124 146.788 222.259C146.788 222.299 146.794 222.344 146.8 222.383L146.822 222.394ZM149.151 220.142C149.027 220.165 148.885 220.193 148.874 220.176C148.964 220.148 149.061 220.12 149.151 220.097C149.151 220.108 149.151 220.125 149.151 220.142ZM191.327 216.346C191.355 216.351 191.372 216.357 191.389 216.362C191.304 216.351 191.219 216.334 191.134 216.323C191.196 216.329 191.259 216.34 191.327 216.346Z" fill="#F5F3EA"/>
<path d="M248.878 216.379H248.826C248.826 216.379 248.878 216.391 248.9 216.396C248.917 216.396 248.929 216.402 248.957 216.413C248.929 216.402 248.906 216.391 248.878 216.379Z" fill="#F5F3EA"/>
<path d="M249.28 225.118L249.257 225.163C249.478 225.101 249.257 225.146 249.28 225.118Z" fill="#F5F3EA"/>
<path d="M252.799 224.14L253.149 223.995L252.889 224.101L252.799 224.14Z" fill="#F5F3EA"/>
<path d="M244.122 213.016L244.179 213.071C244.33 213.094 244.37 213.055 244.122 213.016Z" fill="#F5F3EA"/>
<path d="M234.749 211.903C234.947 211.92 235.146 211.948 235.248 211.948C235.151 211.92 234.902 211.892 234.749 211.903Z" fill="#F5F3EA"/>
<path d="M263.04 349.326C260.773 351.82 248.305 355.813 232.624 357.807C216.937 359.801 192.766 358.307 177.465 357.807C162.163 357.307 150.262 349.326 148.562 347.327C146.862 345.328 147.072 342.02 147.072 342.02C153.991 343.227 161.665 344.103 170.2 344.474C213.168 346.327 264.74 341.84 264.74 341.84C264.74 341.84 265.306 346.827 263.04 349.326Z" fill="#DACDBF"/>
<path d="M337.892 291.081L336.282 303.841C336.22 304.318 336.226 304.801 336.226 305.284C336.22 306.278 335.149 309.676 325.248 319.791C312.645 332.663 265.306 342.34 265.306 342.34C265.306 342.34 265.125 342.357 264.779 342.385C259.26 342.846 211.202 346.721 170.766 344.974C162.231 344.603 154.558 343.727 147.638 342.52C147.446 342.486 147.253 342.452 147.066 342.419C119.512 337.505 104.08 327.35 94.1571 323.38C81.6893 318.393 81.2756 310.389 81.2756 310.389L79.1334 295.591C78.7877 293.181 79.1164 290.733 80.0911 288.464L81.9273 284.19C83.1231 281.404 83.3384 278.383 82.5564 275.496C82.4827 275.226 82.4034 274.962 82.3127 274.693L80.8902 270.503L79.7908 267.257C79.0087 264.954 78.8784 262.534 79.3941 260.175L81.7403 249.571C82.0803 248.044 82.1427 246.483 81.9273 244.932L81.1452 239.299H81.1396L80.8335 237.07C80.6465 235.744 80.6692 234.402 80.8959 233.082L83.9448 215.11H84.1885C84.1772 215.313 84.1772 215.526 84.1829 215.734C84.1149 217.812 84.8686 219.918 86.4497 221.631C93.5564 229.353 116.095 241.456 187.467 241.456C194.773 241.456 202.593 241.327 210.964 241.057C285.329 238.642 312.956 229.819 323.038 222.838C325.407 221.198 326.812 218.772 326.937 216.127C326.943 215.992 326.949 215.857 326.949 215.717V215.65L332.1 227.73C332.899 229.611 333.279 231.616 333.222 233.627L332.978 241.456L332.927 243.152L332.797 247.291C332.763 248.454 332.876 249.622 333.137 250.756L333.381 251.829L334.922 258.625C335.359 260.534 335.381 262.494 334.99 264.415L333.687 270.857C333.647 271.048 333.613 271.239 333.59 271.43C333.517 271.873 333.466 272.323 333.443 272.772C333.296 275.125 333.76 277.484 334.815 279.669H334.82C334.837 279.714 334.86 279.753 334.877 279.792L335.041 280.124L336.537 283.156C337.767 285.644 338.232 288.38 337.892 291.081Z" fill="#E8E3D9"/>
<path d="M322.982 208.612C311.063 200.468 280.574 187.242 210.255 190.168C133.794 193.358 96.7698 199.396 86.4611 210.375C85.0387 211.886 84.2793 213.728 84.1886 215.604C84.1886 215.643 84.1829 215.688 84.1829 215.733C84.1149 217.811 84.8687 219.917 86.4498 221.63C93.5565 229.353 116.095 241.456 187.468 241.456C194.773 241.456 202.593 241.326 210.964 241.057C285.329 238.642 312.956 229.819 323.038 222.838C325.407 221.198 326.813 218.772 326.937 216.127C326.943 215.992 326.949 215.857 326.949 215.717V215.649C326.915 212.875 325.469 210.314 322.982 208.612ZM87.5946 215.559C87.6909 214.38 88.184 213.234 89.0794 212.279C98.5889 202.159 136.009 196.262 210.414 193.162C241.215 191.876 267.432 193.617 288.327 198.323C305.668 202.232 315.609 207.36 320.896 210.976C321.423 211.336 321.882 211.757 322.256 212.223C323.084 213.223 323.543 214.442 323.548 215.728C323.554 217.598 322.602 219.333 320.936 220.49C311.25 227.19 284.292 235.682 210.839 238.063C180.219 239.058 107.056 239.26 89.0907 219.749C87.9686 218.53 87.4699 217.025 87.5946 215.559Z" fill="#DACDBF"/>
<path d="M82.7491 276.192L81.3267 272.002C81.661 271.845 82.1201 273.002 82.7491 276.192Z" fill="#FFAEFF"/>
<path d="M335.477 281.123L335.313 280.791C334.01 278.157 333.568 275.26 334.027 272.423C332.774 273.322 312.083 283.931 295.093 291.08C295.048 291.097 246.956 307.598 137.086 295.781C113.675 291.563 86.2342 284.998 82.9982 276.989C83.7803 279.87 83.5649 282.898 82.3691 285.683L80.533 289.957C80.533 289.957 126.46 301.178 153.56 302.712L153.974 302.886C153.974 302.886 257.644 312.383 295.983 295.427C295.983 295.427 295.994 295.427 296 295.422C305.6 293.327 318.72 289.227 335.319 281.286C335.375 281.23 335.426 281.173 335.483 281.117L335.477 281.123Z" fill="#DACDBF"/>
<path d="M333.574 251.755C333.574 251.755 308.247 261.516 297.479 263.51C286.712 265.504 235.146 274.692 213.327 274.091C191.503 273.49 149.565 269.497 128.03 264.01C106.495 258.523 82.1768 250.57 82.1768 250.57C82.5169 249.043 82.5792 247.481 82.3639 245.937L81.5818 240.298C81.9275 240.607 95.9368 253.081 112.729 256.529C129.73 260.023 146.165 262.016 146.165 262.016C146.165 262.016 171.101 268.003 213.605 268.003C256.109 268.003 285.011 260.517 295.779 257.523C306.547 254.53 329.68 248.841 333.415 242.455L333.234 248.285C333.2 249.447 333.313 250.615 333.574 251.75V251.755Z" fill="#DACDBF"/>
<path opacity="0.43" d="M206.147 179.082C206.147 179.082 168.29 171.983 166.244 137.511C164.198 103.038 175.453 92.8954 187.728 81.7416C200.003 70.5878 217.402 65.5163 213.304 50.3076C209.213 35.0989 198.978 28 198.978 28C198.978 28 234.789 44.2253 238.88 73.6261C242.972 103.033 211.015 112.356 202.44 131.518C193.866 150.686 195.912 161.84 206.141 179.076L206.147 179.082Z" fill="#CAE5E5"/>
</g>
<defs>
<clipPath id="clip0_145_7604">
<rect width="417" height="417" fill="white"/>
</clipPath>
</defs>
</svg>
