<svg width="417" height="417" viewBox="0 0 417 417" fill="none" xmlns="http://www.w3.org/2000/svg">
<g clip-path="url(#clip0_145_5279)">
<path d="M323.549 216.15C323.554 218.057 322.602 219.826 320.936 221.005C311.251 227.835 284.292 236.49 210.841 238.918C200.702 239.256 185.905 239.502 169.992 238.958C154.804 238.443 138.596 237.206 124.451 234.647C108.651 231.785 95.4347 227.268 89.0932 220.249C87.9711 219.007 87.4724 217.473 87.5971 215.979C87.6141 215.795 87.6367 215.612 87.6707 215.435C87.8521 214.427 88.3225 213.46 89.0819 212.635C93.8366 207.477 105.579 203.39 125.442 200.201C134.708 198.719 145.748 197.425 158.663 196.308C173.403 195.037 190.597 193.99 210.416 193.148C241.216 191.837 267.433 193.612 288.327 198.409C305.669 202.394 315.609 207.621 320.897 211.307C321.424 211.674 321.883 212.103 322.257 212.578C322.931 213.408 323.362 214.387 323.492 215.435C323.532 215.67 323.549 215.91 323.549 216.15Z" fill="#C9BAAA"/>
<path d="M322.982 208.897C311.064 200.596 280.575 187.114 210.257 190.097C190.071 190.955 172.633 192.015 157.711 193.32C145.187 194.413 134.436 195.678 125.318 197.133C104.14 200.51 91.7682 204.935 86.4637 210.694C85.1886 212.074 84.4462 213.729 84.2422 215.435H87.6708C87.8522 214.427 88.3225 213.46 89.0819 212.635C93.8367 207.477 105.579 203.39 125.442 200.201C134.708 198.718 145.748 197.424 158.663 196.308C173.403 195.037 190.598 193.99 210.416 193.148C241.217 191.837 267.433 193.612 288.328 198.409C305.669 202.394 315.609 207.62 320.897 211.307C321.424 211.673 321.883 212.103 322.257 212.578C322.931 213.408 323.362 214.387 323.492 215.435H326.915C326.688 212.853 325.283 210.5 322.982 208.897Z" fill="#DACDBF"/>
<path d="M324.116 228.504L303.153 250.287L204.329 257.546L100.615 239.273L90.9634 237.572L92.3065 229.998C92.3065 229.998 89.2859 228.842 92.3065 225.041C95.3271 221.24 106.814 214.988 124.128 212.67C141.441 210.351 187.56 206.115 206.126 206.115C221.274 206.115 263.165 209.183 287.987 213.168H288.004C293.598 214.066 298.33 215.011 301.685 215.979C319.922 221.234 322.914 224.863 323.515 226.684L324.116 228.499V228.504Z" fill="#7BAF33"/>
<path d="M257.056 261.731C256.699 261.731 256.347 261.548 256.16 261.221L245.325 242.604C234.58 218.749 238.853 191.757 244.333 173.323C250.25 153.401 258.818 138.883 258.903 138.74C259.187 138.259 259.816 138.099 260.309 138.374C260.802 138.654 260.966 139.267 260.683 139.748C260.598 139.891 252.137 154.231 246.294 173.93C240.927 192.026 236.722 218.475 247.189 241.752L257.951 260.231C258.235 260.712 258.059 261.324 257.566 261.599C257.407 261.691 257.232 261.731 257.056 261.731Z" fill="#9D7942"/>
<path d="M233.9 254.197C233.435 254.197 233.01 253.888 232.897 253.424C232.767 252.886 233.107 252.342 233.662 252.216C254.919 247.276 270.124 222.419 282.711 199.508C295.088 176.982 291.875 143.755 291.841 143.423C291.784 142.873 292.198 142.381 292.765 142.324C293.326 142.272 293.836 142.673 293.892 143.223C293.926 143.56 297.202 177.382 284.53 200.459C271.734 223.753 256.234 249.033 234.144 254.168C234.064 254.186 233.985 254.197 233.906 254.197H233.9Z" fill="#9D7942"/>
<path d="M254.143 264.668C253.695 264.668 253.282 264.376 253.151 263.935C246.271 239.868 240.111 204.38 249.819 171.972C255.656 152.491 264.367 143.492 264.735 143.12C265.132 142.719 265.778 142.707 266.191 143.091C266.599 143.475 266.616 144.11 266.22 144.511C266.135 144.602 257.436 153.619 251.752 172.682C242.236 204.604 248.34 239.628 255.135 263.397C255.288 263.929 254.971 264.485 254.421 264.633C254.33 264.656 254.234 264.674 254.143 264.674V264.668Z" fill="#9D7942"/>
<path d="M237.555 257.501C237.312 257.501 237.062 257.415 236.87 257.243C236.445 256.871 236.411 256.235 236.79 255.823C265.591 224.532 276.88 196.686 281.283 178.837C286.049 159.51 283.986 147.419 283.964 147.299C283.867 146.755 284.241 146.234 284.802 146.137C285.363 146.039 285.896 146.406 285.992 146.95C286.083 147.453 288.152 159.475 283.318 179.174C278.874 197.282 267.461 225.505 238.32 257.169C238.116 257.392 237.839 257.501 237.555 257.501Z" fill="#9D7942"/>
<path d="M245.79 263.351C245.75 263.351 245.705 263.351 245.665 263.345C245.098 263.277 244.702 262.778 244.77 262.223C257.464 161.525 269.354 145.661 269.852 145.032C270.204 144.597 270.85 144.516 271.297 144.854C271.745 145.192 271.825 145.822 271.479 146.257C271.45 146.297 268.413 150.344 263.862 166.734C259.697 181.739 253.361 210.529 246.81 262.464C246.747 262.973 246.3 263.345 245.79 263.345V263.351Z" fill="#9D7942"/>
<path d="M242.616 259.012C242.457 259.012 242.299 258.977 242.151 258.903C241.647 258.651 241.443 258.044 241.698 257.552C253.333 235.208 262.684 205.897 268.475 185.242C274.76 162.841 278.331 145.512 278.365 145.335C278.478 144.791 279.016 144.436 279.577 144.545C280.133 144.654 280.495 145.18 280.382 145.73C280.24 146.423 265.942 215.429 243.529 258.456C243.347 258.806 242.985 259.006 242.61 259.006L242.616 259.012Z" fill="#9D7942"/>
<path d="M268.475 58.061L252.959 136.931C252.959 136.931 263.058 146.491 277.061 147.745C291.065 148.999 297.848 143.99 297.848 143.99L312.707 66.1329C312.707 66.1329 301.742 67.3466 290.005 65.509C278.268 63.6713 268.481 58.061 268.481 58.061H268.475Z" fill="#E5B368"/>
<path d="M299.616 144.642C299.197 145.009 298.71 145.347 298.16 145.644C297.542 145.976 296.857 146.28 296.097 146.549C295.78 146.658 295.434 146.772 295.094 146.869C294.408 147.07 293.683 147.247 292.924 147.402C292.164 147.556 291.371 147.694 290.543 147.802C289.824 147.911 289.087 148.003 288.339 148.072C287.676 148.14 287.007 148.192 286.321 148.238C285.573 148.295 284.808 148.329 284.037 148.358C282.779 148.404 281.51 148.426 280.274 148.426H279.821C279.062 148.426 278.308 148.415 277.583 148.392H277.537C276.205 148.358 274.811 148.203 273.412 147.957C272.686 147.837 271.944 147.677 271.218 147.499C268.991 146.967 266.764 146.228 264.633 145.415C263.925 145.135 263.233 144.86 262.559 144.579C261.862 144.276 261.182 143.99 260.53 143.686C259.81 143.366 259.142 143.039 258.49 142.719C258.014 142.496 257.566 142.272 257.124 142.049C256.416 141.683 255.747 141.334 255.141 141.013C254.432 140.635 253.803 140.28 253.253 139.965C252.381 139.473 251.712 139.072 251.304 138.826C251.06 138.671 250.907 138.568 250.851 138.534C250.08 138.042 249.848 137.006 250.335 136.227C250.822 135.448 251.837 135.214 252.607 135.695C252.63 135.718 253.061 135.987 253.809 136.427C254.115 136.605 254.483 136.817 254.903 137.051C257.141 138.322 260.779 140.252 264.86 141.9H264.894C265.103 141.992 265.313 142.078 265.534 142.169C265.534 142.158 265.546 142.169 265.546 142.169C269.507 143.721 273.808 144.957 277.611 145.043C285.024 145.209 289.744 144.688 292.731 144.018C293.513 143.841 294.176 143.652 294.737 143.463C294.958 143.394 295.168 143.331 295.355 143.251C296.471 142.828 297.078 142.427 297.372 142.169C297.395 142.146 297.418 142.135 297.44 142.112C298.137 141.511 299.186 141.58 299.781 142.267C300.376 142.971 300.308 144.018 299.628 144.631L299.616 144.642Z" fill="#D1A157"/>
<path d="M305.555 68.6287C301.447 68.6287 296.12 67.8788 290.963 67.1574L290.401 67.0773C280.49 65.6862 271.094 61.6101 269.62 59.034C269.416 58.6791 269.478 58.5302 269.501 58.4844C269.507 58.473 270.294 57.1162 278.274 57.1162C283.363 57.1162 289.013 57.6715 292.306 58.1467C301.702 59.5034 311.223 64.7359 311.619 66.2987C311.699 66.8941 311.517 67.1918 311.353 67.3807C310.854 67.9532 309.449 68.6344 305.567 68.6344L305.555 68.6287Z" fill="#E5B368"/>
<path d="M278.268 58.2269C283.301 58.2269 288.888 58.7765 292.141 59.2459C300.631 60.471 309.25 64.9764 310.52 66.6194V66.6252C310.492 66.6595 309.772 67.5125 305.555 67.5125C301.339 67.5125 296.233 66.7683 291.116 66.0527L290.549 65.9725C281.045 64.6387 272.799 60.8947 270.912 58.9425C271.785 58.6506 273.819 58.2269 278.268 58.2269ZM278.268 56C273.281 56 269.093 56.5267 268.475 58.0609C267.087 61.4958 279.549 66.6824 290.249 68.1823C295.519 68.9208 301.214 69.7452 305.555 69.7452C309.897 69.7452 313.059 68.875 312.702 66.1386C312.373 63.6483 301.458 58.3472 292.459 57.0476C288.662 56.4981 283.097 56.0057 278.274 56.0057L278.268 56Z" fill="#D1A157"/>
<path d="M254.727 138.294C254.228 138.849 253.735 139.421 253.248 139.977C236.331 159.206 221.959 180.6 210.5 203.596C203.042 218.572 197.296 233.365 193.425 247.574C193.148 248.61 192.927 249.469 192.995 250.304C193.085 251.53 193.822 252.755 194.474 253.837L201.036 264.811C201.348 265.332 201.178 266.013 200.662 266.339C200.487 266.448 200.288 266.494 200.09 266.494C199.727 266.494 199.353 266.305 199.155 265.962L192.581 254.987C191.856 253.762 190.937 252.222 190.807 250.476C190.705 249.194 191.039 247.969 191.306 246.99C195.222 232.638 201.014 217.708 208.534 202.6C220.004 179.581 234.376 158.147 251.304 138.849C251.888 138.168 252.483 137.492 253.089 136.811C253.287 136.599 253.542 136.479 253.803 136.456C254.109 136.634 254.478 136.845 254.897 137.08C255.084 137.469 255.039 137.962 254.733 138.305L254.727 138.294Z" fill="#D1A157"/>
<path d="M206.692 259.824C206.182 259.824 205.729 259.469 205.615 258.948C203.717 250.115 205.1 240.12 209.73 229.237C212.399 222.963 215.845 216.992 219.177 211.21C220.73 208.519 222.334 205.731 223.835 202.96C228.125 195.043 231.883 186.639 235.521 178.504C241.477 165.188 247.637 151.42 256.297 139.375C256.654 138.877 257.345 138.768 257.838 139.129C258.331 139.49 258.439 140.188 258.082 140.686C249.558 152.548 243.444 166.207 237.533 179.426C233.877 187.595 230.098 196.045 225.768 204.031C224.255 206.83 222.64 209.624 221.081 212.332C217.783 218.051 214.371 223.964 211.759 230.118C207.316 240.566 205.972 250.104 207.775 258.473C207.905 259.074 207.525 259.67 206.93 259.796C206.851 259.813 206.772 259.819 206.692 259.819V259.824Z" fill="#D1A157"/>
<path d="M221.211 276.913C220.724 276.913 220.276 276.581 220.146 276.083C217.035 264.215 220.741 251.724 224.459 240.956C226.771 234.258 229.276 227.508 231.701 220.976C237.487 205.382 243.472 189.261 247.201 172.808C247.45 171.703 247.694 170.593 247.932 169.488C248.72 165.87 249.536 162.126 250.692 158.513C252.726 152.159 255.792 146.245 259.793 140.933C260.162 140.44 260.853 140.349 261.34 140.721C261.828 141.093 261.918 141.791 261.55 142.284C257.696 147.396 254.749 153.092 252.794 159.2C251.672 162.71 250.867 166.396 250.091 169.969C249.847 171.085 249.604 172.196 249.354 173.306C245.591 189.902 239.578 206.098 233.77 221.761C231.35 228.281 228.851 235.019 226.544 241.689C222.934 252.148 219.33 264.256 222.282 275.516C222.435 276.112 222.09 276.718 221.5 276.879C221.404 276.902 221.313 276.913 221.217 276.913H221.211Z" fill="#D1A157"/>
<path d="M265.744 143.629C265.37 144.219 264.996 144.82 264.627 145.421C254.823 161.719 251.038 181.04 247.388 199.737C244.849 212.675 242.236 226.043 237.657 238.5C237.119 239.983 236.541 241.454 235.957 242.937C234.444 246.824 232.88 250.837 231.934 254.936C230.896 259.338 230.211 265.778 232.795 271.434C233.05 271.99 232.806 272.648 232.257 272.906C232.104 272.986 231.951 273.014 231.792 273.014C231.373 273.014 230.976 272.768 230.789 272.356C228.539 267.433 228.199 261.227 229.786 254.42C230.777 250.178 232.364 246.074 233.911 242.118C234.484 240.647 235.056 239.187 235.6 237.716C240.111 225.424 242.712 212.149 245.217 199.302C248.89 180.531 252.687 161.153 262.553 144.585C262.984 143.864 263.426 143.137 263.885 142.415C264.106 142.083 264.469 141.9 264.843 141.912H264.877C265.086 142.003 265.296 142.089 265.517 142.181C265.517 142.169 265.528 142.181 265.528 142.181C265.948 142.513 266.044 143.148 265.738 143.629H265.744Z" fill="#D1A157"/>
<path d="M237.833 274.835C237.68 274.835 237.521 274.8 237.374 274.732C236.819 274.474 236.581 273.816 236.83 273.255C251.219 241.625 260.938 208.107 265.715 173.627C265.851 172.642 265.982 171.657 266.118 170.673C267.2 162.646 268.317 154.346 271.507 146.743C271.745 146.176 272.391 145.913 272.952 146.153C273.513 146.394 273.774 147.047 273.536 147.613C270.459 154.941 269.359 163.087 268.3 170.97C268.169 171.961 268.033 172.945 267.897 173.93C263.092 208.622 253.316 242.347 238.83 274.176C238.643 274.583 238.247 274.823 237.827 274.823L237.833 274.835Z" fill="#D1A157"/>
<path d="M247.904 279.684C247.836 279.684 247.768 279.678 247.694 279.666C247.093 279.552 246.702 278.968 246.815 278.361C248.799 267.856 252.766 257.781 256.603 248.037C259.221 241.385 261.93 234.51 263.97 227.577C267.047 217.118 268.73 206.126 270.362 195.501L277.86 146.56C277.951 145.953 278.523 145.535 279.118 145.627C279.719 145.718 280.133 146.291 280.042 146.898L272.544 195.839C270.906 206.538 269.212 217.604 266.089 228.212C264.021 235.242 261.295 242.164 258.654 248.862C254.857 258.508 250.93 268.48 248.986 278.779C248.884 279.312 248.425 279.684 247.904 279.684Z" fill="#D1A157"/>
<path d="M257.226 288.38C257.05 288.38 256.869 288.34 256.705 288.248C256.166 287.956 255.968 287.281 256.257 286.737C273.372 254.535 281.957 215.612 282.502 167.748L282.519 166.259C282.581 159.601 282.649 152.72 284.593 146.211C284.768 145.621 285.38 145.289 285.97 145.467C286.554 145.644 286.882 146.268 286.707 146.858C284.853 153.063 284.785 159.784 284.723 166.282L284.706 167.776C284.162 216.007 275.491 255.262 258.201 287.79C258.002 288.162 257.623 288.38 257.226 288.38Z" fill="#D1A157"/>
<path d="M269.365 286.645C269.144 286.645 268.923 286.576 268.73 286.439C268.232 286.084 268.118 285.385 268.47 284.887C276.579 273.335 282.246 259.109 285.312 242.61C288.645 224.68 288.571 206.103 288.497 188.139L288.333 147.087C288.333 146.474 288.82 145.97 289.432 145.97C290.039 145.97 290.532 146.468 290.538 147.081L290.702 188.133C290.776 206.2 290.849 224.886 287.477 243.022C284.349 259.841 278.557 274.365 270.266 286.181C270.051 286.49 269.711 286.651 269.365 286.651V286.645Z" fill="#D1A157"/>
<path d="M298.812 241.774C297.973 248.569 296.431 255.245 294.233 261.582C291.036 270.793 286.145 280.119 279.708 289.29C279.498 289.599 279.158 289.771 278.801 289.771C278.58 289.771 278.359 289.702 278.172 289.559C277.673 289.204 277.554 288.511 277.905 288.007C284.224 279.002 289.013 269.871 292.141 260.843C294.289 254.649 295.802 248.129 296.618 241.494C298.109 229.426 297.327 217.072 296.562 205.118L292.912 147.407L292.702 144.167C292.702 144.121 292.702 144.075 292.714 144.035C293.496 143.858 294.159 143.669 294.72 143.48C294.828 143.635 294.896 143.823 294.907 144.024L295.083 146.875L298.766 204.975C299.526 217.032 300.319 229.5 298.8 241.774H298.812Z" fill="#D1A157"/>
<path d="M307.488 258.8C304.19 268.08 296.658 274.887 289.994 280.903C289.784 281.092 289.518 281.184 289.268 281.184C288.962 281.184 288.662 281.064 288.441 280.817C288.033 280.359 288.078 279.65 288.532 279.249C294.986 273.41 302.308 266.803 305.408 258.056C308.593 249.074 306.887 239.158 305.244 229.569C304.825 227.131 304.394 224.6 304.042 222.127C303.005 214.696 302.728 207.088 302.467 199.72C302.359 196.766 302.246 193.818 302.093 190.864C301.3 175.991 299.305 161.107 296.103 146.555C295.859 145.45 295.615 144.362 295.355 143.269C296.471 142.845 297.078 142.444 297.372 142.187C297.65 143.343 297.911 144.494 298.166 145.65C301.441 160.454 303.504 175.608 304.298 190.738C304.451 193.704 304.564 196.663 304.66 199.629C304.938 206.939 305.21 214.49 306.236 221.824C306.564 224.251 306.995 226.758 307.414 229.186C309.115 239.067 310.866 249.274 307.494 258.8H307.488Z" fill="#D1A157"/>
<path d="M254.585 128.659C254.585 128.659 251.536 120.008 255.175 113.316C258.813 106.624 259.98 101.22 259.98 101.22L304.609 108.53C304.609 108.53 304.082 117.009 304.609 121.84C305.136 126.672 299.531 135.145 299.531 135.145L254.585 128.653V128.659Z" fill="#E5B368"/>
<path d="M326.949 216.07V216.139C326.949 216.282 326.943 216.419 326.938 216.557C326.813 219.253 325.408 221.726 323.039 223.398C312.957 230.514 285.329 239.507 210.965 241.969C202.595 242.244 194.774 242.375 187.469 242.375C181.496 242.375 175.868 242.289 170.558 242.123C150.74 241.517 135.416 239.845 123.572 237.612C100.665 233.302 90.7423 226.918 86.4522 222.167C84.8711 220.421 84.1174 218.274 84.1854 216.156C84.1854 216.11 84.191 216.064 84.191 216.024C84.2024 215.83 84.2194 215.629 84.242 215.435H87.6707C87.6367 215.612 87.614 215.795 87.597 215.978C87.4723 217.473 87.971 219.007 89.0931 220.249C95.4347 227.268 108.65 231.784 124.45 234.647C138.596 237.206 154.804 238.442 169.992 238.958C185.905 239.501 200.702 239.255 210.84 238.918C284.292 236.49 311.251 227.834 320.936 221.005C322.602 219.825 323.554 218.057 323.549 216.15C323.549 215.91 323.532 215.669 323.492 215.435H326.915C326.938 215.646 326.949 215.858 326.949 216.07Z" fill="#DACDBF"/>
<path d="M263.041 352.325C260.774 354.867 248.306 358.937 232.625 360.969C216.938 363.002 192.768 361.479 177.467 360.969C162.165 360.46 150.264 352.325 148.564 350.287C146.864 348.249 147.074 344.877 147.074 344.877C153.993 346.108 161.667 347.001 170.202 347.379C213.17 349.268 264.741 344.694 264.741 344.694C264.741 344.694 265.308 349.777 263.041 352.325Z" fill="#DACDBF"/>
<path d="M337.892 292.959L336.283 305.966C336.221 306.453 336.226 306.945 336.226 307.437C336.221 308.451 335.149 311.914 325.249 322.224C312.645 335.346 265.308 345.209 265.308 345.209C265.308 345.209 265.126 345.226 264.781 345.255C259.261 345.725 211.203 349.675 170.768 347.894C162.233 347.516 154.56 346.623 147.641 345.392C147.448 345.358 147.255 345.324 147.068 345.289C119.515 340.28 104.083 329.93 94.1597 325.882C81.692 320.799 81.2783 312.641 81.2783 312.641L79.1361 297.556C78.7904 295.1 79.1191 292.604 80.0938 290.292L81.93 285.935C83.0577 283.25 83.3128 280.359 82.678 277.565C82.644 277.399 82.6044 277.233 82.559 277.073C82.4854 276.798 82.406 276.529 82.3153 276.255L81.3973 273.501L80.8929 271.984L79.7935 268.675C79.0114 266.328 78.881 263.86 79.3968 261.456L80.0655 258.37L81.743 250.648C82.083 249.091 82.1453 247.499 81.93 245.919L81.1479 240.177H81.1422L80.8362 237.904C80.6492 236.553 80.6719 235.185 80.8986 233.84L83.9475 215.521H84.1912C84.1798 215.727 84.1798 215.944 84.1855 216.156C84.1175 218.274 84.8712 220.421 86.4524 222.167C90.7424 226.919 100.666 233.302 123.572 237.612C135.417 239.845 150.74 241.517 170.559 242.123C175.869 242.289 181.496 242.375 187.469 242.375C194.774 242.375 202.595 242.244 210.965 241.969C285.33 239.507 312.957 230.514 323.039 223.398C325.408 221.726 326.813 219.253 326.938 216.557C326.943 216.419 326.949 216.282 326.949 216.139V216.07L332.101 228.384C332.9 230.302 333.279 232.346 333.223 234.395L332.979 242.375L332.928 244.099C332.928 244.099 332.934 244.104 332.928 244.104L332.798 248.323C332.764 249.508 332.877 250.699 333.138 251.856L333.381 252.949L334.588 258.37L334.923 259.876C335.359 261.822 335.382 263.82 334.991 265.778L333.687 272.345C333.648 272.539 333.614 272.734 333.591 272.928C333.517 273.381 333.466 273.839 333.444 274.297C333.296 276.701 333.761 279.1 334.815 281.327H334.821C334.838 281.372 334.86 281.413 334.877 281.453L335.042 281.79L336.538 284.882C337.768 287.418 338.232 290.206 337.892 292.959Z" fill="#E8E3D9"/>
<path d="M82.7516 277.783L81.3291 273.512C81.6635 273.352 82.1225 274.531 82.7516 277.783Z" fill="#FFAEFF"/>
<path d="M335.478 282.81L335.314 282.472C334.01 279.787 333.568 276.833 334.027 273.942C332.775 274.858 312.084 285.672 295.094 292.96C295.049 292.977 246.957 309.796 137.088 297.751C113.677 293.452 86.237 286.76 83.0011 278.596C83.7832 281.533 83.5678 284.619 82.372 287.458L80.5359 291.815C80.5359 291.815 126.462 303.253 153.563 304.816L153.976 304.993C153.976 304.993 257.646 314.674 295.984 297.391C295.984 297.391 295.995 297.391 296.001 297.385C305.601 295.249 318.72 291.07 335.32 282.976C335.376 282.918 335.427 282.861 335.484 282.804L335.478 282.81Z" fill="#DACDBF"/>
<path d="M333.574 252.875C333.574 252.875 308.247 262.824 297.48 264.857C286.712 266.889 235.147 276.255 213.328 275.642C191.504 275.03 149.567 270.959 128.032 265.366C106.497 259.773 82.1793 251.667 82.1793 251.667C82.5193 250.11 82.5816 248.518 82.3663 246.944L81.5842 241.196C81.9299 241.511 95.9391 254.226 112.731 257.741C129.732 261.302 146.167 263.334 146.167 263.334C146.167 263.334 171.103 269.437 213.606 269.437C256.11 269.437 285.012 261.805 295.78 258.754C306.547 255.703 329.681 249.904 333.415 243.395L333.234 249.337C333.2 250.522 333.313 251.713 333.574 252.869V252.875Z" fill="#DACDBF"/>
</g>
<defs>
<clipPath id="clip0_145_5279">
<rect width="417" height="417" fill="white"/>
</clipPath>
</defs>
</svg>
