<svg width="417" height="417" viewBox="0 0 417 417" fill="none" xmlns="http://www.w3.org/2000/svg">
<g clip-path="url(#clip0_145_7468)">
<g clip-path="url(#clip1_145_7468)">
<path d="M323.548 214.284C323.554 216.176 322.602 217.933 320.935 219.103C311.25 225.883 284.291 234.476 210.839 236.886C200.7 237.221 185.903 237.466 169.99 236.926C154.802 236.414 138.593 235.187 124.448 232.646C108.648 229.805 95.4321 225.321 89.0905 218.353C87.9684 217.12 87.4697 215.597 87.5944 214.113C87.6114 213.932 87.6341 213.75 87.6681 213.574C87.8494 212.573 88.3198 211.613 89.0792 210.795C93.834 205.674 105.576 201.616 125.44 198.451C134.706 196.979 145.745 195.694 158.661 194.586C173.401 193.324 190.596 192.284 210.414 191.449C241.215 190.148 267.432 191.909 288.326 196.672C305.668 200.627 315.608 205.816 320.896 209.476C321.423 209.84 321.882 210.266 322.256 210.738C322.93 211.562 323.361 212.534 323.491 213.574C323.531 213.807 323.548 214.045 323.548 214.284Z" fill="#C9BAAA"/>
<path d="M322.982 207.083C311.064 198.843 280.574 185.459 210.255 188.42C190.069 189.272 172.631 190.324 157.709 191.62C145.185 192.705 134.434 193.961 125.316 195.405C104.137 198.758 91.7658 203.151 86.4613 208.868C85.1862 210.238 84.4438 211.88 84.2397 213.574H87.6684C87.8497 212.573 88.3201 211.613 89.0795 210.795C93.8343 205.674 105.577 201.616 125.44 198.451C134.706 196.979 145.746 195.694 158.661 194.586C173.402 193.324 190.596 192.284 210.414 191.449C241.215 190.148 267.432 191.909 288.327 196.672C305.668 200.627 315.609 205.816 320.896 209.476C321.423 209.84 321.882 210.266 322.256 210.738C322.931 211.562 323.361 212.534 323.492 213.574H326.915C326.688 211.011 325.283 208.675 322.982 207.083Z" fill="#DACDBF"/>
<path opacity="0.75" d="M324.115 226.548L303.152 248.173L204.327 255.379L100.612 237.238L90.9609 235.55L92.3041 228.032C92.3041 228.032 89.2834 226.883 92.3041 223.11C95.3247 219.336 106.812 213.13 124.125 210.829C141.439 208.527 187.558 204.321 206.124 204.321C221.272 204.321 263.164 207.367 287.987 211.323H288.004C293.597 212.215 298.329 213.153 301.684 214.113C319.921 219.331 322.914 222.934 323.514 224.741L324.115 226.543V226.548Z" fill="#A4D696"/>
<path d="M326.949 214.205V214.273C326.949 214.415 326.943 214.551 326.937 214.688C326.813 217.364 325.407 219.82 323.038 221.479C312.956 228.543 285.329 237.471 210.964 239.915C202.593 240.188 194.773 240.319 187.468 240.319C181.494 240.319 175.867 240.234 170.557 240.069C150.738 239.466 135.414 237.807 123.57 235.59C100.663 231.311 90.7399 224.974 86.4498 220.257C84.8687 218.524 84.1149 216.393 84.1829 214.29C84.1829 214.244 84.1886 214.199 84.1886 214.159C84.1999 213.966 84.2169 213.767 84.2396 213.574H87.6683C87.6343 213.75 87.6116 213.932 87.5946 214.114C87.4699 215.597 87.9686 217.12 89.0907 218.353C95.4323 225.321 108.648 229.805 124.448 232.646C138.594 235.187 154.802 236.414 169.99 236.926C185.903 237.466 200.7 237.221 210.839 236.886C284.292 234.476 311.25 225.883 320.936 219.103C322.602 217.933 323.554 216.177 323.548 214.284C323.548 214.045 323.531 213.807 323.492 213.574H326.915C326.937 213.784 326.949 213.994 326.949 214.205Z" fill="#DACDBF"/>
<path d="M263.04 349.47C260.773 351.993 248.305 356.034 232.624 358.051C216.937 360.069 192.767 358.557 177.465 358.051C162.164 357.546 150.263 349.47 148.562 347.447C146.862 345.423 147.072 342.076 147.072 342.076C153.992 343.298 161.665 344.184 170.2 344.559C213.168 346.435 264.74 341.894 264.74 341.894C264.74 341.894 265.307 346.941 263.04 349.47Z" fill="#DACDBF"/>
<path d="M337.892 290.535L336.282 303.448C336.22 303.931 336.226 304.42 336.226 304.908C336.22 305.914 335.149 309.352 325.248 319.588C312.645 332.614 265.306 342.406 265.306 342.406C265.306 342.406 265.125 342.423 264.779 342.451C259.26 342.917 211.202 346.839 170.766 345.071C162.231 344.696 154.558 343.81 147.638 342.588C147.446 342.554 147.253 342.52 147.066 342.485C119.512 337.513 104.08 327.237 94.1571 323.219C81.6893 318.173 81.2756 310.074 81.2756 310.074L79.1334 295.099C78.7877 292.661 79.1164 290.183 80.0911 287.887L81.9273 283.562C83.0551 280.897 83.3101 278.027 82.6754 275.253C82.6414 275.089 82.6017 274.924 82.5564 274.765C82.4827 274.492 82.4034 274.225 82.3127 273.952L81.3946 271.218L80.8902 269.712L79.7908 266.427C79.0087 264.097 78.8784 261.648 79.3941 259.261L80.0628 256.198L81.7403 248.531C82.0803 246.985 82.1427 245.405 81.9273 243.837L81.1452 238.137H81.1396L80.8335 235.88C80.6465 234.539 80.6692 233.181 80.8959 231.845L83.9448 213.659H84.1885C84.1772 213.864 84.1772 214.08 84.1829 214.29C84.1149 216.393 84.8686 218.524 86.4497 220.257C90.7398 224.974 100.663 231.311 123.57 235.591C135.414 237.807 150.738 239.466 170.557 240.069C175.867 240.234 181.494 240.319 187.467 240.319C194.772 240.319 202.593 240.188 210.964 239.915C285.329 237.472 312.956 228.543 323.038 221.479C325.407 219.82 326.812 217.365 326.937 214.688C326.943 214.551 326.949 214.415 326.949 214.273V214.205L332.1 226.429C332.899 228.333 333.279 230.362 333.222 232.397L332.978 240.319L332.927 242.03C332.927 242.03 332.933 242.035 332.927 242.035L332.797 246.224C332.763 247.4 332.876 248.582 333.137 249.73L333.381 250.816L334.588 256.198L334.922 257.692C335.359 259.625 335.381 261.608 334.99 263.552L333.687 270.07C333.647 270.264 333.613 270.457 333.59 270.65C333.517 271.099 333.466 271.554 333.443 272.008C333.296 274.395 333.76 276.777 334.815 278.987H334.82C334.837 279.033 334.86 279.073 334.877 279.112L335.041 279.448L336.537 282.517C337.767 285.034 338.232 287.802 337.892 290.535Z" fill="#E8E3D9"/>
<path d="M82.7491 275.469L81.3267 271.229C81.661 271.07 82.1201 272.241 82.7491 275.469Z" fill="#FFAEFF"/>
<path d="M335.478 280.459L335.313 280.124C334.01 277.458 333.568 274.526 334.027 271.656C332.774 272.565 312.083 283.301 295.093 290.535C295.048 290.552 246.956 307.249 137.086 295.292C113.675 291.024 86.2344 284.38 82.9984 276.276C83.7805 279.192 83.5652 282.255 82.3694 285.074L80.5332 289.399C80.5332 289.399 126.46 300.754 153.561 302.305L153.974 302.481C153.974 302.481 257.644 312.092 295.983 294.934C295.983 294.934 295.994 294.934 296 294.928C305.6 292.809 318.72 288.66 335.319 280.624C335.376 280.567 335.427 280.51 335.483 280.453L335.478 280.459Z" fill="#DACDBF"/>
<path d="M333.573 250.742C333.573 250.742 308.247 260.619 297.479 262.637C286.711 264.654 235.146 273.952 213.327 273.344C191.502 272.736 149.565 268.695 128.03 263.142C106.495 257.59 82.1766 249.542 82.1766 249.542C82.5166 247.997 82.579 246.417 82.3636 244.854L81.5815 239.148C81.9272 239.461 95.9365 252.083 112.728 255.572C129.73 259.107 146.165 261.125 146.165 261.125C146.165 261.125 171.101 267.183 213.605 267.183C256.108 267.183 285.011 259.607 295.779 256.578C306.546 253.549 329.68 247.792 333.415 241.33L333.233 247.229C333.199 248.406 333.313 249.588 333.573 250.736V250.742Z" fill="#DACDBF"/>
<path d="M197.226 212.198C196.047 212.834 193.004 213.21 190.42 213.039C187.836 212.869 186.702 212.215 187.881 211.579C189.06 210.942 192.103 210.567 194.687 210.737C197.271 210.908 198.405 211.561 197.226 212.198Z" fill="#7BAF33"/>
<path d="M222.74 211.783C221.986 212.187 219.289 212.38 216.705 212.21C214.12 212.039 212.641 211.573 213.395 211.164C214.149 210.755 216.846 210.567 219.43 210.738C222.015 210.908 223.494 211.374 222.74 211.783Z" fill="#7BAF33"/>
<path d="M210.148 215.222C208.595 215.535 205.716 215.506 203.715 215.154C201.715 214.801 201.346 214.262 202.899 213.949C204.452 213.636 207.331 213.665 209.332 214.017C211.332 214.37 211.7 214.909 210.148 215.222Z" fill="#7BAF33"/>
<path d="M172.982 215.716C174.025 216.097 172.903 216.597 170.477 216.836C168.046 217.074 165.235 216.955 164.187 216.574C163.138 216.194 164.266 215.693 166.691 215.455C169.117 215.216 171.934 215.335 172.982 215.716Z" fill="#7BAF33"/>
<path d="M179.59 225.593C182.779 225.593 185.365 224.896 185.365 224.036C185.365 223.176 182.779 222.479 179.59 222.479C176.401 222.479 173.815 223.176 173.815 224.036C173.815 224.896 176.401 225.593 179.59 225.593Z" fill="#7BAF33"/>
<path d="M233.009 228.179C231.83 228.816 228.787 229.191 226.203 229.021C223.619 228.85 222.485 228.196 223.664 227.56C224.843 226.923 227.886 226.548 230.47 226.719C233.054 226.889 234.188 227.543 233.009 228.179Z" fill="#7BAF33"/>
<path d="M219.759 231.84C219.005 232.243 216.308 232.436 213.724 232.266C211.139 232.095 209.66 231.629 210.414 231.22C211.168 230.811 213.865 230.623 216.449 230.794C219.034 230.964 220.513 231.43 219.759 231.84Z" fill="#7BAF33"/>
<path d="M248.911 223.372C247.359 223.684 244.48 223.656 242.479 223.304C240.479 222.951 240.11 222.411 241.663 222.099C243.216 221.786 246.095 221.815 248.095 222.167C250.096 222.519 250.464 223.059 248.911 223.372Z" fill="#7BAF33"/>
<path d="M211.746 223.866C212.788 224.247 211.666 224.747 209.241 224.986C206.81 225.224 203.999 225.105 202.95 224.724C201.902 224.343 203.03 223.843 205.455 223.605C207.881 223.366 210.697 223.485 211.746 223.866Z" fill="#7BAF33"/>
<path d="M222.332 220.269C225.521 220.269 228.107 219.572 228.107 218.711C228.107 217.851 225.521 217.154 222.332 217.154C219.143 217.154 216.557 217.851 216.557 218.711C216.557 219.572 219.143 220.269 222.332 220.269Z" fill="#7BAF33"/>
<path d="M267.039 108.104C265.331 110.514 263.792 112.666 262.439 114.523C262.12 114.843 261.791 115.158 261.461 115.472C258.58 118.192 255.364 120.777 251.783 123.052C250.661 123.754 249.509 124.44 248.315 125.08C247.291 125.632 246.236 126.163 245.166 126.664C242.285 127.995 239.445 129.13 236.641 130.08C235.951 130.317 235.267 130.529 234.582 130.74C233.533 131.06 232.483 131.359 231.439 131.628C231.434 131.628 231.423 131.633 231.418 131.633C228.794 131.979 225.836 132.324 222.455 132.685C214.537 133.532 206.428 132.742 199.168 131.519C199.162 131.519 199.147 131.514 199.142 131.514C198.391 131.318 197.645 131.107 196.893 130.874C196.266 130.683 195.643 130.493 195.026 130.276C193.168 129.662 191.337 128.96 189.495 128.181C189.011 127.975 188.522 127.763 188.044 127.546C187.91 127.49 187.776 127.428 187.647 127.371C186.582 126.891 185.517 126.385 184.452 125.854C183.037 125.137 181.612 124.378 180.187 123.573C179.986 123.455 179.775 123.341 179.574 123.222C179.749 122.443 180.048 121.638 180.531 120.864C180.552 120.839 180.567 120.802 180.583 120.777C180.866 120.348 181.206 119.93 181.607 119.538C181.735 119.404 181.874 119.28 182.024 119.162C182.024 119.157 182.029 119.146 182.039 119.141C182.044 119.136 182.054 119.136 182.06 119.126C182.687 118.604 183.454 118.14 184.396 117.769C185.353 117.382 186.037 116.886 186.541 116.298C186.608 116.221 186.675 116.143 186.732 116.061L186.768 116.025C187.611 114.884 187.889 113.455 188.198 111.892H188.203C188.61 109.817 189.088 107.501 191.059 105.308C191.388 104.941 191.758 104.575 192.186 104.214C193.209 103.342 194.521 102.501 196.204 101.717C196.374 101.634 196.544 101.562 196.708 101.484C197.639 101.077 198.483 100.643 199.26 100.205C199.564 100.034 199.852 99.8538 200.135 99.6784C200.588 99.3998 201.01 99.1108 201.416 98.827C205.337 96.015 207.127 92.9604 210.245 90.9377C210.672 90.6643 211.115 90.4063 211.593 90.1741C213.147 89.4156 215.041 88.8945 217.572 88.7139C218.154 88.6726 218.761 88.6468 219.409 88.6365C220.068 88.6313 220.778 88.6416 221.529 88.6829C221.899 88.7036 222.285 88.7242 222.681 88.75C222.934 88.7706 223.181 88.7861 223.422 88.8068C225.172 88.9306 226.803 89.0441 228.326 89.1473C228.907 89.1886 229.468 89.2299 230.013 89.2711C232.401 89.4414 234.5 89.6065 236.352 89.7974C237.608 89.9213 238.745 90.0657 239.784 90.2205C243.34 90.7829 245.655 91.593 247.091 93.0842C247.487 93.4867 247.821 93.951 248.084 94.4722C248.13 94.5496 248.171 94.6218 248.207 94.7044C249.483 97.4081 252.215 98.3523 255.153 99.1624C256.419 99.5133 257.721 99.8383 258.966 100.267C259.902 100.597 260.808 100.979 261.636 101.484C262.315 101.892 262.912 102.336 263.437 102.79C263.869 103.151 264.245 103.522 264.579 103.889C265.866 105.297 266.524 106.649 266.828 107.428C266.987 107.851 267.049 108.104 267.049 108.104H267.039Z" fill="#7BAF33"/>
<path d="M218.751 97.057C217.953 98.4398 215.885 99.2654 214.135 98.8939C212.386 98.5224 211.614 97.0983 212.412 95.7155C213.209 94.3326 215.278 93.5071 217.027 93.8786C218.776 94.2501 219.548 95.6742 218.751 97.057Z" fill="#95BF5C"/>
<path d="M236.064 96.1489C235.555 97.0313 233.723 97.4492 231.969 97.0777C230.219 96.7062 229.211 95.6897 229.725 94.8022C230.235 93.9199 232.066 93.502 233.821 93.8735C235.575 94.245 236.579 95.2615 236.064 96.1489Z" fill="#95BF5C"/>
<path d="M227.518 103.646C226.468 104.333 224.513 104.271 223.155 103.502C221.796 102.733 221.549 101.562 222.599 100.876C223.649 100.189 225.604 100.251 226.962 101.02C228.321 101.784 228.568 102.96 227.518 103.646Z" fill="#95BF5C"/>
<path d="M202.296 104.72C203.006 105.55 202.245 106.644 200.593 107.16C198.946 107.676 197.032 107.418 196.328 106.587C195.623 105.757 196.379 104.663 198.031 104.147C199.682 103.631 201.591 103.889 202.296 104.72Z" fill="#95BF5C"/>
<path d="M206.783 126.246C208.945 126.246 210.698 124.729 210.698 122.856C210.698 120.984 208.945 119.466 206.783 119.466C204.62 119.466 202.867 120.984 202.867 122.856C202.867 124.729 204.62 126.246 206.783 126.246Z" fill="#95BF5C"/>
<path d="M219.424 144.181C218.627 145.564 216.559 146.39 214.809 146.018C213.06 145.647 212.288 144.223 213.085 142.84C213.883 141.457 215.951 140.632 217.701 141.003C219.45 141.375 220.222 142.799 219.424 144.181Z" fill="#7BAF33"/>
<path d="M236.738 143.273C236.229 144.156 234.397 144.573 232.643 144.202C230.893 143.83 229.885 142.814 230.399 141.927C230.914 141.039 232.74 140.626 234.495 140.998C236.244 141.369 237.253 142.386 236.738 143.273Z" fill="#7BAF33"/>
<path d="M228.192 150.77C227.142 151.457 225.187 151.395 223.829 150.626C222.471 149.857 222.224 148.686 223.273 148C224.323 147.313 226.278 147.375 227.636 148.144C228.995 148.908 229.242 150.084 228.192 150.77Z" fill="#7BAF33"/>
<path d="M202.97 151.844C203.68 152.674 202.918 153.768 201.267 154.284C199.615 154.8 197.706 154.542 197.001 153.711C196.296 152.881 197.053 151.787 198.704 151.271C200.351 150.755 202.265 151.013 202.97 151.844Z" fill="#7BAF33"/>
<path d="M207.457 173.37C209.619 173.37 211.372 171.853 211.372 169.98C211.372 168.108 209.619 166.59 207.457 166.59C205.294 166.59 203.541 168.108 203.541 169.98C203.541 171.853 205.294 173.37 207.457 173.37Z" fill="#7BAF33"/>
<path d="M243.705 179.01C242.908 180.393 240.839 181.219 239.09 180.847C237.34 180.475 236.569 179.051 237.366 177.669C238.164 176.286 240.232 175.46 241.982 175.832C243.731 176.203 244.503 177.627 243.705 179.01Z" fill="#7BAF33"/>
<path d="M234.716 186.982C234.207 187.864 232.375 188.282 230.621 187.91C228.871 187.539 227.863 186.522 228.377 185.635C228.892 184.748 230.718 184.335 232.473 184.706C234.222 185.078 235.231 186.094 234.716 186.982Z" fill="#7BAF33"/>
<path d="M254.5 168.525C253.45 169.212 251.495 169.15 250.137 168.381C248.778 167.612 248.531 166.441 249.581 165.754C250.631 165.068 252.586 165.13 253.944 165.899C255.303 166.663 255.55 167.839 254.5 168.525Z" fill="#7BAF33"/>
<path d="M229.278 169.598C229.988 170.429 229.226 171.523 227.575 172.039C225.923 172.555 224.014 172.297 223.309 171.466C222.599 170.636 223.361 169.542 225.012 169.026C226.664 168.51 228.573 168.768 229.278 169.598Z" fill="#7BAF33"/>
<path d="M236.46 161.761C238.623 161.761 240.376 160.243 240.376 158.371C240.376 156.499 238.623 154.981 236.46 154.981C234.298 154.981 232.545 156.499 232.545 158.371C232.545 160.243 234.298 161.761 236.46 161.761Z" fill="#7BAF33"/>
<path d="M410.638 44.443C406.043 47.544 320.009 65.4381 297.766 69.3079C289.817 70.6907 284.872 81.2012 282.536 85.2671C282.516 85.2464 282.495 85.231 282.475 85.2103C283.401 82.6098 283.977 78.8586 283.977 74.6999C283.977 72.4605 283.807 70.3399 283.514 68.4565C283.061 68.5391 282.552 68.6268 282.001 68.7197C280.73 68.9312 279.223 69.1634 277.525 69.4111C277.026 69.4833 276.511 69.5607 275.981 69.6381C274.15 69.8961 272.127 70.1747 269.961 70.4689C269.447 70.5359 268.917 70.6082 268.377 70.6752C267.533 70.7888 266.668 70.9023 265.794 71.0158C265.295 71.0829 264.78 71.1448 264.265 71.2119C263.772 71.2789 263.267 71.3409 262.763 71.4028C262.264 71.4698 261.755 71.5369 261.245 71.5988C259.949 71.764 258.631 71.9291 257.294 72.0942C256.779 72.1613 256.254 72.2232 255.735 72.2902C253.99 72.507 252.215 72.7237 250.43 72.9455C249.895 73.0075 249.36 73.0745 248.814 73.1416C247.744 73.2706 246.669 73.3996 245.593 73.5286L244.045 73.7143C242.702 73.8795 241.359 74.0394 240.031 74.1942C239.517 74.2561 239.002 74.318 238.498 74.38C237.634 74.4832 236.774 74.5812 235.931 74.6844C235.39 74.7463 234.855 74.8134 234.32 74.8753C233.059 75.0249 231.819 75.1694 230.595 75.3139C230.075 75.3758 229.556 75.4326 229.046 75.4945C227.636 75.6596 226.263 75.8195 224.93 75.9795C224.369 76.0414 223.819 76.1085 223.273 76.1704C221.534 76.3768 219.877 76.5677 218.318 76.7483C217.799 76.8102 217.289 76.867 216.795 76.9237C215.416 77.0888 214.13 77.2385 212.952 77.3778C212.329 77.45 211.737 77.5171 211.182 77.5842C209.638 77.7648 208.347 77.9196 207.364 78.0382C207.168 78.064 206.973 78.0847 206.767 78.1105C206.278 78.1724 205.769 78.2343 205.249 78.2962C203.881 78.4665 202.399 78.6471 200.835 78.8432C200.315 78.9102 199.79 78.9773 199.25 79.0444C197.207 79.3024 195.051 79.5759 192.87 79.8545C192.396 79.9112 191.918 79.9732 191.445 80.0351C191.414 80.0402 191.383 80.0402 191.352 80.0505C190.75 80.1228 190.143 80.2002 189.536 80.2776C186.654 80.6491 183.788 81.0206 181.118 81.3611C180.603 81.4282 180.094 81.4953 179.6 81.5572C179.518 81.5675 179.441 81.5778 179.358 81.5882C178.741 81.6707 178.129 81.7481 177.542 81.8255C175.283 82.1196 173.261 82.3828 171.61 82.5995C171.059 82.6717 170.555 82.7336 170.092 82.8007C169.577 82.8626 169.114 82.9245 168.718 82.9761C167.632 83.1155 167.01 83.198 167.01 83.198C167.01 83.198 166.902 83.229 166.706 83.2754C166.161 83.425 164.91 83.7398 163.295 84.0648C162.827 84.1629 162.317 84.2609 161.787 84.3486C159.626 84.7356 157.09 85.0607 154.774 85.0297C154.208 85.0297 153.653 85.0039 153.117 84.9472C150.298 84.6789 148.101 83.6985 147.854 81.3818C146.974 73.379 200.968 71.0416 208.63 70.5205C216.224 70.0096 283.853 61.5631 285.042 61.4135H285.057C286.622 60.9336 288.196 60.5105 289.791 60.1287C317.493 53.6532 409.048 32.3485 414.445 34.1028C420.81 36.1718 415.238 41.3419 410.643 44.443H410.638Z" fill="#B1B6C0"/>
<path d="M283.977 74.6999C283.977 72.4605 283.807 70.3347 283.514 68.4565C283.061 68.5391 282.557 68.6268 282.001 68.7145C282.284 70.5463 282.449 72.5895 282.449 74.6999C282.449 78.2446 282.011 81.5778 281.25 84.0494C279.727 82.5943 277.839 80.7007 275.997 78.6626C276.902 75.3242 277.422 72.2335 277.535 69.4163C277.031 69.4833 276.521 69.5659 275.991 69.6433C275.863 72.0684 275.431 74.6276 274.762 77.2591C272.817 74.994 271.047 72.6153 269.966 70.4792C269.452 70.5462 268.922 70.6133 268.387 70.6856C269.637 73.3583 271.896 76.3252 274.273 79.0496C273.681 81.0928 272.966 83.1671 272.148 85.2464C269.735 82.7543 267.09 79.7668 265.222 76.9598C265.588 74.9063 265.788 72.9662 265.809 71.1345C265.809 71.0983 265.809 71.0674 265.794 71.0261C265.294 71.0932 264.78 71.1551 264.271 71.2222C264.255 72.4192 264.157 73.6421 263.988 74.8959C263.319 73.6473 262.881 72.4708 262.773 71.4286C262.773 71.4286 262.773 71.4234 262.768 71.4131C262.269 71.4802 261.765 71.5472 261.255 71.6092C261.436 73.2758 262.321 75.221 263.597 77.2385C262.964 80.4943 261.924 83.8843 260.623 87.2845C258.667 85.0916 256.769 82.7955 255.066 80.453C256.342 77.1817 257.088 74.3954 257.304 72.1097C256.784 72.1716 256.265 72.2335 255.745 72.3006C255.524 74.2355 254.906 76.48 253.99 78.9464C252.606 76.9444 251.387 74.9372 250.435 72.9559C249.895 73.0229 249.365 73.0849 248.825 73.1519C249.915 75.51 251.413 78.0228 253.311 80.6852C252.179 83.456 250.723 86.4693 249.041 89.5858C246.998 87.0782 245.099 84.4931 243.545 81.9184C244.801 78.6058 245.49 75.8144 245.604 73.5441L244.05 73.7298C243.926 75.5925 243.386 77.7751 242.547 80.1847C241.436 78.1518 240.566 76.1394 240.036 74.2149C239.522 74.2768 239.012 74.3387 238.503 74.4006C238.508 74.4367 238.519 74.478 238.524 74.5141C239.151 76.8412 240.258 79.3695 241.842 82.0732C240.891 84.4828 239.676 87.0885 238.272 89.7819C236.435 87.2846 234.773 84.7201 233.42 82.1506C234.613 79.3437 235.452 76.8515 235.93 74.6999C235.39 74.7618 234.86 74.8289 234.325 74.8908C233.908 76.5574 233.301 78.3788 232.509 80.3343C231.722 78.6523 231.073 76.9805 230.6 75.3294C230.08 75.3913 229.561 75.4429 229.046 75.5048C229.638 77.6564 230.523 79.9009 231.711 82.2331C230.749 84.4312 229.602 86.7634 228.321 89.1524C227.652 90.4114 226.947 91.6858 226.211 92.9706C225.213 91.5981 224.276 90.2101 223.417 88.8118C222.651 87.5683 221.94 86.3197 221.313 85.071C222.985 81.7326 224.194 78.7039 224.935 76.0001C224.374 76.062 223.824 76.1291 223.283 76.191C222.625 78.4201 221.652 80.809 220.459 83.2857C219.476 81.0877 218.74 78.9102 218.329 76.7638C217.809 76.8309 217.305 76.8876 216.811 76.9392C216.806 76.9598 216.811 76.9805 216.816 77.0011C217.294 79.5552 218.21 82.2383 219.569 85.0452C218.946 86.2526 218.282 87.4755 217.572 88.7138C216.533 90.53 215.406 92.3566 214.228 94.1935C214.181 94.276 214.125 94.3586 214.079 94.4308C214.053 94.3896 214.027 94.3431 213.996 94.3018C213.142 92.9087 212.339 91.531 211.593 90.1792C210.642 88.4661 209.793 86.7995 209.077 85.2155C210.662 82.4137 211.959 79.8132 212.962 77.4036C212.334 77.4707 211.743 77.5377 211.187 77.61C210.369 79.4881 209.401 81.4282 208.316 83.3992C207.549 81.4798 207.014 79.71 206.772 78.1311C206.278 78.193 205.774 78.2601 205.254 78.322C205.543 80.2466 206.247 82.5066 207.359 85.0968C205.188 88.8789 202.646 92.7591 199.986 96.5309C198.334 93.8117 196.878 91.1647 195.71 88.688C198.576 84.555 200.593 81.0051 200.835 78.9309C200.84 78.9102 200.84 78.8896 200.84 78.869C200.32 78.936 199.795 79.0031 199.255 79.065C198.993 80.3963 197.907 82.7852 194.979 87.0782C193.822 84.3951 193.07 81.9493 192.88 79.9061V79.8803C192.402 79.9422 191.928 80.0041 191.45 80.066C191.424 80.0712 191.388 80.0712 191.362 80.0815C190.755 80.1589 190.148 80.2311 189.541 80.3085C188.203 82.4808 186.238 85.3135 183.387 89.0182C182.137 86.1855 181.329 83.6108 181.133 81.4643C181.133 81.4385 181.128 81.4179 181.118 81.3973C180.603 81.4643 180.099 81.5314 179.6 81.5933V81.6088C179.816 83.9771 180.727 86.9079 182.327 90.4011C180.979 92.1296 179.446 94.049 177.712 96.1542C177.146 96.8456 176.57 97.5319 176.004 98.2078C174.918 95.8601 173.987 93.5176 173.256 91.2473C175.793 87.6819 178.129 84.1422 179.358 81.6294C178.736 81.712 178.123 81.7842 177.537 81.8668C176.451 83.843 174.717 86.4745 172.685 89.3536C172.057 87.0317 171.671 84.7975 171.615 82.713C171.615 82.6924 171.61 82.6666 171.599 82.6356C171.054 82.713 170.544 82.7698 170.087 82.842C170.159 85.2826 170.647 87.9914 171.538 90.9635C170.236 92.7745 168.852 94.6372 167.473 96.4689C166.325 94.0077 165.327 91.5517 164.571 89.173C166.089 87.0369 167.534 84.9111 168.713 83.0123C167.627 83.1567 167.005 83.2393 167.005 83.2393C167.005 83.2393 166.896 83.2651 166.701 83.3167C165.903 84.5447 164.988 85.8914 164.005 87.2845C163.717 86.2062 163.47 85.1484 163.295 84.1113C162.821 84.2093 162.317 84.3074 161.782 84.4002C162.024 85.8295 162.384 87.3258 162.852 88.8996C161.515 90.7622 160.084 92.692 158.664 94.5702C156.776 90.5146 155.469 87.0575 154.774 85.0813C154.208 85.0813 153.647 85.0555 153.112 84.9988C153.786 86.9595 155.299 91.0563 157.609 95.9478C157.851 96.4586 158.103 96.9798 158.366 97.5061C159.359 99.5339 160.491 101.665 161.746 103.822C162.014 104.271 162.286 104.73 162.564 105.189C163.562 106.814 164.627 108.445 165.775 110.039C166.078 110.467 166.387 110.891 166.706 111.319C168.034 113.083 169.454 114.776 170.961 116.36C171.311 116.737 171.676 117.103 172.042 117.459C174.131 119.523 176.384 121.339 178.808 122.794C178.957 122.892 179.111 122.98 179.261 123.068C179.363 123.124 179.456 123.181 179.559 123.238C179.76 123.351 179.971 123.47 180.171 123.589C181.596 124.394 183.017 125.152 184.437 125.869C185.502 126.401 186.567 126.906 187.632 127.386C187.761 127.448 187.894 127.51 188.028 127.562C188.507 127.778 188.99 127.99 189.479 128.196C191.321 128.976 193.153 129.677 195.01 130.291C195.633 130.508 196.25 130.699 196.878 130.89C197.629 131.122 198.375 131.334 199.126 131.53C199.132 131.53 199.147 131.535 199.152 131.535C199.523 131.638 199.893 131.731 200.264 131.829C200.608 131.917 200.958 131.999 201.303 132.077C203.968 132.706 206.644 133.155 209.335 133.423C209.895 133.485 210.446 133.526 211.007 133.573C212.468 133.676 213.94 133.728 215.411 133.728C218.853 133.728 222.316 133.434 225.82 132.84C226.01 132.814 226.196 132.778 226.381 132.742H226.386C228.043 132.443 229.72 132.082 231.397 131.648C231.403 131.648 231.413 131.643 231.418 131.643C232.463 131.375 233.507 131.076 234.562 130.756C235.241 130.544 235.93 130.333 236.62 130.095C239.424 129.146 242.264 128.011 245.146 126.679C246.216 126.179 247.271 125.647 248.295 125.095C249.488 124.456 250.641 123.769 251.762 123.068C255.344 120.792 258.559 118.207 261.441 115.488C261.77 115.173 262.099 114.858 262.418 114.538C262.465 114.497 262.506 114.451 262.552 114.409C264.137 112.841 265.624 111.236 266.992 109.621C267.332 109.234 267.661 108.827 267.985 108.44C269.858 106.159 271.536 103.868 273.018 101.67C273.316 101.231 273.599 100.798 273.882 100.375C277.139 95.3906 279.413 90.9583 280.89 88.1308C281.214 87.4961 281.481 86.9904 281.692 86.6344C281.78 86.4693 281.862 86.3403 281.929 86.2371C282.037 86.0823 282.161 85.8966 282.284 85.685C282.356 85.556 282.433 85.427 282.516 85.2826C282.495 85.2619 282.475 85.2464 282.454 85.2258C283.38 82.6253 283.956 78.8741 283.956 74.7153L283.977 74.6999ZM264.801 79.0134C266.776 81.7584 269.272 84.5189 271.51 86.815C270.404 89.4981 269.153 92.176 267.836 94.7714C265.912 92.9139 263.844 90.819 261.791 88.5848C263.118 85.1845 264.132 81.9958 264.801 79.0186V79.0134ZM261.147 90.1689C261.76 90.8293 262.398 91.5001 263.051 92.1812C264.435 93.6104 265.804 94.9675 267.1 96.2058C265.902 98.4864 264.667 100.695 263.437 102.79C263.221 103.151 263.01 103.512 262.794 103.873C261.636 102.815 260.34 101.608 258.961 100.267C258.395 99.7196 257.813 99.1469 257.222 98.5587C258.734 95.6331 260.036 92.8365 261.147 90.1637V90.1689ZM261.981 105.235C261.703 105.679 261.436 106.118 261.163 106.546C260.237 108.042 259.316 109.487 258.395 110.885C256.769 109.487 254.953 107.867 253.059 106.082C254.278 103.997 255.416 101.974 256.46 99.9982C258.462 101.985 260.36 103.77 261.976 105.235H261.981ZM254.371 82.1299C255.982 84.2867 257.849 86.5415 259.969 88.8892C258.811 91.7581 257.479 94.6217 256.064 97.3925C254.088 95.3648 252.045 93.1564 250.101 90.8551C251.829 87.6664 253.26 84.7563 254.371 82.1248V82.1299ZM249.308 92.3102C250.841 94.1058 252.524 95.9581 254.366 97.8621C254.69 98.1975 255.009 98.5225 255.318 98.8476C255.266 98.9508 255.21 99.0592 255.148 99.1623C254.088 101.175 253.002 103.125 251.912 104.988C249.854 103.022 247.723 100.875 245.624 98.6103C246.494 97.1913 247.312 95.8085 248.078 94.4721C248.505 93.7394 248.907 93.0171 249.308 92.3153V92.3102ZM223.427 128.109C222.368 126.86 220.85 125.033 219.044 122.825C221.056 120.044 223.278 116.891 225.568 113.543C227.122 115.565 228.624 117.469 230.008 119.198C227.322 122.933 225.002 126.04 223.433 128.109H223.427ZM224.384 131.509C223.803 131.592 223.211 131.664 222.584 131.741C222.743 131.535 223.047 131.143 223.494 130.56C223.608 130.689 223.988 131.091 224.384 131.509ZM221.251 131.875C219.306 132.066 217.372 132.164 215.432 132.164C214.783 132.164 214.145 132.149 213.487 132.128C213.507 131.922 213.446 131.721 213.296 131.555C213.276 131.53 213.147 131.38 212.905 131.096C214.207 129.383 216.008 126.979 218.097 124.105C219.918 126.344 221.441 128.155 222.46 129.362C221.724 130.327 221.292 130.879 221.261 130.926C221.03 131.215 221.04 131.602 221.246 131.875H221.251ZM200.372 115.565C202.013 113.558 203.742 111.386 205.496 109.116C205.676 108.878 205.862 108.636 206.036 108.398C206.731 109.374 207.451 110.359 208.187 111.37C209.309 112.872 210.415 114.348 211.501 115.766C210.497 117.196 209.525 118.553 208.594 119.838C207.77 120.978 206.983 122.056 206.247 123.062C205.558 122.216 204.843 121.313 204.107 120.379C202.908 118.868 201.653 117.253 200.372 115.565ZM206.299 125.591C206.479 125.818 206.664 126.034 206.834 126.246C208.573 128.361 209.993 130.049 210.935 131.148C210.714 131.442 210.508 131.71 210.333 131.932C207.693 131.715 205.064 131.313 202.419 130.725C203.181 129.739 204.375 128.171 205.882 126.148C206.016 125.962 206.16 125.782 206.299 125.586V125.591ZM208.537 125.885C208.125 125.384 207.693 124.858 207.24 124.306C208.048 123.207 208.928 122.025 209.849 120.746C210.693 119.569 211.578 118.336 212.489 117.046C214.115 119.156 215.674 121.117 217.089 122.866C215.01 125.735 213.209 128.145 211.887 129.899C211.063 128.924 209.911 127.557 208.532 125.885H208.537ZM213.42 115.73C215.133 113.285 216.919 110.679 218.709 107.98C219.147 107.33 219.563 106.685 219.985 106.045C220.634 106.948 221.292 107.857 221.982 108.79C222.851 109.957 223.71 111.112 224.565 112.237C222.28 115.596 220.052 118.764 218.03 121.561C216.615 119.796 215.051 117.841 213.425 115.73H213.42ZM226.473 112.18C226.952 111.479 227.43 110.772 227.904 110.049C229.535 107.599 231.048 105.241 232.457 102.996C233.687 104.343 234.994 105.7 236.368 107.083C236.774 107.49 237.186 107.898 237.587 108.29C235.287 111.711 233.018 114.972 230.934 117.887C229.54 116.138 228.027 114.229 226.468 112.186L226.473 112.18ZM233.312 101.613C235.267 98.4193 236.996 95.437 238.493 92.6714C240.052 94.6682 241.775 96.7166 243.684 98.8115C241.992 101.562 240.222 104.301 238.462 106.959C236.749 105.272 235.015 103.481 233.306 101.613H233.312ZM239.656 107.98C241.503 105.194 243.211 102.532 244.78 99.9982C245.835 101.139 246.952 102.294 248.114 103.46C249.118 104.472 250.116 105.442 251.094 106.371C250.533 107.32 249.972 108.244 249.421 109.131C248.351 110.865 247.271 112.536 246.216 114.136C244.214 112.387 241.945 110.338 239.599 108.063C239.614 108.037 239.635 108.006 239.651 107.98H239.656ZM242.825 83.7037C244.302 86.0256 246.108 88.4713 248.233 91.046C247.862 91.722 247.476 92.3979 247.085 93.079C246.267 94.5134 245.413 95.9633 244.533 97.4183C242.717 95.3957 240.947 93.3008 239.301 91.1492C239.46 90.8345 239.625 90.53 239.779 90.2205C240.988 87.8779 241.997 85.7057 242.82 83.7037H242.825ZM230.008 89.2711C230.991 87.3929 231.871 85.6179 232.627 83.9513C233.682 85.845 234.922 87.7902 236.352 89.7974C236.707 90.303 237.083 90.8138 237.464 91.3247C236.877 92.4237 236.265 93.5382 235.622 94.663C235.159 95.4834 234.675 96.309 234.191 97.1346C233.548 98.2284 232.895 99.312 232.231 100.406C230.482 98.4451 228.799 96.4122 227.225 94.3276C228.238 92.563 229.17 90.8809 230.008 89.2659V89.2711ZM226.365 95.8033C227.863 97.7589 229.535 99.7557 231.361 101.804C229.447 104.89 227.451 107.949 225.48 110.88C223.968 108.878 222.424 106.788 220.896 104.652C221.333 103.971 221.766 103.306 222.182 102.645C222.64 101.913 223.088 101.206 223.525 100.499C224.529 98.8786 225.475 97.3151 226.365 95.7982V95.8033ZM219.404 88.6364C219.769 87.9966 220.104 87.3671 220.438 86.7531C220.778 87.3877 221.138 88.0379 221.524 88.688C222.625 90.561 223.896 92.4856 225.357 94.4566C223.649 97.3977 221.807 100.37 219.929 103.285C218.848 101.742 217.783 100.189 216.764 98.6412C216.157 97.7176 215.566 96.8043 214.984 95.8911C215.447 95.179 215.895 94.4824 216.327 93.7962C217.459 92.0161 218.488 90.2927 219.409 88.6416L219.404 88.6364ZM214.043 97.3048C214.392 97.8569 214.758 98.409 215.123 98.9766C216.317 100.793 217.618 102.697 219.023 104.688C216.811 108.089 214.562 111.396 212.437 114.44C210.657 112.113 208.82 109.647 207.019 107.119C209.283 104.126 211.352 101.273 213.204 98.5483C213.487 98.1304 213.765 97.7176 214.043 97.3048ZM208.146 86.8357C208.753 88.1256 209.453 89.4981 210.245 90.9428C211.002 92.3102 211.835 93.7446 212.756 95.2461C212.88 95.4525 213.008 95.6537 213.132 95.8601C212.813 96.3451 212.489 96.825 212.159 97.2997C210.204 100.194 208.141 103.053 206.073 105.787C204.462 103.481 202.877 101.144 201.411 98.827C201.231 98.538 201.046 98.2542 200.866 97.9653C203.701 93.9923 206.129 90.2772 208.146 86.8305V86.8357ZM199.903 99.3275C199.975 99.441 200.053 99.5597 200.135 99.6835C201.596 102.005 203.258 104.472 205.1 107.088C203.15 109.637 201.221 112.067 199.399 114.301C197.645 111.964 195.844 109.508 194.099 107.016C194.496 106.515 194.887 106.02 195.278 105.504C196.672 103.693 198.005 101.933 199.26 100.21C199.481 99.9157 199.692 99.6216 199.908 99.3275H199.903ZM192.175 106.948C190.807 108.682 189.469 110.344 188.203 111.886H188.198C187.308 112.97 186.448 113.997 185.636 114.962C184.051 112.593 182.43 110.049 180.892 107.428C182.945 105.024 185.183 102.361 187.38 99.637C188.486 101.438 189.716 103.331 191.059 105.313C191.424 105.855 191.794 106.396 192.18 106.954L192.175 106.948ZM183.099 113.94C183.598 114.704 184.092 115.457 184.591 116.195C183.665 117.268 182.816 118.248 182.06 119.126C182.054 119.131 182.044 119.131 182.039 119.141C182.034 119.146 182.024 119.156 182.024 119.162C181.895 119.311 181.766 119.456 181.648 119.59C181.633 119.569 181.622 119.554 181.607 119.533C180.053 117.418 178.334 114.982 176.595 112.361C177.568 111.257 178.653 110.013 179.811 108.667C180.825 110.375 181.915 112.129 183.094 113.94H183.099ZM186.536 116.293C186.603 116.215 186.665 116.138 186.731 116.061L186.767 116.024C188.692 113.744 190.853 111.128 193.106 108.28C194.156 109.781 195.273 111.324 196.446 112.923C197.094 113.811 197.747 114.678 198.391 115.534C195.782 118.708 193.441 121.427 191.661 123.449C190.127 121.406 188.368 118.981 186.546 116.298C186.541 116.298 186.541 116.293 186.541 116.293H186.536ZM199.008 97.893C198.082 99.183 197.145 100.463 196.204 101.716C195.19 103.063 194.182 104.389 193.173 105.669C192.844 105.184 192.504 104.699 192.18 104.214C190.858 102.253 189.592 100.287 188.409 98.3523C190.642 95.566 192.813 92.7539 194.691 90.1224C195.839 92.4804 197.274 95.0758 199.008 97.8879V97.893ZM191.372 80.1899C191.604 82.4705 192.463 85.2568 193.955 88.5487C192.324 90.8448 190.23 93.6104 187.56 96.9488C186.263 94.7559 185.1 92.6094 184.118 90.5816C187.009 86.8253 189.613 83.1825 191.367 80.1847L191.372 80.1899ZM183.073 91.9335C184.025 93.8787 185.178 95.9788 186.526 98.2284C186.001 98.8837 185.445 99.5648 184.864 100.261C183.233 102.248 181.602 104.188 180.053 105.994C178.88 103.93 177.753 101.835 176.734 99.7299C178.833 97.2223 181.005 94.5598 183.068 91.9283L183.073 91.9335ZM178.988 107.253C177.815 108.62 176.708 109.89 175.715 111.014C174.501 109.141 173.282 107.191 172.098 105.184C173.21 103.889 174.414 102.501 175.649 101.041C176.626 103.027 177.738 105.106 178.988 107.258V107.253ZM172.145 92.7849C172.875 94.9107 173.791 97.1552 174.908 99.5184C173.647 101.01 172.428 102.434 171.28 103.765C170.21 101.871 169.176 99.9518 168.229 98.0272C169.479 96.3967 170.817 94.6063 172.139 92.7797L172.145 92.7849ZM160.835 98.9302C160.341 97.9808 159.873 97.0365 159.426 96.1232C160.707 94.4515 162.096 92.5991 163.465 90.7158C164.231 92.9603 165.219 95.3441 166.418 97.8621C165.178 99.4926 163.943 101.066 162.801 102.511C162.086 101.283 161.432 100.081 160.83 98.9302H160.835ZM163.64 103.93C164.463 102.898 165.718 101.309 167.179 99.41C168.085 101.211 169.088 103.084 170.2 105.008C168.944 106.458 167.797 107.753 166.84 108.832C165.682 107.201 164.607 105.545 163.634 103.93H163.64ZM172.016 115.189C170.498 113.584 169.083 111.871 167.771 110.106C168.697 109.069 169.804 107.826 171.023 106.417C172.067 108.182 173.194 109.998 174.409 111.866C174.491 111.979 174.568 112.103 174.645 112.222C173.56 113.46 172.654 114.466 172.016 115.183V115.189ZM180.531 120.859C180.295 121.127 180.073 121.37 179.878 121.602C177.444 120.173 175.191 118.346 173.107 116.288C173.699 115.617 174.537 114.698 175.535 113.563C177.295 116.205 179.034 118.635 180.588 120.766C180.593 120.771 180.603 120.771 180.603 120.782C180.583 120.808 180.557 120.839 180.537 120.859H180.531ZM181.247 122.381C181.334 122.273 181.437 122.165 181.545 122.051C181.766 122.345 181.982 122.624 182.193 122.902C181.885 122.732 181.566 122.562 181.247 122.376V122.381ZM189.098 126.318C187.884 125.787 186.665 125.214 185.435 124.605C184.617 123.558 183.655 122.299 182.59 120.864C183.438 119.899 184.416 118.78 185.491 117.526C187.328 120.188 189.078 122.614 190.611 124.636C190.004 125.328 189.5 125.895 189.098 126.323V126.318ZM190.596 126.958C190.879 126.648 191.203 126.287 191.558 125.885C192.149 126.659 192.7 127.361 193.189 127.975C192.324 127.66 191.46 127.319 190.59 126.958H190.596ZM195.931 128.945C195.195 128.036 194.027 126.576 192.607 124.708C194.372 122.701 196.729 119.982 199.353 116.793C200.655 118.496 201.92 120.126 203.129 121.643C203.881 122.593 204.606 123.501 205.296 124.352C204.987 124.76 204.694 125.157 204.411 125.539C202.697 127.835 201.416 129.507 200.783 130.333C199.173 129.935 197.552 129.471 195.931 128.939V128.945ZM235.72 128.754C232.689 129.765 229.797 130.591 226.257 131.215C225.733 130.668 224.719 129.615 224.441 129.301C225.985 127.278 228.305 124.187 231.006 120.436C233.574 123.609 235.663 126.076 236.779 127.386C236.368 127.918 236.018 128.377 235.72 128.754ZM231.953 119.141C234.073 116.179 236.383 112.867 238.719 109.384C241.076 111.649 243.355 113.692 245.357 115.436C242.408 119.843 239.692 123.558 237.742 126.138C236.548 124.739 234.474 122.273 231.953 119.146V119.141ZM250.728 121.886C248.773 123.114 246.71 124.244 244.523 125.255C242.65 126.122 240.793 126.906 238.956 127.613C238.93 127.546 238.889 127.479 238.832 127.422C238.827 127.407 238.807 127.381 238.766 127.34C240.716 124.75 243.494 120.962 246.525 116.448C248.722 118.321 250.522 119.76 251.644 120.632C251.325 121.076 251.022 121.484 250.728 121.891V121.886ZM247.389 115.142C248.48 113.496 249.596 111.763 250.713 109.967C251.238 109.121 251.747 108.28 252.246 107.449C254.134 109.214 255.93 110.808 257.541 112.196C255.765 114.858 254.073 117.289 252.555 119.378C251.423 118.496 249.607 117.036 247.389 115.142ZM254.5 119.311C255.807 117.474 257.237 115.421 258.714 113.197C259.259 113.661 259.774 114.09 260.257 114.492C258.472 116.174 256.553 117.789 254.495 119.306L254.5 119.311ZM261.394 113.414C260.828 112.949 260.221 112.444 259.578 111.897C260.53 110.447 261.492 108.935 262.459 107.382C262.691 107.005 262.912 106.639 263.139 106.278C264.245 107.263 265.176 108.058 265.845 108.625C264.471 110.235 262.984 111.85 261.394 113.414ZM266.838 107.444C266.838 107.444 266.823 107.428 266.817 107.423C266.118 106.83 265.13 105.984 263.957 104.926C264.168 104.58 264.373 104.229 264.569 103.889C265.907 101.644 267.131 99.4513 268.253 97.3203C269.591 98.5793 270.815 99.699 271.88 100.638C270.399 102.852 268.716 105.148 266.833 107.449L266.838 107.444ZM272.745 99.3326C271.654 98.3574 270.378 97.2016 269.009 95.8911C270.419 93.1615 271.649 90.5352 272.714 88.0172C274.793 90.0657 276.485 91.5826 277.067 92.0883C275.873 94.2451 274.443 96.7166 272.75 99.3326H272.745ZM279.552 87.3877L279.32 87.8263C278.873 88.6725 278.374 89.6374 277.818 90.69C277.051 90.0089 275.348 88.4558 273.352 86.4641C274.191 84.3693 274.906 82.3467 275.482 80.4066C277.309 82.3931 279.125 84.1835 280.555 85.5405C280.334 85.9017 280.031 86.4693 279.552 87.3929V87.3877Z" fill="#B1B6C0"/>
</g>
</g>
<defs>
<clipPath id="clip0_145_7468">
<rect width="417" height="417" fill="white"/>
</clipPath>
<clipPath id="clip1_145_7468">
<rect width="417" height="417" fill="white"/>
</clipPath>
</defs>
</svg>
