<svg xmlns="http://www.w3.org/2000/svg" width="134" height="158" viewBox="0 0 134 158" fill="none">
  <path d="M126.404 82.6926C126.407 83.677 125.915 84.5903 125.055 85.1993C120.054 88.7257 106.134 93.1951 68.2078 94.4484C62.9728 94.6228 55.3325 94.7499 47.1157 94.4691C39.2735 94.2031 30.9045 93.5646 23.6007 92.2433C15.4425 90.7653 8.6186 88.4331 5.34418 84.8091C4.7648 84.1676 4.50729 83.3754 4.57167 82.6039C4.58045 82.5094 4.59215 82.4148 4.60971 82.3231C4.70335 81.8029 4.94622 81.3033 5.33833 80.8777C7.79342 78.2144 13.8565 76.1038 24.1128 74.4573C28.8972 73.6918 34.5974 73.0237 41.2662 72.4473C48.8773 71.7911 57.7554 71.2501 67.9883 70.8156C83.8922 70.1387 97.4288 71.055 108.218 73.5321C117.172 75.5895 122.304 78.2883 125.035 80.1919C125.307 80.3811 125.544 80.6028 125.737 80.8481C126.085 81.2767 126.307 81.7822 126.375 82.3231C126.395 82.4443 126.404 82.5685 126.404 82.6926Z" fill="#C9BAAA"/>
  <path d="M126.111 78.9482C119.958 74.6621 104.215 67.7008 67.9063 69.2409C57.4832 69.6842 48.4793 70.2311 40.7746 70.905C34.3077 71.4696 28.7567 72.1229 24.0485 72.8737C13.1132 74.6177 6.72535 76.9027 3.98643 79.8764C3.32803 80.5887 2.9447 81.443 2.83936 82.3239H4.60971C4.70335 81.8036 4.94622 81.3041 5.33833 80.8784C7.79341 78.2151 13.8565 76.1046 24.1128 74.4581C28.8972 73.6925 34.5974 73.0245 41.2662 72.4481C48.8773 71.7918 57.7554 71.2509 67.9883 70.8164C83.8922 70.1395 97.4288 71.0558 108.218 73.5329C117.172 75.5902 122.304 78.289 125.035 80.1926C125.307 80.3818 125.544 80.6035 125.737 80.8489C126.085 81.2775 126.307 81.7829 126.375 82.3239H128.142C128.025 80.9907 127.299 79.7758 126.111 78.9482Z" fill="#DACDBF"/>
  <path d="M126.697 89.0724L115.873 100.32L64.8455 104.068L11.2931 94.6326L6.30981 93.7547L7.00332 89.8439C7.00332 89.8439 5.44366 89.2468 7.00332 87.2841C8.56299 85.3213 14.4944 82.0934 23.4339 80.8963C32.3735 79.6991 56.1869 77.5117 65.7731 77.5117C73.5949 77.5117 95.2253 79.0961 108.042 81.1535H108.051C110.939 81.6175 113.382 82.1053 115.115 82.6048C124.531 85.3184 126.076 87.1925 126.386 88.1324L126.697 89.0695V89.0724Z" fill="#7BAF33"/>
  <path d="M92.071 106.228C91.8867 106.228 91.7052 106.133 91.6087 105.965L86.0138 96.352C80.4657 84.0346 82.6721 70.0973 85.5017 60.5791C88.5566 50.2924 92.9811 42.7961 93.025 42.7222C93.1713 42.4739 93.4961 42.3912 93.7507 42.5331C94.0052 42.6779 94.0901 42.9942 93.9438 43.2425C93.8999 43.3164 89.5311 50.721 86.5142 60.8925C83.7431 70.2362 81.5718 83.8927 86.9765 95.9116L92.5334 105.453C92.6797 105.702 92.589 106.018 92.3344 106.16C92.2524 106.207 92.1617 106.228 92.071 106.228Z" fill="#9D7942"/>
  <path d="M80.1146 102.338C79.8746 102.338 79.6552 102.178 79.5966 101.939C79.5293 101.661 79.7049 101.38 79.9917 101.315C90.9679 98.764 98.8188 85.9293 105.318 74.0996C111.709 62.4679 110.05 45.3116 110.032 45.1402C110.003 44.8564 110.216 44.6022 110.509 44.5726C110.799 44.546 111.062 44.7529 111.091 45.0367C111.109 45.2111 112.8 62.6748 106.257 74.5903C99.6499 86.618 91.6467 99.6715 80.2404 102.323C80.1994 102.332 80.1585 102.338 80.1175 102.338H80.1146Z" fill="#9D7942"/>
  <path d="M90.5669 107.744C90.3357 107.744 90.1221 107.594 90.0548 107.366C86.5024 94.9391 83.3216 76.6152 88.3342 59.8816C91.3482 49.8225 95.8458 45.1757 96.036 44.9836C96.2408 44.7767 96.5744 44.7707 96.788 44.9688C96.9987 45.1668 97.0075 45.4949 96.8026 45.7019C96.7587 45.7492 92.267 50.4048 89.332 60.2481C84.419 76.7305 87.5705 94.815 91.079 107.088C91.158 107.363 90.9941 107.65 90.7103 107.727C90.6635 107.738 90.6137 107.747 90.5669 107.747V107.744Z" fill="#9D7942"/>
  <path d="M82.002 104.043C81.8761 104.043 81.7474 103.999 81.6479 103.91C81.4284 103.718 81.4109 103.39 81.6069 103.177C96.4779 87.0201 102.307 72.6423 104.581 63.4257C107.041 53.4464 105.976 47.2034 105.965 47.1413C105.915 46.8605 106.108 46.5915 106.398 46.5413C106.687 46.491 106.962 46.6802 107.012 46.961C107.059 47.2212 108.127 53.4287 105.631 63.6001C103.337 72.9497 97.4435 87.5226 82.397 103.872C82.2917 103.987 82.1483 104.043 82.002 104.043Z" fill="#9D7942"/>
  <path d="M86.2537 107.065C86.2332 107.065 86.2098 107.065 86.1893 107.062C85.8967 107.026 85.6918 106.769 85.7269 106.482C92.2816 54.4872 98.4208 46.2962 98.6783 45.9711C98.8597 45.7464 99.1933 45.705 99.4245 45.8795C99.6557 46.0539 99.6966 46.379 99.5181 46.6037C99.5035 46.6243 97.935 48.7142 95.5853 57.1771C93.4346 64.9246 90.1631 79.7901 86.7804 106.606C86.7482 106.87 86.517 107.062 86.2537 107.062V107.065Z" fill="#9D7942"/>
  <path d="M84.615 104.823C84.5331 104.823 84.4512 104.806 84.3751 104.767C84.1147 104.637 84.0093 104.324 84.141 104.07C90.1485 92.5325 94.9767 77.398 97.9673 66.7329C101.212 55.1663 103.056 46.2187 103.074 46.127C103.132 45.8462 103.41 45.6629 103.7 45.7191C103.986 45.7753 104.174 46.0472 104.115 46.331C104.042 46.6887 96.6593 82.3197 85.0862 104.537C84.9925 104.717 84.8052 104.82 84.6121 104.82L84.615 104.823Z" fill="#9D7942"/>
  <path d="M97.9673 1.06445L89.9553 41.7886C89.9553 41.7886 95.1698 46.725 102.4 47.3724C109.631 48.0197 113.134 45.4333 113.134 45.4333L120.806 5.23234C120.806 5.23234 115.144 5.859 109.084 4.91014C103.024 3.96128 97.9702 1.06445 97.9702 1.06445H97.9673Z" fill="#E5B368"/>
  <path d="M114.047 45.7704C113.83 45.9595 113.579 46.1339 113.295 46.2877C112.976 46.4591 112.622 46.6158 112.23 46.7547C112.066 46.8109 111.887 46.87 111.712 46.9202C111.358 47.0237 110.983 47.1153 110.591 47.1951C110.199 47.2749 109.789 47.3459 109.362 47.402C108.99 47.4582 108.61 47.5055 108.224 47.541C107.881 47.5764 107.536 47.603 107.182 47.6267C106.796 47.6563 106.401 47.674 106.003 47.6888C105.353 47.7124 104.697 47.7242 104.06 47.7242H103.825C103.433 47.7242 103.044 47.7183 102.67 47.7065H102.646C101.959 47.6888 101.239 47.609 100.516 47.4819C100.141 47.4198 99.7581 47.337 99.3835 47.2454C98.2335 46.9705 97.0835 46.5892 95.9833 46.1694C95.6175 46.0246 95.2605 45.8827 94.9123 45.7378C94.5523 45.5812 94.2012 45.4334 93.8647 45.2767C93.4931 45.1112 93.1478 44.9427 92.8113 44.7772C92.5655 44.6619 92.3343 44.5466 92.106 44.4313C91.7403 44.2421 91.395 44.0618 91.0819 43.8963C90.7161 43.7012 90.3913 43.5179 90.1074 43.3553C89.6568 43.1011 89.3115 42.8942 89.1008 42.7671C88.975 42.6873 88.896 42.6341 88.8667 42.6164C88.4688 42.3622 88.3488 41.8271 88.6004 41.4251C88.8521 41.0231 89.3759 40.9019 89.7739 41.1502C89.7856 41.162 90.008 41.301 90.3942 41.5286C90.5522 41.6202 90.7424 41.7296 90.959 41.8508C92.1148 42.507 93.9934 43.5031 96.1003 44.3545H96.1179C96.2261 44.4018 96.3344 44.4461 96.4485 44.4934C96.4485 44.4875 96.4544 44.4934 96.4544 44.4934C98.4998 45.2945 100.721 45.9329 102.684 45.9773C106.512 46.063 108.949 45.794 110.491 45.4482C110.895 45.3565 111.238 45.259 111.527 45.1614C111.641 45.126 111.75 45.0934 111.846 45.0521C112.423 44.8333 112.736 44.6264 112.888 44.4934C112.9 44.4816 112.911 44.4757 112.923 44.4638C113.283 44.1535 113.824 44.1889 114.132 44.5436C114.439 44.9072 114.404 45.4482 114.053 45.7645L114.047 45.7704Z" fill="#D1A157"/>
  <path d="M117.113 6.52059C114.992 6.52059 112.241 6.13336 109.578 5.76091L109.289 5.71952C104.171 5.00123 99.3191 2.89659 98.5583 1.56642C98.4529 1.38315 98.4851 1.30629 98.4968 1.28264C98.4997 1.27673 98.9065 0.576172 103.027 0.576172C105.654 0.576172 108.572 0.862899 110.272 1.10824C115.123 1.8088 120.039 4.51054 120.244 5.31751C120.285 5.62493 120.192 5.77864 120.107 5.87619C119.849 6.17178 119.124 6.52354 117.119 6.52354L117.113 6.52059Z" fill="#E5B368"/>
  <path d="M103.024 1.14986C105.622 1.14986 108.507 1.43364 110.187 1.67602C114.57 2.3086 119.021 4.63493 119.677 5.48329V5.48624C119.662 5.50398 119.29 5.94441 117.113 5.94441C114.936 5.94441 112.3 5.56014 109.657 5.19065L109.365 5.14926C104.458 4.46053 100.2 2.52734 99.2255 1.51936C99.6761 1.3686 100.727 1.14986 103.024 1.14986ZM103.024 0C100.449 0 98.2861 0.271947 97.9672 1.06414C97.2503 2.83771 103.685 5.5158 109.21 6.29026C111.931 6.67158 114.872 7.09723 117.113 7.09723C119.355 7.09723 120.988 6.64793 120.803 5.23499C120.634 3.94915 114.998 1.21194 110.351 0.540939C108.39 0.257168 105.517 0.00295595 103.027 0.00295595L103.024 0Z" fill="#D1A157"/>
  <path d="M90.8683 42.4918C90.6108 42.7786 90.3562 43.0742 90.1046 43.3609C81.3699 53.2899 73.949 64.3363 68.0323 76.2103C64.1814 83.9431 61.2142 91.5813 59.2156 98.9179C59.0722 99.453 58.9581 99.8964 58.9932 100.328C59.04 100.961 59.4204 101.593 59.757 102.152L63.1455 107.818C63.3064 108.087 63.2187 108.439 62.9524 108.608C62.8617 108.664 62.7592 108.687 62.6568 108.687C62.4695 108.687 62.2764 108.59 62.174 108.412L58.7796 102.746C58.4051 102.113 57.931 101.318 57.8637 100.417C57.811 99.7545 57.9837 99.1219 58.1212 98.6164C60.1432 91.2059 63.1338 83.4968 67.0169 75.696C72.9395 63.8101 80.3603 52.7431 89.1009 42.7786C89.4023 42.4268 89.7096 42.078 90.0227 41.7262C90.1251 41.6169 90.2568 41.5548 90.3914 41.543C90.5494 41.6346 90.7396 41.744 90.9561 41.8652C91.0527 42.0662 91.0293 42.3204 90.8713 42.4977L90.8683 42.4918Z" fill="#D1A157"/>
  <path d="M66.0659 105.244C65.8025 105.244 65.5684 105.06 65.5099 104.791C64.5296 100.23 65.2436 95.0691 67.6343 89.4499C69.0126 86.2102 70.7917 83.1271 72.5123 80.1416C73.3141 78.7523 74.1422 77.3128 74.9177 75.8821C77.1328 71.794 79.0729 67.4547 80.9515 63.2543C84.0269 56.3787 87.2077 49.2697 91.6789 43.0504C91.8633 42.7932 92.2203 42.737 92.4749 42.9233C92.7294 43.1095 92.785 43.4701 92.6007 43.7273C88.1997 49.852 85.0423 56.9049 81.9903 63.7302C80.1029 67.9483 78.1511 72.3113 75.9155 76.4348C75.1342 77.8803 74.3002 79.3228 73.4955 80.721C71.7925 83.674 70.0309 86.7275 68.6819 89.9051C66.3878 95.2997 65.6943 100.224 66.6248 104.546C66.6921 104.856 66.496 105.164 66.1888 105.229C66.1478 105.238 66.1069 105.241 66.0659 105.241V105.244Z" fill="#D1A157"/>
  <path d="M73.5627 114.067C73.3111 114.067 73.0799 113.895 73.0126 113.638C71.4061 107.511 73.3199 101.061 75.2394 95.5005C76.4333 92.042 77.7267 88.557 78.9791 85.1842C81.9668 77.1322 85.0568 68.8083 86.9823 60.3129C87.111 59.7424 87.2369 59.1689 87.3598 58.5984C87.7665 56.7303 88.1879 54.7971 88.7848 52.9319C89.8353 49.6508 91.4184 46.5973 93.4843 43.8542C93.6745 43.5999 94.0315 43.5526 94.2831 43.7448C94.5348 43.9369 94.5816 44.2975 94.3914 44.5518C92.4016 47.1914 90.88 50.1326 89.8704 53.2866C89.2911 55.0986 88.8755 57.0022 88.4746 58.8467C88.3488 59.4231 88.223 59.9966 88.0942 60.57C86.1512 69.1393 83.0465 77.5017 80.0472 85.5892C78.7977 88.956 77.5072 92.4352 76.3163 95.8789C74.4523 101.279 72.5912 107.531 74.1158 113.346C74.1948 113.653 74.0163 113.966 73.712 114.049C73.6622 114.061 73.6154 114.067 73.5657 114.067H73.5627Z" fill="#D1A157"/>
  <path d="M96.5568 45.2474C96.3637 45.5519 96.1706 45.8622 95.9804 46.1726C90.918 54.5882 88.9633 64.5645 87.0789 74.2187C85.7679 80.8991 84.4189 87.8013 82.0546 94.2334C81.7766 94.999 81.4781 95.7587 81.1767 96.5243C80.3954 98.5313 79.5878 100.603 79.0991 102.72C78.5636 104.993 78.2095 108.318 79.5439 111.239C79.6756 111.526 79.5497 111.866 79.2659 111.999C79.1869 112.04 79.1079 112.055 79.0259 112.055C78.8094 112.055 78.6046 111.928 78.508 111.715C77.3463 109.173 77.1707 105.969 77.9901 102.454C78.5022 100.264 79.3215 98.1441 80.1203 96.1015C80.4159 95.3419 80.7114 94.5881 80.9924 93.8284C83.3216 87.482 84.6647 80.6272 85.9581 73.994C87.8543 64.3014 89.8149 54.2956 94.9094 45.741C95.1318 45.3686 95.36 44.9932 95.597 44.6207C95.7111 44.4493 95.8984 44.3547 96.0916 44.3606H96.1091C96.2174 44.4079 96.3256 44.4522 96.4398 44.4995C96.4398 44.4936 96.4456 44.4995 96.4456 44.4995C96.6622 44.671 96.7119 44.9991 96.5539 45.2474H96.5568Z" fill="#D1A157"/>
  <path d="M82.1453 112.994C82.0663 112.994 81.9844 112.976 81.9083 112.94C81.6215 112.807 81.4986 112.468 81.6274 112.178C89.057 95.8462 94.0755 78.5391 96.5422 60.7355C96.6125 60.227 96.6798 59.7186 96.75 59.2102C97.3089 55.066 97.8854 50.7798 99.5328 46.8543C99.6557 46.5617 99.9893 46.4257 100.279 46.5499C100.569 46.674 100.703 47.011 100.58 47.3036C98.9915 51.0872 98.4238 55.2936 97.8766 59.3639C97.8093 59.8753 97.7391 60.3837 97.6688 60.8921C95.1874 78.8052 90.1397 96.2187 82.6603 112.654C82.5638 112.864 82.359 112.988 82.1424 112.988L82.1453 112.994Z" fill="#D1A157"/>
  <path d="M87.3452 115.498C87.3101 115.498 87.275 115.495 87.237 115.49C86.9268 115.43 86.7249 115.129 86.7834 114.816C87.8076 109.391 89.8559 104.189 91.837 99.1579C93.1889 95.7231 94.5876 92.173 95.641 88.5934C97.2299 83.1929 98.099 77.5174 98.9418 72.0312L102.813 46.7608C102.86 46.4475 103.155 46.2317 103.463 46.279C103.773 46.3263 103.987 46.6219 103.94 46.9352L100.068 72.2056C99.2227 77.7303 98.3478 83.4441 96.7354 88.9215C95.6674 92.5514 94.2599 96.1251 92.8962 99.5836C90.9357 104.564 88.9078 109.714 87.9041 115.031C87.8515 115.306 87.6145 115.498 87.3452 115.498Z" fill="#D1A157"/>
  <path d="M92.1587 119.988C92.068 119.988 91.9744 119.967 91.8895 119.92C91.6115 119.769 91.5091 119.42 91.6583 119.14C100.495 102.512 104.929 82.4148 105.21 57.7001L105.218 56.9316C105.251 53.4938 105.286 49.9408 106.289 46.5798C106.38 46.2754 106.696 46.1039 107 46.1956C107.302 46.2872 107.472 46.6094 107.381 46.9139C106.424 50.1181 106.389 53.5884 106.357 56.9434L106.348 57.7149C106.067 82.6188 101.59 102.888 92.662 119.683C92.5596 119.876 92.3636 119.988 92.1587 119.988Z" fill="#D1A157"/>
  <path d="M98.4267 119.093C98.3126 119.093 98.1984 119.057 98.0989 118.986C97.8414 118.803 97.7829 118.442 97.9643 118.185C102.152 112.22 105.078 104.874 106.661 96.3554C108.382 87.0974 108.344 77.5053 108.306 68.2296L108.221 47.0325C108.221 46.7162 108.472 46.4561 108.788 46.4561C109.101 46.4561 109.356 46.7132 109.359 47.0295L109.444 68.2266C109.482 77.5556 109.52 87.2038 107.779 96.5683C106.164 105.253 103.173 112.752 98.8919 118.853C98.7808 119.013 98.6052 119.096 98.4267 119.096V119.093Z" fill="#D1A157"/>
  <path d="M113.631 95.9236C113.198 99.4323 112.402 102.879 111.267 106.151C109.617 110.907 107.091 115.723 103.767 120.458C103.659 120.618 103.483 120.706 103.299 120.706C103.185 120.706 103.071 120.671 102.974 120.597C102.717 120.414 102.655 120.056 102.837 119.796C106.099 115.146 108.572 110.431 110.187 105.77C111.296 102.571 112.077 99.2047 112.499 95.7787C113.268 89.5476 112.865 83.1687 112.47 76.9966L110.585 47.1977L110.477 45.5246C110.477 45.501 110.477 45.4773 110.483 45.4566C110.886 45.365 111.229 45.2675 111.519 45.1699C111.574 45.2497 111.609 45.3473 111.615 45.4507L111.706 46.9228L113.608 76.9227C114 83.148 114.41 89.586 113.625 95.9236H113.631Z" fill="#D1A157"/>
  <path d="M118.111 104.715C116.408 109.506 112.519 113.021 109.078 116.128C108.97 116.225 108.832 116.272 108.703 116.272C108.545 116.272 108.39 116.21 108.276 116.083C108.066 115.847 108.089 115.48 108.323 115.273C111.656 112.258 115.437 108.847 117.037 104.33C118.682 99.6925 117.801 94.5728 116.952 89.6216C116.736 88.3623 116.514 87.0558 116.332 85.7788C115.797 81.942 115.653 78.0135 115.519 74.2092C115.463 72.684 115.404 71.1617 115.325 69.6364C114.916 61.9568 113.886 54.2714 112.232 46.7573C112.107 46.1868 111.981 45.6252 111.846 45.0606C112.423 44.8419 112.736 44.635 112.888 44.502C113.031 45.0991 113.166 45.6932 113.298 46.2903C114.989 53.9344 116.054 61.7588 116.464 69.5714C116.543 71.1025 116.601 72.6308 116.651 74.1619C116.794 77.9367 116.935 81.8356 117.465 85.6222C117.634 86.8755 117.857 88.1702 118.073 89.4235C118.951 94.5255 119.855 99.7959 118.114 104.715H118.111Z" fill="#D1A157"/>
  <path d="M90.7951 37.5165C90.7951 37.5165 89.2209 33.0501 91.0995 29.5946C92.9781 26.1391 93.5809 23.3486 93.5809 23.3486L116.625 27.1234C116.625 27.1234 116.353 31.5011 116.625 33.996C116.897 36.4908 114.003 40.8656 114.003 40.8656L90.7951 37.5135V37.5165Z" fill="#E5B368"/>
  <path d="M128.16 82.6513V82.6868C128.16 82.7607 128.157 82.8317 128.154 82.9026C128.089 84.2949 127.364 85.5718 126.141 86.435C120.935 90.1092 106.67 94.753 68.2721 96.0241C63.9501 96.166 59.9119 96.2339 56.14 96.2339C53.0558 96.2339 50.1501 96.1896 47.4083 96.1039C37.1753 95.7905 29.2629 94.9274 23.1471 93.7746C11.3194 91.5488 6.19565 88.2529 3.98052 85.7994C3.16411 84.8979 2.77493 83.7894 2.81004 82.6957C2.81004 82.672 2.81297 82.6484 2.81297 82.6277C2.81882 82.5272 2.8276 82.4237 2.8393 82.3232H4.60965C4.5921 82.4149 4.58039 82.5095 4.57161 82.6041C4.50724 83.3756 4.76474 84.1678 5.34413 84.8092C8.61855 88.4332 15.4424 90.7654 23.6007 92.2434C30.9045 93.5647 39.2734 94.2032 47.1156 94.4692C55.3324 94.7501 62.9727 94.6229 68.2077 94.4485C106.134 93.1952 120.054 88.7258 125.055 85.1994C125.915 84.5905 126.407 83.6771 126.404 82.6927C126.404 82.5686 126.395 82.4444 126.375 82.3232H128.142C128.154 82.4326 128.16 82.542 128.16 82.6513Z" fill="#DACDBF"/>
  <path d="M95.161 153.006C93.9906 154.318 87.5529 156.42 79.4561 157.469C71.3564 158.519 58.8761 157.732 50.9754 157.469C43.0747 157.206 36.9296 153.006 36.0518 151.953C35.1739 150.901 35.2822 149.16 35.2822 149.16C38.8551 149.796 42.8172 150.257 47.224 150.452C69.4105 151.427 96.0389 149.065 96.0389 149.065C96.0389 149.065 96.3315 151.69 95.161 153.006Z" fill="#DACDBF"/>
  <path d="M133.81 122.353L132.979 129.069C132.947 129.32 132.95 129.575 132.95 129.829C132.947 130.352 132.394 132.14 127.282 137.464C120.774 144.239 96.3315 149.332 96.3315 149.332C96.3315 149.332 96.2379 149.341 96.0594 149.356C93.2093 149.598 68.3951 151.638 47.5166 150.719C43.1098 150.523 39.1477 150.062 35.5748 149.427C35.4753 149.409 35.3758 149.391 35.2793 149.374C21.0521 146.787 13.084 141.443 7.96026 139.353C1.52262 136.728 1.30901 132.516 1.30901 132.516L0.202906 124.727C0.0244076 123.459 0.194127 122.17 0.697434 120.976L1.64552 118.726C2.22784 117.34 2.35952 115.847 2.03178 114.405C2.01422 114.319 1.99374 114.233 1.97033 114.151C1.93229 114.009 1.89132 113.87 1.8445 113.728L1.37046 112.306L1.11003 111.523L0.542345 109.814C0.138529 108.602 0.0712269 107.328 0.337511 106.087L0.682803 104.493L1.54896 100.506C1.72453 99.7019 1.75672 98.8801 1.64552 98.0643L1.24171 95.0994H1.23878L1.08077 93.9259C0.984201 93.2283 0.995906 92.5218 1.11295 91.8272L2.68725 82.3682H2.81308C2.80722 82.4746 2.80722 82.5869 2.81015 82.6963C2.77504 83.79 3.16422 84.8985 3.98063 85.8C6.19576 88.2535 11.3195 91.5493 23.1472 93.7752C29.263 94.928 37.1754 95.7911 47.4084 96.1045C50.1502 96.1902 53.0559 96.2345 56.1402 96.2345C59.912 96.2345 63.9502 96.1665 68.2722 96.0247C106.67 94.7536 120.935 90.1098 126.141 86.4356C127.364 85.5724 128.09 84.2954 128.154 82.9032C128.157 82.8322 128.16 82.7613 128.16 82.6874V82.6519L130.82 89.0102C131.232 90.0004 131.428 91.0557 131.399 92.1139L131.273 96.2345L131.247 97.1243C131.247 97.1243 131.25 97.1272 131.247 97.1272L131.18 99.3058C131.162 99.9176 131.221 100.532 131.355 101.13L131.481 101.694L132.104 104.493L132.277 105.271C132.502 106.276 132.514 107.308 132.312 108.318L131.639 111.709C131.619 111.809 131.601 111.91 131.589 112.01C131.551 112.244 131.525 112.48 131.513 112.717C131.437 113.958 131.677 115.197 132.221 116.347H132.224C132.233 116.37 132.245 116.391 132.254 116.412L132.338 116.586L133.111 118.182C133.746 119.492 133.986 120.931 133.81 122.353Z" fill="#E8E3D9"/>
  <path d="M2.06993 114.516L1.33545 112.311C1.5081 112.228 1.74512 112.837 2.06993 114.516Z" fill="#FFAEFF"/>
  <path d="M132.564 117.112L132.479 116.938C131.806 115.551 131.577 114.026 131.814 112.533C131.168 113.006 120.484 118.59 111.711 122.353C111.688 122.362 86.8563 131.046 30.1261 124.827C18.038 122.607 3.86929 119.152 2.19843 114.936C2.60225 116.453 2.49105 118.046 1.87363 119.512L0.925537 121.762C0.925537 121.762 24.6395 127.668 38.6326 128.475L38.8462 128.566C38.8462 128.566 92.3752 133.565 112.171 124.641C112.171 124.641 112.177 124.641 112.18 124.638C117.137 123.535 123.911 121.377 132.482 117.198C132.511 117.168 132.537 117.139 132.567 117.109L132.564 117.112Z" fill="#DACDBF"/>
  <path d="M131.581 101.655C131.581 101.655 118.503 106.793 112.944 107.842C107.384 108.891 80.7583 113.727 69.4924 113.411C58.2236 113.095 36.5697 110.993 25.4502 108.105C14.3306 105.217 1.77429 101.031 1.77429 101.031C1.94986 100.227 1.98205 99.4057 1.87086 98.5928L1.46704 95.625C1.64554 95.7876 8.87911 102.353 17.5494 104.168C26.328 106.006 34.814 107.056 34.814 107.056C34.814 107.056 47.6893 110.207 69.6358 110.207C91.5823 110.207 106.506 106.266 112.066 104.691C117.625 103.115 129.57 100.121 131.499 96.7601L131.405 99.8284C131.387 100.44 131.446 101.055 131.581 101.652V101.655Z" fill="#DACDBF"/>
</svg>