<svg width="417" height="417" viewBox="0 0 417 417" fill="none" xmlns="http://www.w3.org/2000/svg">
<g clip-path="url(#clip0_414_9782)">
<path opacity="0.43" d="M212.321 314.312C212.321 314.312 209.306 340 141.187 340C73.068 340 77.8906 317.299 77.8906 317.299C77.8906 317.299 75.2744 275.14 73.1102 230.263C72.3326 214.229 71.6213 197.848 71.1028 182.919C70.3131 160.164 74.1772 134.804 79.0842 112.599C86.4086 79.449 96.0598 53.3186 96.0598 53.3186H184.362C184.362 53.3186 193.519 83.0214 201.464 117.354C206.316 138.299 210.723 160.976 212.321 179.687C213.556 194.156 214.069 211.708 214.171 229.289C214.431 271.711 212.321 314.312 212.321 314.312Z" fill="#B6D5D6"/>
<path d="M208.185 305.016C208.185 305.016 205.376 328.966 141.862 328.966C78.3488 328.966 82.8519 307.8 82.8519 307.8C82.8519 307.8 80.4105 268.497 78.391 226.655C77.6676 211.708 77.0045 196.432 76.5223 182.513C75.7868 161.299 79.3857 137.654 83.9611 116.954C85.7696 108.775 87.7288 101.057 89.6337 94.1269C89.694 93.8939 89.7603 93.6669 89.8206 93.4399H89.8266C93.0397 88.8936 134.267 89.1565 140.826 88.8518C147.433 88.5472 188.551 89.6762 191.807 96.1103C191.873 96.3671 191.945 96.63 192.011 96.8869C193.983 104.438 196.062 112.76 198.064 121.392C202.585 140.921 206.696 162.063 208.185 179.508C209.337 192.997 209.813 209.36 209.909 225.753C210.15 265.307 208.185 305.022 208.185 305.022V305.016Z" fill="#F5F3DB"/>
<path d="M192.011 96.8809C192.198 104.02 147.215 107.085 121.897 104.695C96.6143 102.311 89.9651 96.9466 89.6336 94.1269V94.1149C89.6095 93.882 89.6697 93.6549 89.8204 93.4399H89.8265C93.0395 88.8936 134.267 89.1565 140.825 88.8518C147.432 88.5472 188.551 89.6762 191.806 96.1103C191.933 96.3612 192.005 96.6181 192.011 96.8869V96.8809Z" fill="#D4D4BD"/>
<path d="M91.5447 35.6892V50.9887C91.5447 52.6256 92.4248 54.131 93.8475 54.9495C98.4832 57.6139 110.702 62.7276 135.762 62.2796C162.805 61.8017 180.98 56.3832 187.141 54.2505C188.527 53.7666 189.462 52.4762 189.462 51.0186V35.6892C189.462 35.6892 155.058 42.5653 135.768 41.9679C116.478 41.3705 91.5447 35.6892 91.5447 35.6892Z" fill="#B1B6C0"/>
<path d="M214.171 229.289C214.171 229.289 176.615 242.02 137.799 242.653C105.247 243.191 80.3019 233.429 73.1102 230.263C72.3326 214.229 71.6213 197.848 71.1028 182.919C70.3131 160.164 74.1772 134.804 79.0842 112.599C79.0842 112.599 100.774 127.994 136.353 127.994C171.931 127.994 200.963 117.533 201.464 117.354C206.316 138.299 210.723 160.976 212.321 179.687C213.556 194.156 214.069 211.708 214.171 229.289Z" fill="#BAD6EB"/>
<path d="M118.497 212.92C117.985 212.92 117.539 212.55 117.46 212.03C117.442 211.917 115.772 200.506 115.091 193.582C114.82 190.846 115.652 183.642 116.61 175.296C117.683 165.994 119.269 152.194 118.358 149.273C116.568 151.232 114.078 161.514 112.397 168.468C109.69 179.651 108.418 184.293 106.724 185.225C106.332 185.44 105.892 185.488 105.488 185.35C103.716 184.765 102.968 180.708 101.154 166.048C100.244 158.694 98.8932 147.791 97.5429 145.629C94.8302 150.056 93.4738 188.289 93.2508 211.893C93.2508 212.466 92.7806 212.914 92.1959 212.92C91.6171 212.92 91.153 212.448 91.159 211.875C91.2615 201.331 91.9728 148.496 96.1866 143.986C96.9461 143.174 97.7358 143.311 98.0372 143.406C100.334 144.141 101.341 150.462 103.24 165.797C104.029 172.148 105.078 180.625 106.043 182.966C107.218 180.941 109.015 173.533 110.359 167.984C113.301 155.826 115.272 148.359 117.774 147.14C118.346 146.859 118.955 146.895 119.444 147.236C121.427 148.622 120.999 155.516 118.696 175.535C117.786 183.42 116.93 190.87 117.183 193.385C117.864 200.261 119.528 211.624 119.54 211.737C119.624 212.305 119.227 212.831 118.654 212.914C118.606 212.92 118.551 212.926 118.503 212.926L118.497 212.92Z" fill="#3B3B4E"/>
<path d="M130.97 213.44C130.596 213.44 130.228 213.237 130.041 212.884C128.004 209.067 127.19 198.606 127.63 181.807C127.955 169.399 128.866 157.923 128.878 157.804C128.926 157.23 129.426 156.806 130.005 156.854C130.584 156.902 131.012 157.397 130.964 157.971C130.951 158.084 130.047 169.513 129.722 181.867C129.185 202.34 130.608 209.503 131.892 211.91C132.163 212.418 131.97 213.045 131.458 213.314C131.301 213.398 131.132 213.434 130.97 213.434V213.44Z" fill="#3B3B4E"/>
<path d="M166.066 218.631C165.747 218.631 165.433 218.488 165.228 218.213C164.396 217.108 160.092 216.552 152.448 216.552C148.56 216.552 146.516 215.943 144.702 212.347C143.605 210.172 143.804 200.345 144.256 184.406C144.431 178.271 144.593 172.482 144.593 167.996C144.593 157.678 143.213 155.725 142.936 155.444C142.52 155.337 142.194 154.978 142.152 154.53C142.104 153.957 142.526 153.455 143.104 153.401C143.291 153.383 143.786 153.401 144.316 153.879C145.889 155.307 146.685 160.056 146.685 167.996C146.685 172.512 146.522 178.319 146.348 184.466C146.028 195.643 145.636 209.551 146.577 211.415C147.927 214.091 149.042 214.473 152.448 214.473C159.996 214.473 165.343 214.898 166.904 216.965C167.254 217.425 167.157 218.076 166.693 218.416C166.506 218.554 166.283 218.625 166.066 218.625V218.631Z" fill="#3B3B4E"/>
<path d="M195.388 208.619C193.229 194.192 188.262 188.289 181.993 182.082C176.796 176.933 172.89 176.771 171.311 176.986C171.311 176.909 171.311 176.837 171.305 176.759C171.401 176.228 171.582 175.439 171.938 174.268C173.589 168.808 187.677 151.973 187.822 151.806C188.19 151.364 188.13 150.713 187.684 150.342C187.237 149.978 186.58 150.038 186.207 150.48C185.688 151.101 174.855 164.047 171.052 171.144C170.232 157.87 168.2 154.106 168.098 153.939C167.814 153.443 167.187 153.264 166.681 153.538C166.175 153.813 165.994 154.44 166.265 154.942C166.289 154.99 168.695 159.638 169.201 176.616C169.201 176.622 169.201 176.628 169.201 176.634C169.074 177.47 169.098 178.074 169.267 178.504C169.954 196.044 172.92 214.533 173.656 217.819C173.764 218.303 174.198 218.631 174.681 218.631C174.753 218.631 174.831 218.625 174.91 218.607C175.476 218.482 175.832 217.932 175.705 217.371C174.988 214.157 172.119 196.277 171.395 179.083C171.401 179.083 171.413 179.077 171.419 179.071C172.082 178.928 175.47 178.546 180.516 183.546C186.707 189.681 191.252 195.094 193.314 208.924C193.392 209.437 193.838 209.808 194.351 209.808C194.399 209.808 194.453 209.808 194.507 209.796C195.08 209.712 195.478 209.186 195.388 208.619Z" fill="#3B3B4E"/>
<path d="M91.5448 35.6891C91.7558 34.2015 95.9755 26.4353 136.968 27.0327C177.96 27.6301 189.504 31.8 189.456 35.6891C189.432 37.7322 162.618 44.1423 136.968 43.76C113.753 43.4135 91.4423 36.394 91.5448 35.6891Z" fill="#A6A6B2"/>
<path d="M97.8986 51.7174C97.8986 49.9251 97.8986 48.1389 97.8986 46.3467C97.8986 45.4865 97.8925 44.6262 97.8986 43.76C97.8986 43.2223 97.8744 42.6309 98.3386 42.2724C98.7244 41.9737 98.6521 41.3166 98.3386 41.0059C97.9588 40.6296 97.4464 40.7072 97.0606 41.0059C95.7163 42.0394 96.0901 44.2797 96.0961 45.7493C96.0961 47.7387 96.0961 49.728 96.0961 51.7114C96.0961 52.8644 97.9046 52.8644 97.9046 51.7114L97.8986 51.7174Z" fill="#A6A6B2"/>
<path d="M104.548 44.3695C104.542 46.4425 104.536 48.5095 104.53 50.5825C104.53 52.4225 104.295 54.4238 105.163 56.1204C105.687 57.1479 107.248 56.2459 106.724 55.2183C106.368 54.5194 106.344 53.7248 106.332 52.9602C106.326 52.0222 106.332 51.0843 106.338 50.1464C106.338 48.2228 106.35 46.2991 106.356 44.3755C106.356 43.2225 104.554 43.2225 104.548 44.3755V44.3695Z" fill="#A6A6B2"/>
<path d="M114.934 46.2508C114.555 49.9607 115.025 53.7423 116.309 57.249C116.478 57.703 116.924 58.0077 117.424 57.8763C117.864 57.7568 118.22 57.2311 118.057 56.7711C116.821 53.3958 116.381 49.8233 116.749 46.2508C116.797 45.7669 116.297 45.3547 115.845 45.3547C115.314 45.3547 114.989 45.7669 114.94 46.2508H114.934Z" fill="#A6A6B2"/>
<path d="M126.792 47.6133V58.725C126.792 59.8779 128.6 59.8779 128.6 58.725V47.6133C128.6 46.4603 126.792 46.4603 126.792 47.6133Z" fill="#A6A6B2"/>
<path d="M137.377 48.121C137.715 51.5859 137.799 55.0747 137.625 58.5516C137.57 59.7046 139.379 59.6986 139.433 58.5516C139.608 55.0747 139.524 51.5859 139.186 48.121C139.138 47.6371 138.806 47.2249 138.282 47.2249C137.83 47.2249 137.329 47.6371 137.377 48.121Z" fill="#A6A6B2"/>
<path d="M147.776 47.6968C148.337 51.0602 148.662 54.4594 148.765 57.8706C148.801 59.0236 150.61 59.0236 150.573 57.8706C150.471 54.2981 150.115 50.7436 149.524 47.2249C149.446 46.7469 148.849 46.4781 148.409 46.5976C147.897 46.735 147.698 47.2189 147.776 47.7028V47.6968Z" fill="#A6A6B2"/>
<path d="M157.608 47.3564C158.187 50.8332 158.506 54.346 158.585 57.8706C158.609 59.0236 160.417 59.0236 160.393 57.8706C160.309 54.1847 159.953 50.5166 159.35 46.8784C159.272 46.4005 158.675 46.1317 158.235 46.2512C157.723 46.3886 157.524 46.8725 157.602 47.3564H157.608Z" fill="#A6A6B2"/>
<path d="M170.069 56.0484C170.666 52.6252 170.461 49.1185 169.406 45.7969C169.056 44.7037 167.308 45.1697 167.663 46.2749C168.616 49.2738 168.869 52.4699 168.327 55.5704C168.242 56.0484 168.453 56.5382 168.96 56.6756C169.394 56.7951 169.99 56.5263 170.075 56.0484H170.069Z" fill="#A6A6B2"/>
<path d="M181.715 52.7451L181.745 46.7293C181.751 45.2119 181.697 43.4675 180.238 42.5773C179.244 41.9739 178.333 43.5212 179.328 44.1246C179.708 44.3576 179.828 44.8116 179.895 45.2298C180.003 45.9586 179.943 46.7352 179.937 47.47L179.913 52.7451C179.913 53.8981 181.715 53.8981 181.721 52.7451H181.715Z" fill="#A6A6B2"/>
<path d="M380 229.774V344.439C376.815 351.246 369.382 356.482 352.924 360.147C336.466 363.812 320.009 365.382 280.722 364.335C241.436 363.288 226.571 339.104 226.571 339.104V229.774C226.571 229.774 258.425 230.822 273.29 231.869C288.155 232.916 314.169 232.916 338.59 232.392C361.865 231.895 378.391 229.968 379.888 229.79C379.963 229.78 380 229.774 380 229.774Z" fill="#A6A6B2"/>
<path d="M380 213.544V328.209C376.815 335.015 369.382 340.251 352.924 343.916C336.466 347.581 320.009 349.152 280.722 348.105C241.436 347.058 226.571 322.873 226.571 322.873V213.544C226.571 213.544 258.425 214.591 273.29 215.638C288.155 216.685 314.169 216.685 338.59 216.162C361.865 215.664 378.391 213.738 379.888 213.56C379.963 213.549 380 213.544 380 213.544Z" fill="#9FC5FD"/>
<path d="M380 187.925V224.015C380 224.015 379.963 224.02 379.888 224.031C379.432 224.083 377.16 225.822 374.16 226.11C367.29 226.769 354.262 227.858 338.059 228.204C313.638 228.727 288.155 228.204 273.29 227.157C262.608 226.403 243.576 225.424 233.473 225.062C229.518 224.921 226.571 224.015 226.571 224.015V187.925C226.571 187.925 227.102 182.129 232.411 180.558C237.72 178.987 265.857 172.866 303.285 173.573C340.714 174.275 366.765 177.217 373.12 180.72C379.469 184.223 380 187.925 380 187.925Z" fill="#A6A6B2"/>
<path d="M380 177.453V213.544C380 213.544 379.963 213.549 379.888 213.559C379.432 213.612 377.16 215.35 374.16 215.638C367.29 216.298 354.262 217.387 338.059 217.732C313.638 218.256 288.155 217.732 273.29 216.685C262.608 215.931 243.576 214.952 233.473 214.591C229.518 214.449 226.571 213.544 226.571 213.544V177.453C226.571 177.453 227.102 171.657 232.411 170.086C237.72 168.515 265.857 162.395 303.285 163.101C340.714 163.803 366.765 166.746 373.12 170.248C379.469 173.751 380 177.453 380 177.453Z" fill="#B1B6C0"/>
<path d="M316.176 263.284C313.85 263.07 311.918 261.934 309.922 260.672C309.922 261.012 309.922 261.221 309.922 261.431C309.922 265.243 309.954 269.049 309.89 272.861C309.869 274.081 309.598 275.295 309.407 276.51C309.295 277.222 308.817 277.594 308.212 277.741C307.071 278.018 305.924 278.018 304.783 277.741C304.156 277.589 303.673 277.206 303.556 276.473C303.37 275.259 303.084 274.044 303.078 272.824C303.062 264.227 303.11 255.63 303.121 247.027C303.121 246.43 303.344 246.158 303.816 246.022C305.664 245.493 307.511 245.493 309.354 246.027C309.837 246.168 310.033 246.451 310.023 247.043C309.969 250.907 309.959 254.771 309.932 258.635C309.932 258.761 309.948 258.886 309.959 259.085C312.258 259.101 314.307 259.991 316.303 261.358C316.393 260.321 316.484 259.389 316.547 258.457C316.733 255.959 316.839 253.457 317.11 250.975C317.28 249.415 317.641 247.875 317.991 246.352C318.119 245.807 318.416 245.284 318.729 244.823C318.894 244.577 319.249 244.367 319.531 244.352C320.407 244.289 321.288 244.299 322.169 244.341C322.568 244.362 322.812 244.65 323.008 245.079C323.905 247.022 324.006 249.116 323.895 251.19C323.656 255.682 323.199 260.153 322.976 264.646C322.806 268.028 322.86 271.426 322.822 274.819C322.822 275.128 322.87 275.432 322.891 275.74C322.923 276.217 323.019 276.615 323.555 276.72C323.73 276.756 323.868 276.997 324.028 277.149C323.863 277.311 323.725 277.547 323.534 277.615C323.093 277.772 322.626 277.945 322.175 277.934C320.842 277.913 319.504 277.898 318.188 277.72C316.919 277.547 316.42 276.945 316.255 275.552C316.112 274.369 316.016 273.164 316.016 271.976C316.016 269.494 316.091 267.007 316.138 264.525C316.144 264.133 316.17 263.735 316.192 263.284H316.176Z" fill="black"/>
<path d="M337.194 260.609C337.194 261.023 337.194 261.431 337.194 261.845C337.146 265.887 337.082 269.929 337.061 273.976C337.061 274.615 336.859 274.924 336.376 275.076C334.513 275.662 332.655 275.662 330.791 275.065C330.324 274.914 330.128 274.605 330.143 273.997C330.324 266.96 330.504 259.923 330.653 252.886C330.712 250.227 330.706 247.562 330.696 244.896C330.696 244.31 330.881 244.012 331.322 243.87C333.201 243.263 335.086 243.247 336.955 243.881C337.39 244.027 337.788 244.352 338.176 244.645C338.314 244.745 338.415 244.975 338.468 245.169C339.933 250.745 341.998 256.023 344.196 261.238C345.094 263.374 345.948 265.531 346.888 267.845C346.925 267.458 346.952 267.227 346.968 266.992C347.344 260.656 347.711 254.321 348.104 247.986C348.183 246.671 348.348 245.362 348.465 244.048C348.528 243.341 348.974 243.567 349.304 243.577C349.718 243.588 349.526 243.954 349.505 244.195C349.272 247.436 349.012 250.677 348.804 253.918C348.528 258.206 348.268 262.494 348.04 266.782C347.966 268.217 347.976 269.662 348.003 271.102C348.008 271.542 348.199 271.971 348.289 272.411C348.47 273.285 348.629 274.17 348.815 275.039C348.884 275.369 348.773 275.537 348.528 275.61C347.419 275.929 346.309 276.034 345.253 275.416C344.212 274.804 343.363 273.976 342.683 272.793C340.958 269.803 339.753 266.515 338.447 263.274C338.086 262.374 337.719 261.473 337.353 260.578C337.3 260.593 337.247 260.609 337.194 260.625V260.609Z" fill="black"/>
<path d="M253.886 259.457C253.886 259.625 253.886 259.771 253.886 259.918C253.854 263.578 253.833 267.237 253.785 270.897C253.769 272.227 253.503 273.52 252.84 274.699C252.734 274.887 252.484 275.065 252.272 275.123C251.274 275.395 250.254 275.405 249.256 275.117C248.98 275.039 248.709 274.803 248.529 274.573C247.456 273.212 247.106 271.63 247.101 269.939C247.074 262.818 247.037 255.698 246.984 248.577C246.973 247.059 246.92 245.545 246.83 244.032C246.798 243.472 247.011 243.221 247.515 243.074C248.672 242.739 249.851 242.681 251.035 242.77C251.645 242.818 252.166 242.66 252.75 242.462C256.174 241.315 259.524 241.446 262.04 244.446C263.389 246.053 264.429 247.807 264.859 249.839C265.119 251.064 265.135 252.357 265.114 253.614C265.098 254.918 264.243 255.813 263.277 256.598C261.154 258.337 258.648 259.064 255.956 259.305C255.292 259.368 254.629 259.405 253.886 259.457ZM253.907 258.326C253.986 258.337 254.034 258.352 254.082 258.342C256.227 257.944 258.696 255.572 258.547 253.033C258.393 250.336 257.735 247.802 256.556 245.383C256.147 244.545 255.616 243.765 255.123 242.928C254.714 243.095 254.401 243.242 254.077 243.357C253.779 243.462 253.705 243.645 253.71 243.954C253.779 248.582 253.833 253.205 253.886 257.834C253.886 257.996 253.902 258.153 253.907 258.321V258.326Z" fill="black"/>
<path d="M276.183 259.625C276.141 264.327 276.098 269.028 276.061 273.73C276.061 273.919 276.093 274.138 276.199 274.296C276.406 274.604 276.247 274.777 275.971 274.866C275.535 275.008 275.084 275.139 274.627 275.201C273.21 275.395 271.798 275.379 270.396 275.07C269.462 274.866 269.191 274.526 269.175 273.652C269.074 267.342 269.334 261.044 269.701 254.74C269.876 251.708 269.961 248.666 270.056 245.629C270.072 245.127 270.29 244.865 270.789 244.75C272.605 244.326 274.426 244.315 276.236 244.75C276.9 244.912 276.942 245.032 276.916 245.661C276.804 248.577 276.709 251.488 276.592 254.405C276.517 256.143 276.406 257.881 276.31 259.62C276.263 259.62 276.22 259.62 276.172 259.62L276.183 259.625Z" fill="black"/>
<path d="M295.943 245.608C296.076 245.326 295.858 244.839 296.352 244.802C296.915 244.76 297.032 244.854 297.032 245.509C297.032 251.828 297.021 258.153 297.026 264.473C297.026 268.347 296.384 272.028 294.791 275.458C294.282 276.552 293.607 277.149 292.535 277.296C289.19 277.762 286.116 276.871 283.239 274.903C281.938 274.013 281.306 272.552 280.998 270.887C280.149 266.258 280.287 261.677 281.636 257.195C282.172 255.42 282.761 253.666 283.398 251.938C283.887 250.619 284.609 249.457 285.474 248.43C286.674 247.006 288.16 246.247 289.817 246.006C291.452 245.765 293.103 245.65 294.754 245.509C295.147 245.477 295.545 245.572 295.943 245.608ZM295.975 246.64C295.253 246.739 294.563 246.886 293.867 246.928C292.434 247.017 291.457 247.917 290.926 249.373C290.114 251.582 289.434 253.86 288.691 256.106C287.221 260.562 287.109 265.18 287.539 269.855C287.635 270.903 287.736 271.986 288.038 272.971C288.596 274.777 290.018 275.531 291.383 276.285C291.489 276.343 291.712 276.238 291.829 276.128C293.459 274.594 294.627 272.667 295.274 270.327C295.8 268.442 295.954 266.489 295.964 264.52C295.991 258.729 295.996 252.944 296.007 247.153C296.007 247.001 295.991 246.844 295.98 246.65L295.975 246.64Z" fill="black"/>
<path d="M354.995 262.866C355.053 259.907 355.069 256.949 355.181 253.996C355.244 252.399 355.478 250.808 355.621 249.211C355.658 248.771 355.94 248.608 356.264 248.499C357.394 248.111 358.562 248.038 359.73 248.137C360.458 248.195 361.18 248.357 361.891 248.519C362.31 248.614 362.502 248.891 362.427 249.425C362.029 252.284 361.971 255.174 361.928 258.059C361.87 262.3 361.742 266.536 361.711 270.777C361.7 271.918 361.955 273.065 362.045 274.212C362.061 274.4 361.912 274.709 361.764 274.777C361.355 274.966 360.914 275.102 360.479 275.175C359.045 275.405 357.623 275.374 356.2 275.034C355.573 274.882 355.17 274.547 355.096 273.85C354.995 272.877 354.835 271.903 354.835 270.934C354.841 268.243 354.92 265.557 354.973 262.866C354.979 262.866 354.984 262.866 354.989 262.866H354.995Z" fill="black"/>
<path d="M358.233 246.189C358.302 246.126 358.339 246.074 358.387 246.043C360.208 244.948 360.516 243.011 361.949 241.294C362.284 240.89 364.131 241.173 364.604 241.508C364.19 242.037 363.781 242.561 363.367 243.074C362.39 244.273 361.323 245.341 360.123 246.205C359.635 246.561 358.679 246.577 358.233 246.189Z" fill="black"/>
<path d="M359.651 331.847C359.417 332.433 359.629 333.114 360.139 333.486C360.601 333.821 361.466 333.92 361.817 333.371C361.986 333.109 361.976 332.774 361.997 332.475C362.024 332.119 362.05 331.763 362.077 331.407C362.13 330.679 362.188 329.957 362.241 329.229C362.257 329.02 362.045 328.836 361.843 328.836C361.615 328.836 361.461 329.014 361.445 329.229C361.365 330.313 361.28 331.392 361.201 332.475C361.19 332.591 361.222 332.858 361.137 332.957C361.169 332.92 361.1 332.957 361.068 332.968C361.031 332.973 360.999 332.973 360.962 332.968C360.877 332.968 360.787 332.947 360.712 332.91C360.367 332.758 360.288 332.376 360.42 332.051C360.5 331.852 360.335 331.622 360.144 331.57C359.921 331.507 359.735 331.648 359.656 331.842L359.651 331.847Z" fill="black"/>
<path d="M363.452 332.889C363.457 331.549 363.85 330.245 364.577 329.114L363.834 328.915C363.871 330.156 364.041 331.397 364.349 332.601C364.471 333.094 365.241 332.884 365.119 332.392C364.827 331.25 364.668 330.088 364.63 328.91C364.62 328.517 364.099 328.381 363.887 328.711C363.085 329.957 362.661 331.413 362.65 332.884C362.65 333.392 363.446 333.392 363.446 332.884L363.452 332.889Z" fill="black"/>
<path d="M363.547 332.009C363.818 332.009 364.083 332.009 364.354 332.009C364.455 332.009 364.561 331.968 364.636 331.894C364.71 331.821 364.758 331.716 364.752 331.617C364.742 331.402 364.577 331.224 364.354 331.224C364.083 331.224 363.818 331.224 363.547 331.224C363.446 331.224 363.34 331.266 363.266 331.339C363.192 331.413 363.144 331.517 363.149 331.617C363.16 331.831 363.324 332.009 363.547 332.009Z" fill="black"/>
<path d="M365.448 328.68C365.522 329.874 365.591 331.062 365.666 332.256C365.676 332.465 365.841 332.649 366.064 332.649C366.271 332.649 366.473 332.471 366.462 332.256C366.388 331.062 366.319 329.874 366.244 328.68C366.234 328.47 366.069 328.287 365.846 328.287C365.639 328.287 365.437 328.465 365.448 328.68Z" fill="black"/>
<path d="M366 329.235C365.899 329.251 366.042 329.235 366.064 329.23C366.095 329.23 366.133 329.225 366.165 329.219C366.244 329.214 366.324 329.209 366.403 329.209C366.446 329.209 366.494 329.209 366.536 329.214C366.642 329.219 366.456 329.193 366.563 329.214C366.605 329.225 366.648 329.23 366.69 329.246C366.711 329.251 366.791 329.298 366.717 329.251C366.754 329.272 366.791 329.293 366.828 329.314C366.775 329.277 366.817 329.308 366.844 329.329C366.86 329.345 366.871 329.355 366.881 329.371C366.849 329.329 366.844 329.324 366.871 329.361C366.886 329.387 366.897 329.408 366.913 329.434C366.95 329.497 366.897 329.361 366.924 329.455C366.934 329.486 366.945 329.518 366.95 329.549C366.95 329.57 366.956 329.586 366.961 329.607C366.956 329.554 366.95 329.544 366.956 329.575C366.956 329.607 366.956 329.643 366.956 329.675C366.956 329.696 366.961 329.743 366.95 329.764C366.961 329.706 366.961 329.701 366.95 329.748C366.95 329.769 366.945 329.785 366.94 329.806C366.934 329.832 366.924 329.863 366.918 329.89C366.913 329.911 366.908 329.926 366.897 329.947C366.918 329.9 366.918 329.895 366.902 329.931C366.871 329.994 366.833 330.052 366.791 330.115C366.839 330.047 366.775 330.13 366.77 330.141C366.738 330.172 366.706 330.204 366.674 330.235C366.648 330.256 366.621 330.277 366.6 330.303C366.575 330.321 366.575 330.321 366.6 330.303C366.6 330.303 366.563 330.329 366.547 330.34C366.483 330.387 366.414 330.424 366.34 330.46C366.276 330.497 366.207 330.523 366.138 330.56C366.111 330.57 366.117 330.57 366.154 330.555C366.133 330.565 366.111 330.57 366.09 330.581C366.048 330.596 366.005 330.612 365.963 330.628C365.766 330.696 365.612 330.9 365.687 331.11C365.75 331.298 365.968 331.46 366.175 331.382C366.812 331.151 367.444 330.795 367.683 330.125C367.784 329.848 367.794 329.507 367.688 329.225C367.561 328.874 367.295 328.628 366.94 328.502C366.584 328.376 366.17 328.429 365.793 328.476C365.586 328.502 365.453 328.774 365.517 328.958C365.591 329.183 365.782 329.261 366.005 329.23L366 329.235Z" fill="black"/>
<path d="M368.877 331.775C368.83 330.497 368.787 329.099 369.594 328.015L368.851 327.816C368.877 329.13 369.254 330.418 369.95 331.544C370.215 331.974 370.905 331.581 370.64 331.146C370.019 330.141 369.679 328.994 369.652 327.816C369.642 327.403 369.138 327.314 368.909 327.617C368.023 328.806 368.033 330.361 368.086 331.769C368.102 332.272 368.899 332.277 368.883 331.769L368.877 331.775Z" fill="black"/>
<path d="M368.793 330.58C368.978 330.58 369.17 330.58 369.355 330.58C369.456 330.58 369.562 330.538 369.637 330.465C369.674 330.428 369.7 330.387 369.722 330.339C369.748 330.292 369.759 330.24 369.753 330.188C369.753 330.088 369.716 329.978 369.637 329.91C369.557 329.842 369.461 329.795 369.355 329.795C369.17 329.795 368.978 329.795 368.793 329.795C368.692 329.795 368.586 329.837 368.511 329.91C368.474 329.947 368.447 329.989 368.426 330.036C368.4 330.083 368.389 330.135 368.394 330.188C368.394 330.287 368.432 330.397 368.511 330.465C368.591 330.533 368.686 330.58 368.793 330.58Z" fill="black"/>
<path d="M371.261 330.978C371.351 329.768 371.442 328.553 371.532 327.344L370.751 327.449C371.166 328.48 371.659 329.48 372.227 330.438C372.424 330.763 372.987 330.637 372.971 330.239C372.923 329.213 372.875 328.187 372.827 327.161C372.806 326.658 372.01 326.653 372.031 327.161C372.079 328.187 372.126 329.213 372.174 330.239L372.918 330.04C372.381 329.145 371.909 328.208 371.521 327.239C371.357 326.831 370.773 326.883 370.741 327.344C370.651 328.553 370.56 329.768 370.47 330.978C370.454 331.187 370.667 331.37 370.868 331.37C371.097 331.37 371.25 331.192 371.266 330.978H371.261Z" fill="black"/>
<path d="M365.591 324.559C365.448 324.281 365.506 324.051 365.761 323.873L366.483 324.046C366.573 324.265 366.558 324.454 366.441 324.611C366.382 324.653 366.382 324.663 366.43 324.632C366.478 324.606 366.478 324.606 366.43 324.632C366.52 324.611 366.536 324.606 366.483 324.616C366.43 324.627 366.451 324.627 366.542 324.621C366.467 324.611 366.473 324.616 366.568 324.637L366.218 323.323C366.398 323.176 366.664 323.292 366.781 323.475C366.802 324.072 366.6 324.334 366.181 324.255C366.08 324.224 366.005 324.155 365.947 324.061C365.931 324.035 365.926 324.004 365.926 323.967C365.926 324.019 365.926 324.077 365.926 324.129C365.915 324.234 365.915 324.239 365.926 324.145C365.947 324.093 365.974 324.046 366.011 324.004L366.361 323.799L366.313 323.815H366.738L366.823 323.847L367.11 324.129C367.136 324.224 367.136 324.218 367.11 324.114C367.088 324.014 367.083 324.004 367.088 324.077C367.073 324.155 367.03 324.213 366.961 324.265C366.919 324.36 366.85 324.417 366.759 324.443C366.016 324.093 365.846 323.763 366.25 323.464C366.287 323.438 366.329 323.422 366.377 323.422C366.621 323.375 366.717 323.527 366.828 323.689C366.828 323.794 366.828 323.799 366.828 323.705V323.784C366.812 323.826 366.791 323.862 366.754 323.888C366.823 323.826 366.823 323.82 366.754 323.873L366.818 323.836C366.738 323.862 366.743 323.862 366.828 323.836C366.43 323.799 366.228 323.648 366.228 323.375C366.228 323.407 366.228 323.438 366.228 323.475C366.228 323.511 366.228 323.548 366.218 323.585C366.228 323.506 366.223 323.517 366.207 323.616C366.191 323.695 366.175 323.773 366.154 323.852C366.128 323.957 366.09 324.056 366.053 324.155C366.101 324.04 366.005 324.25 366 324.26C365.963 324.334 365.926 324.402 365.883 324.47C365.867 324.496 365.708 324.726 365.777 324.637C365.729 324.7 365.671 324.763 365.618 324.82C365.581 324.857 365.544 324.899 365.501 324.936C365.559 324.883 365.634 324.857 365.724 324.852L366.128 324.957L366.319 325.224L366.297 325.161C366.297 325.119 366.276 325.072 366.271 325.03C366.287 325.103 366.276 325.129 366.281 325.04C366.281 324.993 366.292 324.925 366.281 324.878C366.271 324.789 366.25 324.972 366.281 324.888C366.297 324.852 366.303 324.799 366.313 324.758C366.324 324.716 366.345 324.674 366.356 324.632C366.377 324.538 366.297 324.71 366.356 324.632C366.414 324.553 366.451 324.454 366.515 324.375C366.42 324.496 366.579 324.328 366.616 324.292C366.674 324.255 366.669 324.234 366.616 324.292C366.653 324.271 366.69 324.244 366.727 324.224C366.765 324.203 366.807 324.182 366.844 324.166L366.781 324.197C366.887 324.176 366.887 324.166 366.765 324.171C366.696 324.182 366.632 324.161 366.584 324.114C366.536 324.103 366.499 324.077 366.473 324.035C366.446 323.998 366.446 323.998 366.473 324.035C366.494 324.072 366.494 324.072 366.483 324.035C366.451 323.967 366.51 324.114 366.51 324.129C366.52 324.176 366.526 324.182 366.515 324.145C366.515 324.108 366.51 324.114 366.515 324.161C366.515 324.208 366.515 324.213 366.515 324.176C366.515 324.161 366.515 324.14 366.526 324.124C366.547 324.087 366.558 324.061 366.589 324.035C366.717 323.915 366.897 323.962 367.025 324.04L367.067 324.098L367.035 324.04C367.078 324.04 367.057 324.161 367.051 324.04C367.062 324.208 367.067 324.066 367.094 323.972C367.136 323.831 367.131 323.841 367.195 323.731C367.205 323.71 367.216 323.689 367.232 323.669C367.258 323.632 367.258 323.627 367.232 323.658C367.285 323.737 366.674 323.768 366.94 323.794L366.536 323.689L366.409 323.543L366.441 323.611C366.43 323.538 366.451 323.642 366.457 323.663C366.494 323.789 366.531 323.909 366.552 324.04C366.573 324.176 366.552 323.951 366.552 324.087C366.552 324.145 366.558 324.203 366.558 324.26C366.558 324.318 366.558 324.375 366.552 324.433C366.542 324.58 366.595 324.271 366.542 324.522C366.531 324.58 366.515 324.632 366.504 324.69C366.489 324.789 366.473 324.716 366.52 324.684L366.489 324.742L366.648 324.59L367.009 324.538L367.189 324.632C367.216 324.653 367.232 324.705 367.258 324.726C367.269 324.779 367.274 324.779 367.274 324.726C367.274 324.679 367.274 324.669 367.274 324.7C367.274 324.752 367.296 324.611 367.29 324.601C367.28 324.543 367.221 324.684 367.301 324.58L367.014 324.862C366.791 324.957 366.589 324.93 366.42 324.789C366.319 324.684 366.271 324.564 366.287 324.438C366.313 324.386 366.308 324.407 366.26 324.491C366.239 324.527 366.218 324.564 366.197 324.595C366.154 324.669 366.112 324.737 366.059 324.805C366.112 324.742 366.106 324.742 366.048 324.81C365.979 324.873 365.979 324.873 366.048 324.82C365.979 324.857 365.974 324.868 366.027 324.841C366.064 324.82 366.101 324.815 366.143 324.82C366.191 324.82 366.239 324.841 366.281 324.868C366.345 324.925 366.345 324.925 366.281 324.868C366.335 324.962 366.329 325.014 366.319 324.899C366.329 325.067 366.34 324.648 366.319 324.805C366.329 324.716 366.356 324.627 366.382 324.543C366.393 324.506 366.404 324.47 366.42 324.438C366.388 324.512 366.393 324.506 366.43 324.423C366.451 324.391 366.616 324.176 366.515 324.281C366.542 324.255 366.696 324.129 366.573 324.213C366.611 324.187 366.653 324.166 366.696 324.145C366.611 324.182 366.611 324.187 366.696 324.155C366.786 324.135 366.786 324.14 366.685 324.155H366.754C366.653 324.135 366.648 324.135 366.738 324.155C366.823 324.182 366.823 324.182 366.733 324.145C366.807 324.192 366.807 324.187 366.733 324.135C366.818 324.229 366.796 324.192 366.669 324.035V323.616C366.781 323.459 366.807 323.412 366.738 323.475C366.696 323.511 366.712 323.501 366.781 323.443C366.701 323.496 366.754 323.454 366.807 323.443C366.738 323.459 366.611 323.459 366.786 323.464C366.738 323.464 366.68 323.464 366.637 323.464C366.579 323.47 366.765 323.522 366.637 323.459C366.706 323.47 366.51 323.396 366.637 323.459C366.531 323.449 366.579 323.375 366.627 323.459C366.547 323.323 366.696 323.585 366.6 323.433C366.281 322.925 365.544 322.925 365.225 323.433C364.668 324.333 364.402 325.642 365.299 326.444C366.244 327.287 367.593 326.847 368.24 325.883C368.517 325.47 368.66 324.962 368.734 324.475C368.819 323.925 368.856 323.375 368.798 322.826C368.692 321.82 368.41 320.218 367.099 320.192C366.616 320.181 366.037 320.323 365.607 320.538C365.055 320.815 364.779 321.312 364.561 321.862C364.174 322.836 363.85 323.857 364.078 324.909C364.307 325.962 365.326 327.166 366.504 326.674C367.067 326.438 367.274 325.883 367.46 325.36C367.646 324.836 367.784 324.334 367.895 323.805C367.954 323.527 368.002 323.244 368.039 322.962C368.097 322.559 368.113 322.161 367.8 321.846C367.487 321.532 366.966 321.501 366.579 321.742C366.26 321.935 366.106 322.271 365.974 322.595C365.952 322.642 365.936 322.695 365.915 322.747C365.915 322.747 365.814 322.967 365.873 322.857C365.846 322.904 365.825 322.951 365.793 322.993L365.836 322.936C365.777 322.988 365.772 322.993 365.814 322.956L365.841 322.936C365.772 322.972 365.761 322.977 365.814 322.951C365.889 322.951 365.952 322.92 366.032 322.936C366.239 322.988 366.234 323.082 366.329 323.218C366.308 323.14 366.308 323.129 366.319 323.187C366.329 323.244 366.329 323.234 366.324 323.155C366.319 323.171 366.276 323.323 366.324 323.161C366.329 323.14 366.398 322.977 366.356 323.061C366.313 323.145 366.388 323.025 366.398 323.004C366.441 322.936 366.319 323.066 366.425 322.972C366.457 322.941 366.489 322.909 366.526 322.878C366.398 322.983 366.573 322.862 366.595 322.852C366.568 322.867 366.451 322.909 366.595 322.852L366.664 322.836C366.531 322.862 366.409 322.826 366.297 322.721L366.09 322.375C366.138 322.501 366.122 322.344 366.106 322.417C366.106 322.433 366.09 322.579 366.106 322.49C366.128 322.391 366.08 322.574 366.069 322.595C366.106 322.511 366.09 322.564 366.053 322.595C366.064 322.585 366.181 322.49 366.112 322.532C366.011 322.59 366.287 322.464 366.096 322.532L366.181 322.522H366.117C366.143 322.522 366.175 322.527 366.202 322.532C366.128 322.511 366.122 322.511 366.181 322.532C366.223 322.569 366.271 322.58 366.308 322.627C366.335 322.669 366.361 322.799 366.34 322.668C366.35 322.731 366.35 322.778 366.345 322.841L366.361 322.778C366.324 322.857 366.319 322.867 366.35 322.82C366.345 322.82 366.457 322.689 366.388 322.763C366.319 322.836 366.457 322.705 366.473 322.695C366.414 322.742 366.42 322.731 366.483 322.695C366.632 322.616 366.43 322.716 366.393 322.71L365.989 322.606C365.836 322.501 365.756 322.37 365.751 322.213C365.751 322.26 365.751 322.312 365.751 322.36C365.767 322.145 365.698 322.517 365.735 322.412C365.761 322.365 365.751 322.375 365.713 322.449C365.692 322.49 365.666 322.532 365.639 322.574C365.751 322.422 365.459 322.71 365.613 322.6L366.781 323.072C366.781 323.072 366.712 322.815 366.727 322.92C366.743 323.025 366.727 322.82 366.727 322.794C366.727 322.763 366.727 322.726 366.733 322.695C366.717 322.794 366.722 322.799 366.738 322.705C366.759 322.642 366.775 322.574 366.796 322.511C366.733 322.674 366.828 322.48 366.834 322.459C366.903 322.312 366.765 322.511 366.871 322.401C366.919 322.354 366.966 322.307 367.014 322.265C366.876 322.375 367.104 322.229 367.136 322.213L366.048 321.93C366.016 321.862 365.989 321.799 365.995 321.721C365.995 321.668 366.074 321.548 365.995 321.653C366.09 321.522 366.202 321.49 366.366 321.517L366.717 322.831C366.627 322.925 366.462 322.936 366.356 322.878C366.308 322.852 366.266 322.815 366.234 322.773C366.17 322.689 366.159 322.401 366.149 322.579C366.149 322.522 366.154 322.47 366.181 322.412C366.218 322.333 366.494 322.234 366.366 322.244C366.223 322.255 366.037 322.339 365.92 322.407C365.804 322.475 365.692 322.579 365.602 322.684C365.559 322.737 365.517 322.784 365.475 322.831C365.464 322.841 365.358 322.936 365.4 322.899C365.273 322.998 364.975 323.14 364.768 323.234L365.936 324.119C365.947 324.025 365.968 323.936 365.995 323.841C366.011 323.794 366.08 323.648 366.016 323.768C366.059 323.684 366.106 323.606 366.159 323.527C366.074 323.653 366.191 323.496 366.212 323.47C366.234 323.449 366.451 323.26 366.319 323.36C366.377 323.318 366.435 323.281 366.499 323.244C366.542 323.224 366.584 323.197 366.627 323.182C366.547 323.213 366.547 323.213 366.632 323.182C366.658 323.176 366.897 323.108 366.802 323.129C366.706 323.15 366.956 323.119 366.988 323.114C367.152 323.098 367.285 323.077 367.439 323.014C367.678 322.915 367.864 322.752 367.991 322.527C368.081 322.37 368.124 322.208 368.15 322.035C368.161 321.972 368.171 321.915 368.182 321.852C368.187 321.82 368.198 321.789 368.209 321.757C368.15 321.946 368.028 322.066 367.837 322.124L366.94 321.763C367.025 321.894 366.94 321.763 366.94 321.71C366.94 321.653 366.972 321.59 367.014 321.548C367.067 321.501 367.211 321.496 367.073 321.506C367.126 321.506 367.311 321.532 367.163 321.485C366.547 321.291 366.069 321.894 366.181 322.454C366.228 322.684 366.271 322.915 366.319 323.145L367.651 322.381C367.651 322.381 367.513 322.202 367.582 322.307C367.582 322.297 367.471 322.093 367.524 322.223C367.497 322.155 367.476 322.077 367.46 322.004C367.487 322.14 367.46 321.951 367.46 321.909L366.876 322.668L366.775 322.679L366.372 322.574C366.303 322.517 366.25 322.449 366.218 322.36C366.239 322.422 366.255 322.48 366.271 322.543C366.292 322.621 366.319 322.768 366.324 322.815C366.329 322.862 366.335 323.009 366.335 323.093C366.335 323.155 366.335 323.218 366.329 323.281C366.329 323.176 366.366 323.082 366.441 322.998L366.791 322.794L366.876 322.778L367.28 322.883C367.375 322.936 367.322 323.025 367.317 322.915C367.317 323.045 367.301 322.857 367.317 322.941C367.317 322.988 367.317 322.988 367.317 322.941C367.317 322.883 367.317 322.894 367.301 322.972L367.317 322.904C367.274 322.988 367.274 322.993 367.317 322.925L367.03 323.208L366.934 323.244H366.51L366.573 323.271L366.223 323.066C366.361 323.197 366.154 323.009 366.186 322.967C366.197 322.993 366.202 323.019 366.207 323.045C366.218 323.103 366.218 323.082 366.197 322.977C366.186 323.04 366.138 323.171 366.202 322.998C366.191 323.03 366.122 323.161 366.186 323.066C366.212 323.009 366.207 323.009 366.175 323.077C366.133 323.134 366.133 323.14 366.17 323.087C366.207 323.04 366.202 323.04 366.154 323.087L366.223 323.035C366.048 323.103 366.372 322.962 366.202 323.045C366.292 323.035 366.308 323.03 366.25 323.03C366.191 323.03 366.207 323.03 366.297 323.03L366.366 323.061C366.287 323.014 366.292 323.019 366.372 323.072C366.42 323.176 366.499 323.26 366.473 323.396C366.425 323.669 366.08 323.752 365.851 323.632C365.767 323.585 365.756 323.491 365.782 323.6C365.74 323.422 365.809 323.689 365.809 323.695C365.836 323.784 365.857 323.873 365.878 323.967L365.894 324.061C365.889 323.983 365.883 323.983 365.878 324.061L365.984 323.663L365.958 323.71L366.244 323.428L366.191 323.459L366.595 323.354C366.966 323.637 367.104 323.695 367.003 323.527C366.977 323.48 366.977 323.485 367.003 323.543C366.988 323.459 366.977 323.443 366.982 323.501C366.982 323.553 366.982 323.538 366.982 323.454V323.375C366.966 323.459 366.972 323.454 366.993 323.36L367.014 323.286C366.993 323.37 366.94 323.438 366.85 323.485L366.446 323.59H366.51C366.377 323.548 366.244 323.511 366.106 323.48C365.915 323.145 365.841 323.066 365.889 323.244C365.899 323.307 365.91 323.375 365.915 323.438C365.92 323.501 365.936 323.569 365.942 323.632C365.926 323.553 365.942 323.475 366 323.396L366.287 323.114L366.727 323.056L367.078 323.26L367.051 323.229L367.258 323.574L367.248 323.532L366.881 324.417L366.929 324.391L366.526 324.496L366.42 324.475L366.069 324.271L366.112 324.302C366.446 324.569 366.908 324.627 367.237 324.302C367.513 324.03 367.577 323.459 367.237 323.192C366.881 322.909 366.499 322.836 366.08 323.051C365.756 323.218 365.644 323.606 365.713 323.936C365.836 324.517 366.558 324.763 367.057 324.48C367.635 324.155 367.534 323.538 367.455 322.998C367.38 322.49 367.104 322.004 366.515 321.993C365.926 321.983 365.559 322.485 365.443 322.993C365.347 323.417 365.405 323.878 365.613 324.265C365.889 324.773 366.51 325.098 367.051 324.763C367.54 324.464 367.508 323.92 367.396 323.438C367.296 323.004 367.104 322.548 366.712 322.297C365.809 321.716 364.683 322.6 364.928 323.6C365.145 324.496 366.281 324.82 367.035 324.37C367.646 324.004 367.949 323.197 367.726 322.527C367.561 322.019 367.094 321.574 366.515 321.71C365.984 321.836 365.719 322.381 365.724 322.883C365.729 323.386 365.963 323.915 366.404 324.187C367.009 324.559 367.72 324.176 367.874 323.532C367.986 323.061 367.906 322.475 367.768 322.014C367.603 321.475 367.078 320.878 366.435 321.14C366.101 321.276 365.851 321.522 365.851 321.899C365.851 322.496 366.085 323.056 366.504 323.48C366.754 323.726 367.168 323.779 367.471 323.6C367.789 323.417 367.906 323.056 367.837 322.716C367.789 322.485 367.747 322.255 367.699 322.024L366.717 322.993C367.922 323.37 368.978 322.014 368.294 320.962C368.118 320.689 367.731 320.475 367.396 320.6C366.903 320.784 366.674 321.145 366.595 321.637C366.595 321.653 366.558 321.846 366.547 321.846C366.558 321.846 366.765 321.454 366.897 321.543C366.839 321.501 366.515 321.585 366.467 321.59C366.361 321.606 366.26 321.632 366.159 321.668C365.273 321.983 364.514 322.747 364.381 323.695C364.333 324.014 364.381 324.313 364.668 324.522C364.954 324.731 365.246 324.721 365.554 324.585C365.751 324.496 365.952 324.402 366.138 324.286C366.324 324.171 366.595 323.993 366.712 323.789C366.781 323.726 366.775 323.716 366.712 323.758C366.637 323.789 366.648 323.789 366.738 323.758C366.85 323.731 366.977 323.684 367.078 323.632C367.354 323.485 367.55 323.239 367.651 322.951C367.837 322.433 367.651 321.805 367.163 321.517C366.674 321.229 366 321.286 365.581 321.705C365.183 322.098 365.326 322.904 365.931 323.019C367.046 323.229 367.901 322.134 367.407 321.124C367.211 320.721 366.68 320.668 366.319 320.841C365.374 321.302 364.88 322.496 365.22 323.48C365.368 323.915 365.947 324.271 366.388 323.951C366.929 323.559 367.269 323.025 367.317 322.354C367.37 321.548 366.68 320.899 365.867 321.239C365.342 321.459 364.891 321.925 364.774 322.485C364.63 323.182 365.05 323.867 365.756 324.046C366.42 324.213 367.099 323.899 367.439 323.328C367.779 322.758 367.81 321.815 367.184 321.433C366.558 321.051 365.782 321.38 365.315 321.815C364.848 322.25 364.625 322.888 364.737 323.501C364.885 324.339 365.782 324.705 366.526 324.333C366.823 324.182 367.067 323.941 367.216 323.642C367.295 323.485 367.354 323.323 367.418 323.161C367.412 323.182 367.513 322.941 367.465 323.035C367.449 323.082 367.46 323.066 367.497 322.988C367.402 323.087 367.28 323.14 367.126 323.145L366.722 323.04L366.457 322.6C366.451 322.668 366.446 322.684 366.457 322.642C366.435 322.695 366.435 322.778 366.43 322.831C366.404 322.988 366.377 323.145 366.345 323.297C366.281 323.606 366.207 323.915 366.122 324.218C366.037 324.522 365.936 324.826 365.825 325.119C365.804 325.171 365.788 325.224 365.767 325.271C365.83 325.129 365.751 325.271 365.74 325.302C365.719 325.375 365.777 325.265 365.82 325.245C365.878 325.213 365.936 325.229 365.995 325.213C366.043 325.197 366.037 325.239 365.963 325.192C365.788 325.077 366.005 325.276 365.883 325.124C365.851 325.087 365.814 325.051 365.782 325.014C365.867 325.119 365.772 324.993 365.756 324.962C365.724 324.909 365.692 324.857 365.666 324.799C365.724 324.915 365.666 324.805 365.66 324.779C365.639 324.705 365.613 324.637 365.597 324.564C365.591 324.532 365.549 324.318 365.57 324.475C365.554 324.365 365.549 324.25 365.554 324.135C365.554 324.066 365.554 323.998 365.565 323.93C365.575 323.763 365.575 323.826 365.57 323.862C365.618 323.527 365.724 323.197 365.841 322.878C365.889 322.747 365.936 322.616 365.989 322.485C366.016 322.417 366.043 322.344 366.069 322.276C366.128 322.124 366.101 322.197 366.085 322.229C366.154 322.087 366.186 322.024 366.239 321.977C366.35 321.867 366.281 321.946 366.255 321.962C366.297 321.935 366.34 321.909 366.382 321.888C366.319 321.915 366.313 321.915 366.366 321.899C366.473 321.862 366.584 321.836 366.701 321.81C366.775 321.794 366.855 321.784 366.929 321.768C366.961 321.763 367.057 321.721 366.956 321.763C367.088 321.716 367.019 321.784 366.95 321.731L366.919 321.716C366.844 321.653 366.844 321.653 366.908 321.716C366.897 321.716 366.807 321.564 366.903 321.716C366.998 321.867 366.887 321.627 366.934 321.778C367.136 322.375 367.226 322.857 367.216 323.47C367.216 323.784 367.195 324.009 367.136 324.281C367.11 324.402 367.083 324.522 367.046 324.642C367.025 324.71 367.003 324.773 366.982 324.836C367.025 324.726 366.929 324.946 366.924 324.946C366.892 325.004 366.855 325.066 366.818 325.119C366.786 325.161 366.786 325.161 366.818 325.119C366.781 325.156 366.749 325.192 366.706 325.229C366.818 325.129 366.457 325.339 366.611 325.286C366.616 325.286 366.382 325.344 366.499 325.323C366.558 325.323 366.542 325.323 366.462 325.323C366.366 325.323 366.366 325.323 366.462 325.328L366.425 325.318C366.372 325.302 366.377 325.307 366.446 325.334C366.366 325.286 366.366 325.286 366.435 325.344L366.382 325.297L366.335 325.25C366.388 325.318 366.388 325.318 366.335 325.245L366.303 325.182C366.335 325.265 366.335 325.26 366.303 325.182C366.292 325.135 366.276 325.093 366.271 325.046C366.308 325.213 366.276 325.025 366.271 324.978C366.271 324.789 366.239 325.019 366.292 324.836C366.319 324.752 366.34 324.663 366.372 324.585C366.34 324.663 366.398 324.527 366.404 324.527C366.462 324.422 366.52 324.318 366.584 324.218H365.209C365.687 324.978 366.717 325.245 367.518 324.82C368.06 324.532 368.389 323.92 368.097 323.344C367.874 322.904 367.396 322.658 366.919 322.595C365.92 322.464 365.151 323.208 364.853 324.082C364.694 324.559 364.668 325.082 364.869 325.548C365.082 326.046 365.586 326.396 366.138 326.391C366.69 326.386 367.099 326.035 367.402 325.627C367.704 325.218 367.97 324.695 367.826 324.182C367.672 323.611 367.078 323.244 366.489 323.37C365.867 323.506 365.687 324.182 365.666 324.726C365.644 325.307 365.984 325.889 366.573 326.056C367.12 326.213 367.672 325.915 367.906 325.423C368.108 324.993 368.171 324.475 368.124 324.004C368.076 323.532 367.959 322.894 367.598 322.532C367.099 322.035 366.361 322.203 365.958 322.71C365.66 323.082 365.475 323.59 365.453 324.061C365.427 324.574 365.697 325.093 366.143 325.365C366.642 325.669 367.306 325.553 367.704 325.145C368.49 324.328 368.007 322.674 366.796 322.616C366.329 322.595 365.841 322.878 365.506 323.171C365.193 323.449 364.97 323.805 364.827 324.187C364.519 324.993 364.678 326.569 365.894 326.407C366.441 326.334 366.818 325.873 367.12 325.454C367.37 325.108 367.561 324.705 367.678 324.297C367.795 323.888 367.885 323.417 367.757 323.004C367.566 322.365 366.865 322.124 366.266 322.365C365.751 322.569 365.326 322.967 365.252 323.532C365.183 324.051 365.4 324.606 365.894 324.852C366.42 325.114 367.094 324.957 367.423 324.464C367.773 323.941 367.593 323.223 366.998 322.972C366.404 322.721 365.772 323.066 365.559 323.632C365.374 324.129 365.549 324.915 366.016 325.208C366.627 325.59 367.306 325.171 367.465 324.532C367.593 324.025 367.518 323.391 367.115 323.019C366.69 322.627 365.952 322.574 365.538 323.019C365.108 323.48 365.193 324.197 365.687 324.58C366.218 324.993 366.86 324.815 367.338 324.433C367.816 324.051 367.518 323.265 366.988 323.119C366.494 322.983 365.947 323.045 365.517 323.333C365.023 323.663 364.779 324.26 365.087 324.805C365.374 325.313 366.037 325.522 366.558 325.224C367.104 324.909 367.195 324.292 366.961 323.758C366.791 323.37 366.212 323.281 365.873 323.475C365.464 323.71 365.416 324.161 365.586 324.548L365.591 324.559Z" fill="#942846"/>
<path d="M355.988 293.976C355.908 295.625 355.993 297.275 356.115 298.919C356.174 299.715 356.237 300.505 356.285 301.301C356.322 301.914 356.359 303.118 355.425 303.018C354.915 302.966 354.921 303.751 355.425 303.804C356.136 303.877 356.731 303.369 356.959 302.736C357.262 301.898 357.055 300.882 356.991 300.018C356.842 298.008 356.688 295.992 356.784 293.976C356.811 293.473 356.014 293.473 355.988 293.976Z" fill="black"/>
<path d="M355.266 299.909C355.897 299.626 356.322 299.066 356.917 298.736C357.548 298.38 358.292 298.296 359.003 298.285C360.245 298.259 362.093 298.636 362.741 297.238C362.953 296.783 362.268 296.38 362.05 296.84C361.748 297.495 360.994 297.542 360.352 297.526C359.661 297.511 358.971 297.469 358.281 297.542C357.644 297.61 357.017 297.762 356.46 298.086C355.903 298.411 355.467 298.956 354.857 299.233C354.39 299.443 354.793 300.118 355.26 299.914L355.266 299.909Z" fill="black"/>
<path d="M354.49 296.756C356.131 296.866 357.777 296.756 359.391 296.437C360.553 296.201 362.364 295.934 362.916 294.72C363.123 294.264 362.438 293.861 362.226 294.322C361.997 294.83 361.493 295.05 360.983 295.217C360.293 295.442 359.587 295.61 358.876 295.741C357.432 296.008 355.956 296.071 354.49 295.976C353.981 295.94 353.981 296.725 354.49 296.762V296.756Z" fill="black"/>
<path d="M359.327 293.233C359.369 296.484 359.412 299.731 359.454 302.982C359.46 303.485 360.256 303.49 360.251 302.982C360.208 299.731 360.166 296.484 360.123 293.233C360.118 292.73 359.322 292.725 359.327 293.233Z" fill="black"/>
<path d="M358.053 302.249C358.451 301.061 359.056 299.935 359.853 298.961C359.9 298.903 359.948 298.846 359.996 298.793C360.017 298.767 360.123 298.684 360.129 298.647C360.192 298.61 360.145 298.605 359.991 298.636C360.007 298.652 360.017 298.673 360.028 298.689C360.06 298.767 360.134 298.846 360.182 298.914C360.373 299.197 360.548 299.479 360.718 299.773C361.052 300.349 361.36 300.945 361.62 301.558C361.705 301.752 361.886 301.893 362.109 301.83C362.295 301.778 362.47 301.542 362.385 301.349C362.066 300.6 361.705 299.872 361.286 299.176C361.074 298.825 360.856 298.448 360.591 298.129C360.325 297.809 359.874 297.799 359.561 298.087C359.295 298.333 359.077 298.657 358.865 298.951C358.632 299.27 358.419 299.6 358.223 299.94C357.84 300.605 357.527 301.312 357.283 302.045C357.124 302.527 357.894 302.731 358.053 302.254V302.249Z" fill="black"/>
<path d="M364.747 294.296C367.158 294.479 369.807 294.615 371.856 293.117C372.265 292.819 371.867 292.138 371.453 292.437C369.515 293.85 367.025 293.683 364.747 293.51C364.238 293.474 364.238 294.259 364.747 294.296Z" fill="black"/>
<path d="M366.292 292.578C366.117 293.604 366.117 294.851 367.136 295.458C367.561 295.709 368.087 295.782 368.543 295.584C369.058 295.358 369.276 294.835 369.478 294.353C369.743 293.72 369.945 293.076 369.839 292.384C369.807 292.175 369.541 292.06 369.35 292.112C369.122 292.175 369.037 292.384 369.074 292.594C369.138 293.007 368.989 293.458 368.83 293.861C368.74 294.091 368.681 294.233 368.58 294.437C368.538 294.521 368.495 294.599 368.442 294.673C368.442 294.673 368.4 294.73 368.432 294.693C368.421 294.709 368.405 294.725 368.389 294.741C368.373 294.756 368.363 294.772 368.347 294.782C368.347 294.782 368.267 294.851 368.294 294.83C368.304 294.819 368.23 294.861 368.209 294.877C368.15 294.913 368.241 294.877 368.177 294.887C368.14 294.898 368.097 294.908 368.06 294.913C368.124 294.913 368.002 294.924 368.06 294.913C368.039 294.913 368.012 294.913 367.991 294.913C367.949 294.913 367.911 294.913 367.869 294.908C367.949 294.919 367.842 294.898 367.816 294.892C367.773 294.882 367.736 294.866 367.694 294.856C367.694 294.856 367.635 294.835 367.673 294.851C367.71 294.866 367.641 294.835 367.635 294.835C367.598 294.814 367.561 294.793 367.524 294.772C367.503 294.762 367.481 294.746 367.46 294.73C367.46 294.73 367.407 294.693 367.439 294.72C367.471 294.746 367.423 294.704 367.423 294.704C367.407 294.688 367.386 294.672 367.37 294.657C367.333 294.625 367.301 294.589 367.269 294.552C367.221 294.5 367.28 294.573 367.243 294.515C367.221 294.479 367.195 294.442 367.174 294.405C367.126 294.311 367.099 294.259 367.067 294.144C366.945 293.72 366.988 293.227 367.067 292.798C367.104 292.589 367.009 292.374 366.791 292.316C366.6 292.264 366.34 292.379 366.303 292.589L366.292 292.578Z" fill="black"/>
<path d="M365.045 299.149C365.416 298.484 365.857 297.866 366.335 297.275C366.584 296.966 366.844 296.662 367.099 296.358C367.306 296.117 367.529 295.777 367.821 295.631C368.161 295.463 368.538 295.714 368.835 295.871C369.133 296.028 369.425 296.191 369.706 296.364C370.285 296.725 370.8 297.154 371.129 297.751C371.373 298.196 372.063 297.798 371.819 297.353C371.437 296.657 370.826 296.138 370.152 295.714C369.796 295.489 369.419 295.28 369.042 295.091C368.665 294.903 368.246 294.73 367.805 294.814C367.402 294.887 367.094 295.159 366.834 295.452C366.531 295.788 366.244 296.138 365.952 296.484C365.363 297.201 364.806 297.939 364.349 298.746C364.1 299.191 364.79 299.584 365.039 299.144L365.045 299.149Z" fill="black"/>
<path d="M365.411 298.427C366.419 298.531 367.439 298.479 368.437 298.291C369.217 298.144 370.051 297.872 370.465 297.149C370.72 296.709 370.03 296.311 369.775 296.751C369.44 297.332 368.649 297.458 368.044 297.563C367.173 297.715 366.281 297.725 365.405 297.641C365.193 297.62 365.007 297.835 365.007 298.034C365.007 298.264 365.193 298.406 365.405 298.427H365.411Z" fill="black"/>
<path d="M367.423 295.086C367.492 297.437 367.497 299.793 367.423 302.144C367.407 302.652 368.204 302.647 368.219 302.144C368.288 299.793 368.283 297.437 368.219 295.086C368.204 294.583 367.407 294.578 367.423 295.086Z" fill="black"/>
<path d="M365.772 301.966C365.883 301.385 366.085 300.919 366.436 300.437C366.738 300.018 367.179 299.641 367.662 299.379C367.853 299.28 367.912 299.023 367.805 298.84C367.699 298.657 367.45 298.599 367.259 298.699C366.101 299.322 365.241 300.474 365.002 301.751C364.965 301.961 365.061 302.175 365.278 302.233C365.475 302.285 365.73 302.17 365.767 301.961L365.772 301.966Z" fill="black"/>
<path d="M368.135 299.317C368.23 299.327 368.081 299.306 368.166 299.317C368.198 299.322 368.235 299.327 368.267 299.338C368.336 299.353 368.405 299.369 368.469 299.39C368.533 299.411 368.602 299.432 368.665 299.458C368.676 299.458 368.777 299.505 368.697 299.468C368.729 299.484 368.761 299.495 368.793 299.51C368.92 299.568 369.042 299.641 369.154 299.715C369.18 299.736 369.212 299.751 369.239 299.772C369.244 299.772 369.334 299.845 369.271 299.793C369.324 299.835 369.377 299.882 369.43 299.929C369.531 300.023 369.626 300.123 369.717 300.228C369.77 300.29 369.685 300.186 369.738 300.259C369.759 300.285 369.78 300.317 369.796 300.343C369.833 300.4 369.876 300.458 369.908 300.516C369.94 300.573 369.977 300.636 370.009 300.699C370.019 300.725 370.035 300.751 370.046 300.777C370.051 300.793 370.062 300.809 370.067 300.825C370.051 300.788 370.051 300.783 370.062 300.809C370.109 300.945 370.157 301.081 370.189 301.222C370.232 301.421 370.481 301.558 370.678 301.495C370.89 301.427 371.001 301.228 370.954 301.013C370.662 299.683 369.472 298.688 368.124 298.526C367.917 298.5 367.715 298.725 367.726 298.919C367.736 299.154 367.901 299.285 368.124 299.311L368.135 299.317Z" fill="black"/>
<path d="M228.408 172.861C228.408 172.861 225.509 177.94 301.958 177.94C378.407 177.94 376.884 172.861 376.884 172.861C376.884 172.861 374.441 163.856 301.3 163.044C228.158 162.233 228.408 172.861 228.408 172.861Z" fill="#A6A6B2"/>
<path d="M275.334 371.095C274.198 368.43 262.136 369.048 263.521 362.105C264.907 355.168 256.827 355.953 256.954 354.116C257.082 352.278 252.58 348.1 242.774 342.633C232.968 337.162 228.005 328.722 228.005 328.722C228.005 328.722 227.957 328.528 227.829 328.203C227.59 327.607 227.075 326.57 226.061 325.491C225.801 325.209 225.504 324.926 225.164 324.648C224.75 324.303 224.283 323.962 223.747 323.648C223.094 323.261 222.382 322.968 221.644 322.716C220.668 322.386 219.643 322.135 218.645 321.868C216.33 321.245 214.18 320.522 213.177 318.449C213.15 318.386 213.118 318.329 213.081 318.271C212.874 317.873 212.614 317.517 212.301 317.208C211.17 316.067 209.349 315.444 206.551 315.014C205.733 314.894 204.836 314.784 203.849 314.69C202.389 314.543 200.738 314.417 198.858 314.287C198.428 314.255 197.988 314.224 197.531 314.192C196.331 314.114 195.046 314.025 193.671 313.931C193.48 313.915 193.284 313.904 193.088 313.889C192.774 313.868 192.472 313.852 192.18 313.836C191.59 313.805 191.033 313.794 190.513 313.8C190.003 313.805 189.525 313.826 189.069 313.857C187.078 313.999 185.586 314.397 184.365 314.978C183.988 315.156 183.638 315.355 183.303 315.564C180.85 317.114 179.438 319.454 176.354 321.612C176.035 321.831 175.701 322.051 175.345 322.266C175.122 322.402 174.894 322.538 174.655 322.669C174.044 323.004 173.381 323.334 172.648 323.648C172.515 323.706 172.383 323.763 172.25 323.826C170.923 324.428 169.893 325.072 169.086 325.743C168.751 326.02 168.459 326.298 168.199 326.58C166.649 328.261 166.272 330.036 165.953 331.622H165.948C165.704 332.827 165.486 333.921 164.823 334.795L164.796 334.822C164.754 334.884 164.7 334.947 164.647 335.005C164.249 335.455 163.713 335.832 162.959 336.13C162.221 336.418 161.616 336.774 161.122 337.172C161.117 337.178 161.112 337.178 161.106 337.183C161.101 337.188 161.096 337.193 161.096 337.199C160.979 337.288 160.867 337.382 160.767 337.487C160.448 337.785 160.183 338.104 159.96 338.434C159.944 338.455 159.933 338.481 159.917 338.502C159.535 339.094 159.301 339.712 159.163 340.309C158.654 344.56 153.302 349.67 149.586 353.335C145.87 357 145.87 356.477 142.684 359.095C139.499 361.713 139.499 365.378 135.252 368.519C131.005 371.661 131.535 370.614 128.35 373.755C125.165 376.897 144.808 376.373 143.215 377.42C141.622 378.467 149.055 382.656 153.833 382.132C158.611 381.609 162.327 386.321 166.575 386.321C170.822 386.321 168.167 385.274 168.167 391.557C168.167 397.84 204.268 387.892 208.515 386.321C212.762 384.75 218.602 386.845 222.85 387.368C227.097 387.892 230.282 387.368 235.06 384.227C239.838 381.085 239.838 381.609 245.227 379.682C250.615 377.755 270.099 380.562 275.334 378.483C280.568 376.405 276.47 373.755 275.334 371.095Z" fill="#7BAF33"/>
<path d="M189.998 320.255C189.366 321.318 187.741 321.946 186.361 321.664C184.981 321.381 184.375 320.287 185.007 319.224C185.639 318.161 187.263 317.533 188.644 317.815C190.024 318.098 190.629 319.192 189.998 320.255Z" fill="#95BF5C"/>
<path d="M203.626 319.559C203.222 320.235 201.784 320.554 200.403 320.271C199.023 319.989 198.232 319.208 198.635 318.528C199.039 317.847 200.478 317.533 201.858 317.816C203.238 318.098 204.029 318.879 203.626 319.559Z" fill="#95BF5C"/>
<path d="M196.899 325.308C196.071 325.832 194.532 325.785 193.464 325.198C192.397 324.612 192.201 323.711 193.029 323.182C193.857 322.654 195.397 322.706 196.464 323.292C197.531 323.879 197.728 324.779 196.899 325.308Z" fill="#95BF5C"/>
<path d="M177.049 326.13C177.607 326.769 177.007 327.607 175.711 328C174.416 328.392 172.908 328.199 172.351 327.56C171.793 326.921 172.393 326.083 173.689 325.691C174.984 325.298 176.492 325.492 177.049 326.13Z" fill="#95BF5C"/>
<path d="M180.58 342.639C182.283 342.639 183.664 341.474 183.664 340.037C183.664 338.6 182.283 337.435 180.58 337.435C178.876 337.435 177.495 338.6 177.495 340.037C177.495 341.474 178.876 342.639 180.58 342.639Z" fill="#95BF5C"/>
<path d="M211.642 392.086C212.909 392.086 213.936 391.221 213.936 390.154C213.936 389.087 212.909 388.222 211.642 388.222C210.375 388.222 209.349 389.087 209.349 390.154C209.349 391.221 210.375 392.086 211.642 392.086Z" fill="#7BAF33"/>
<path d="M220.514 393.331C221.864 392.409 222.485 390.987 221.901 390.155C221.316 389.323 219.749 389.396 218.399 390.318C217.049 391.24 216.428 392.661 217.012 393.493C217.596 394.326 219.164 394.253 220.514 393.331Z" fill="#7BAF33"/>
<path d="M213.766 328.732C215.033 328.732 216.059 327.867 216.059 326.8C216.059 325.733 215.033 324.868 213.766 324.868C212.499 324.868 211.472 325.733 211.472 326.8C211.472 327.867 212.499 328.732 213.766 328.732Z" fill="#95BF5C"/>
<path d="M220.513 336.784C221.863 335.862 222.484 334.44 221.899 333.608C221.315 332.776 219.747 332.848 218.397 333.77C217.047 334.692 216.427 336.114 217.011 336.946C217.595 337.778 219.163 337.705 220.513 336.784Z" fill="#95BF5C"/>
</g>
<defs>
<clipPath id="clip0_414_9782">
<rect width="417" height="417" fill="white"/>
</clipPath>
</defs>
</svg>
